<?xml version="1.0" encoding="UTF-8" standalone="no"?>
<!DOCTYPE svg PUBLIC "-//W3C//DTD SVG 1.1//EN"
 "http://www.w3.org/Graphics/SVG/1.1/DTD/svg11.dtd">
<!-- Generated by graphviz version 12.2.1 (20241206.2353)
 -->
<!-- Title: G Pages: 1 -->
<svg width="206pt" height="257pt"
 viewBox="0.00 0.00 205.61 256.65" xmlns="http://www.w3.org/2000/svg" xmlns:xlink="http://www.w3.org/1999/xlink">
<g id="graph0" class="graph" transform="scale(1 1) rotate(0) translate(4 252.65)">
<title>G</title>
<polygon fill="white" stroke="none" points="-4,4 -4,-252.65 201.61,-252.65 201.61,4 -4,4"/>
<!-- entry -->
<g id="node1" class="node">
<title>entry</title>
<ellipse fill="none" stroke="black" cx="89.8" cy="-230.65" rx="59.03" ry="18"/>
<text text-anchor="middle" x="89.8" y="-225.6" font-family="Times,serif" font-size="14.00">int result = 0</text>
</g>
<!-- header -->
<g id="node2" class="node">
<title>header</title>
<ellipse fill="none" stroke="black" cx="89.8" cy="-124.33" rx="89.8" ry="52.33"/>
<text text-anchor="middle" x="89.8" y="-144.03" font-family="Times,serif" font-size="14.00">if n &lt; 0, jumpto end</text>
<text text-anchor="middle" x="89.8" y="-127.53" font-family="Times,serif" font-size="14.00">result = result + n</text>
<text text-anchor="middle" x="89.8" y="-111.03" font-family="Times,serif" font-size="14.00">n = n &#45; 1</text>
<text text-anchor="middle" x="89.8" y="-94.53" font-family="Times,serif" font-size="14.00">jumpto header</text>
</g>
<!-- entry&#45;&gt;header -->
<g id="edge1" class="edge">
<title>entry&#45;&gt;header</title>
<path fill="none" stroke="black" d="M89.8,-212.42C89.8,-205.51 89.8,-197.07 89.8,-188.21"/>
<polygon fill="black" stroke="black" points="93.3,-188.34 89.8,-178.34 86.3,-188.34 93.3,-188.34"/>
</g>
<!-- header&#45;&gt;header -->
<g id="edge3" class="edge">
<title>header&#45;&gt;header</title>
<path fill="none" stroke="black" d="M174.32,-142.77C188.12,-140.13 197.61,-133.98 197.61,-124.33 197.61,-117.54 192.92,-112.48 185.33,-109.16"/>
<polygon fill="black" stroke="black" points="186.35,-105.81 175.77,-106.31 184.36,-112.52 186.35,-105.81"/>
</g>
<!-- end -->
<g id="node3" class="node">
<title>end</title>
<ellipse fill="none" stroke="black" cx="89.8" cy="-18" rx="55.96" ry="18"/>
<text text-anchor="middle" x="89.8" y="-12.95" font-family="Times,serif" font-size="14.00">return result</text>
</g>
<!-- header&#45;&gt;end -->
<g id="edge2" class="edge">
<title>header&#45;&gt;end</title>
<path fill="none" stroke="black" d="M89.8,-71.77C89.8,-63.52 89.8,-55.24 89.8,-47.77"/>
<polygon fill="black" stroke="black" points="93.3,-47.98 89.8,-37.98 86.3,-47.98 93.3,-47.98"/>
</g>
</g>
</svg>
