<svg version="1.1" xmlns="http://www.w3.org/2000/svg" viewBox="0 0 569.4849485198501 325.7584550766631" width="569.4849485198501" height="325.7584550766631">
  <!-- svg-source:excalidraw -->
  
  <defs>
    <style class="style-fonts">
      @font-face {
        font-family: "Virgil";
        src: url("https://excalidraw.com/Virgil.woff2");
      }
      @font-face {
        font-family: "Cascadia";
        src: url("https://excalidraw.com/Cascadia.woff2");
      }
    </style>
    
  </defs>
  <g stroke-linecap="round" transform="translate(295 33.5084550766631) rotate(0 23 22.5)"><path d="M19.99 1.03 C24.74 0.24, 30.99 1, 35.14 3.54 C39.3 6.07, 43.35 11.64, 44.92 16.26 C46.49 20.87, 46.52 26.83, 44.58 31.23 C42.63 35.62, 37.69 40.39, 33.25 42.62 C28.81 44.85, 22.77 45.49, 17.93 44.61 C13.09 43.73, 7.05 41.12, 4.22 37.34 C1.4 33.57, 0.62 26.8, 0.97 21.96 C1.32 17.12, 2.81 11.97, 6.33 8.28 C9.85 4.59, 18.75 1.06, 22.08 -0.16 C25.41 -1.38, 26.32 0.44, 26.3 0.94 M12.83 0.75 C16.6 -1.61, 23.52 -1.29, 28.45 0.55 C33.38 2.39, 39.31 7.75, 42.39 11.79 C45.47 15.83, 47.6 20.08, 46.92 24.79 C46.24 29.49, 42.34 36.74, 38.31 40.02 C34.29 43.3, 27.55 44.45, 22.76 44.48 C17.96 44.51, 13.15 43.01, 9.52 40.2 C5.9 37.39, 2.24 32.29, 0.99 27.61 C-0.25 22.93, -0.19 16.51, 2.05 12.12 C4.29 7.73, 12.56 3.1, 14.44 1.28 C16.32 -0.54, 13.34 0.59, 13.33 1.21" stroke="#1e1e1e" stroke-width="1" fill="none"></path></g><g stroke-linecap="round" transform="translate(295 141.0084550766631) rotate(0 23 22.5)"><path d="M13.22 2.51 C17.25 0.3, 24.04 0.45, 28.8 1.69 C33.56 2.93, 39.08 6.12, 41.8 9.93 C44.52 13.74, 45.6 19.84, 45.11 24.56 C44.63 29.28, 42.33 34.72, 38.89 38.24 C35.44 41.75, 29.11 45.17, 24.46 45.64 C19.82 46.11, 14.85 43.78, 11.02 41.04 C7.2 38.31, 3.12 33.88, 1.49 29.22 C-0.13 24.56, -0.88 17.64, 1.25 13.1 C3.38 8.57, 12.05 3.82, 14.26 2.01 C16.47 0.21, 14.53 1.85, 14.52 2.29 M32.32 2.11 C36.83 4.39, 42.05 10.97, 44.33 15.42 C46.61 19.87, 47.58 24.27, 46.02 28.79 C44.47 33.31, 39.57 39.93, 34.99 42.52 C30.42 45.11, 23.33 45.16, 18.57 44.31 C13.81 43.46, 9.45 40.9, 6.43 37.44 C3.41 33.98, 0.79 28.35, 0.44 23.55 C0.08 18.76, 1.3 12.58, 4.29 8.66 C7.29 4.74, 13.69 1.22, 18.43 0.04 C23.17 -1.14, 30.33 0.92, 32.74 1.6 C35.16 2.27, 33.16 3.49, 32.91 4.11" stroke="#1e1e1e" stroke-width="1" fill="none"></path></g><g stroke-linecap="round" transform="translate(295 251.0084550766631) rotate(0 23 22.5)"><path d="M31.77 2.64 C36.2 4.14, 41.29 8.36, 43.45 12.52 C45.6 16.68, 45.82 22.96, 44.67 27.58 C43.52 32.21, 40.45 37.25, 36.56 40.27 C32.67 43.3, 26.01 45.93, 21.35 45.74 C16.68 45.55, 11.99 42.41, 8.57 39.16 C5.15 35.91, 1.83 31.03, 0.85 26.23 C-0.12 21.44, 0.19 14.56, 2.72 10.41 C5.25 6.27, 10.95 2.55, 16.04 1.37 C21.12 0.2, 30 2.68, 33.23 3.37 C36.46 4.05, 35.29 5.36, 35.42 5.46 M15.44 2.76 C20.17 0.96, 27.67 -0.7, 32.22 0.93 C36.76 2.55, 40.72 8.29, 42.72 12.49 C44.73 16.7, 45.01 21.64, 44.22 26.17 C43.43 30.7, 41.51 36.51, 38 39.67 C34.49 42.83, 28.23 45.15, 23.16 45.11 C18.08 45.08, 11.28 42.7, 7.53 39.46 C3.78 36.22, 1.54 30.57, 0.67 25.67 C-0.2 20.77, -0.07 13.94, 2.3 10.06 C4.66 6.19, 12.86 3.68, 14.84 2.42 C16.82 1.16, 13.73 2.31, 14.18 2.5" stroke="#1e1e1e" stroke-width="1" fill="none"></path></g><g stroke-linecap="round"><g transform="translate(101.04465949558767 58.3223448101146) rotate(0 94.11936749694593 1.9521656505888814)"><path d="M1.07 -0.66 C32.32 -0.09, 156.97 3.83, 188.06 4.56 M0.18 1.61 C31.22 2.35, 156.04 2.26, 187.12 2.82" stroke="#1971c2" stroke-width="1" fill="none"></path></g><g transform="translate(101.04465949558767 58.3223448101146) rotate(0 94.11936749694593 1.9521656505888814)"><path d="M157.76 12.9 C169.82 8.46, 178.27 5.97, 185.56 3.57 M157.94 12.9 C165.3 10.95, 170.75 7.37, 186.64 3.68" stroke="#1971c2" stroke-width="1" fill="none"></path></g><g transform="translate(101.04465949558767 58.3223448101146) rotate(0 94.11936749694593 1.9521656505888814)"><path d="M157.92 -7.62 C170.12 -4.91, 178.51 -0.26, 185.56 3.57 M158.1 -7.62 C165.56 -5.01, 170.97 -4.02, 186.64 3.68" stroke="#1971c2" stroke-width="1" fill="none"></path></g></g><mask></mask><g stroke-linecap="round"><g transform="translate(92.83560872140788 64.21011618386314) rotate(0 97.10610072786722 48.85810759719553)"><path d="M0.45 0.45 C32.91 16.41, 162.62 80.39, 194.99 96.54 M-0.78 -0.36 C31.49 15.74, 161.54 82.11, 193.95 98.07" stroke="#f08c00" stroke-width="1" fill="none"></path></g><g transform="translate(92.83560872140788 64.21011618386314) rotate(0 97.10610072786722 48.85810759719553)"><path d="M164.91 94.29 C173.64 94.77, 184.48 96.18, 194.62 98.24 M164.68 94.19 C175.54 95.21, 186.56 96.87, 193.2 97.75" stroke="#f08c00" stroke-width="1" fill="none"></path></g><g transform="translate(92.83560872140788 64.21011618386314) rotate(0 97.10610072786722 48.85810759719553)"><path d="M174.12 75.95 C180.04 82.3, 187.95 89.54, 194.62 98.24 M173.89 75.86 C181.33 83.6, 189.02 91.9, 193.2 97.75" stroke="#f08c00" stroke-width="1" fill="none"></path></g></g><mask></mask><g stroke-linecap="round"><g transform="translate(98.09362846196586 70.58061017048703) rotate(0 95.94969468921522 96.87157329963529)"><path d="M-0.69 -1.17 C31.11 31.14, 158.41 162.35, 190.21 194.92 M1.15 0.83 C33.39 33.3, 160.68 160.64, 192.59 193.08" stroke="#2f9e44" stroke-width="1" fill="none"></path></g><g transform="translate(98.09362846196586 70.58061017048703) rotate(0 95.94969468921522 96.87157329963529)"><path d="M163.49 179.24 C173.29 182.41, 178.98 188.61, 191.26 194.55 M164.8 180.54 C173.14 183.33, 179.19 186.49, 192.8 192.36" stroke="#2f9e44" stroke-width="1" fill="none"></path></g><g transform="translate(98.09362846196586 70.58061017048703) rotate(0 95.94969468921522 96.87157329963529)"><path d="M178.06 164.78 C184.32 171.52, 186.33 181.36, 191.26 194.55 M179.37 166.08 C183.92 172.62, 186.06 179.66, 192.8 192.36" stroke="#2f9e44" stroke-width="1" fill="none"></path></g></g><mask></mask><g stroke-linecap="round"><g transform="translate(93.97940008442436 165.0011998283606) rotate(0 96.36733496516194 -48.79285515073116)"><path d="M0.7 -0.87 C33.09 -17.23, 161.18 -82.67, 193.12 -98.88 M-0.39 1.29 C32.05 -14.84, 160.75 -81.24, 192.79 -97.56" stroke="#1971c2" stroke-width="1" fill="none"></path></g><g transform="translate(93.97940008442436 165.0011998283606) rotate(0 96.36733496516194 -48.79285515073116)"><path d="M170.95 -73.6 C175.92 -79.35, 181.25 -84.58, 191.23 -99.52 M172.5 -76 C179.33 -83.36, 185.14 -90.69, 193.78 -97.87" stroke="#1971c2" stroke-width="1" fill="none"></path></g><g transform="translate(93.97940008442436 165.0011998283606) rotate(0 96.36733496516194 -48.79285515073116)"><path d="M161.58 -91.86 C168.32 -94, 175.53 -95.57, 191.23 -99.52 M163.14 -94.26 C173.28 -95.46, 182.24 -96.64, 193.78 -97.87" stroke="#1971c2" stroke-width="1" fill="none"></path></g></g><mask></mask><g stroke-linecap="round"><g transform="translate(91.11214712557796 180.90812510674584) rotate(0 98.12658288976985 -6.956006138482564)"><path d="M-0.39 -0.91 C31.93 -3.51, 161.93 -12.84, 194.54 -15.14 M1.61 1.23 C34.22 -1.25, 164.53 -11.39, 196.64 -13.83" stroke="#f08c00" stroke-width="1" fill="none"></path></g><g transform="translate(91.11214712557796 180.90812510674584) rotate(0 98.12658288976985 -6.956006138482564)"><path d="M167.81 -3.38 C178.26 -6.47, 188.66 -11.26, 195.01 -12.34 M169.94 -1.77 C179.92 -6.66, 188.64 -10.95, 196.95 -14.07" stroke="#f08c00" stroke-width="1" fill="none"></path></g><g transform="translate(91.11214712557796 180.90812510674584) rotate(0 98.12658288976985 -6.956006138482564)"><path d="M166.23 -23.84 C177.33 -19.67, 188.29 -17.19, 195.01 -12.34 M168.37 -22.23 C179.05 -19.72, 188.34 -16.62, 196.95 -14.07" stroke="#f08c00" stroke-width="1" fill="none"></path></g></g><mask></mask><g stroke-linecap="round"><g transform="translate(81.9870236285027 187.34169296938643) rotate(0 102.66667088523263 44.917407530488646)"><path d="M0.19 0.18 C34.76 15.04, 171.96 74.35, 206.51 89.15 M-1.18 -0.78 C33.28 14.27, 170.67 75.45, 205.37 90.61" stroke="#2f9e44" stroke-width="1" fill="none"></path></g><g transform="translate(81.9870236285027 187.34169296938643) rotate(0 102.66667088523263 44.917407530488646)"><path d="M175.73 88.01 C181.9 90.01, 188.4 89.72, 204.99 90.97 M174.49 87.99 C187.25 89.75, 198.38 90.57, 205.34 90.31" stroke="#2f9e44" stroke-width="1" fill="none"></path></g><g transform="translate(81.9870236285027 187.34169296938643) rotate(0 102.66667088523263 44.917407530488646)"><path d="M184.02 69.24 C188.33 75.46, 192.97 79.38, 204.99 90.97 M182.77 69.21 C192.41 78.11, 200.35 86.15, 205.34 90.31" stroke="#2f9e44" stroke-width="1" fill="none"></path></g></g><mask></mask><g stroke-linecap="round"><g transform="translate(98.76423702899456 279.8366691616001) rotate(0 98.32628619600933 -104.56627190001558)"><path d="M0.44 -0.66 C32.8 -35.36, 162.53 -173.95, 195.12 -208.97 M-0.78 1.61 C31.88 -33.37, 164.76 -175.46, 197.43 -210.74" stroke="#1971c2" stroke-width="1" fill="none"></path></g><g transform="translate(98.76423702899456 279.8366691616001) rotate(0 98.32628619600933 -104.56627190001558)"><path d="M184.62 -184.37 C191.49 -193.52, 192.95 -203.2, 198.33 -208.98 M184.76 -183.97 C190.5 -193.24, 193.15 -201.5, 197.6 -210.78" stroke="#1971c2" stroke-width="1" fill="none"></path></g><g transform="translate(98.76423702899456 279.8366691616001) rotate(0 98.32628619600933 -104.56627190001558)"><path d="M169.61 -198.36 C182.12 -202.23, 189.3 -206.57, 198.33 -208.98 M169.75 -197.96 C180.51 -202.56, 188.32 -206.01, 197.6 -210.78" stroke="#1971c2" stroke-width="1" fill="none"></path></g></g><mask></mask><g stroke-linecap="round"><g transform="translate(97.71712262290771 278.4450926098288) rotate(0 96.09213203828523 -56.18330999467105)"><path d="M-0.31 -0.05 C31.59 -18.62, 160.27 -91.89, 192.49 -110.4 M1.73 -1.12 C33.41 -19.55, 159.92 -94.18, 191.76 -112.32" stroke="#f08c00" stroke-width="1" fill="none"></path></g><g transform="translate(97.71712262290771 278.4450926098288) rotate(0 96.09213203828523 -56.18330999467105)"><path d="M172.46 -88.61 C180.48 -96.7, 186.78 -109.11, 191.44 -113.91 M172.59 -90.17 C180.58 -97.2, 187.74 -106.74, 190.84 -111.72" stroke="#f08c00" stroke-width="1" fill="none"></path></g><g transform="translate(97.71712262290771 278.4450926098288) rotate(0 96.09213203828523 -56.18330999467105)"><path d="M162.15 -106.36 C174.35 -107.49, 184.68 -112.97, 191.44 -113.91 M162.28 -107.92 C174.19 -108.3, 185.23 -111.15, 190.84 -111.72" stroke="#f08c00" stroke-width="1" fill="none"></path></g></g><mask></mask><g stroke-linecap="round"><g transform="translate(101.01304898205467 273.1639020672647) rotate(0 92.69410236225315 2.3587246212306923)"><path d="M0.1 -0.43 C31.23 0.31, 155.63 3.91, 186.69 4.98 M-1.31 -1.7 C29.73 -0.82, 154.87 5.45, 186.07 6.41" stroke="#2f9e44" stroke-width="1" fill="none"></path></g><g transform="translate(101.01304898205467 273.1639020672647) rotate(0 92.69410236225315 2.3587246212306923)"><path d="M156.77 16.53 C165.51 13.47, 175.62 9.92, 186.05 6.99 M156.96 15.12 C164.38 13.78, 172.75 9.87, 185.88 5.64" stroke="#2f9e44" stroke-width="1" fill="none"></path></g><g transform="translate(101.01304898205467 273.1639020672647) rotate(0 92.69410236225315 2.3587246212306923)"><path d="M157.62 -3.98 C166.21 -1.02, 176.07 1.45, 186.05 6.99 M157.81 -5.38 C164.98 -1.32, 173.12 0.16, 185.88 5.64" stroke="#2f9e44" stroke-width="1" fill="none"></path></g></g><mask></mask><g transform="translate(166.10166904406094 32.17742743921542) rotate(0 23.433332443237305 12)"><text x="0" y="0" font-family="Cascadia, Segoe UI Emoji" font-size="20px" fill="#1971c2" text-anchor="start" style="white-space: pre;" direction="ltr" dominant-baseline="text-before-edge">x*w0</text></g><g stroke-linecap="round" transform="translate(45 32.7584550766631) rotate(0 23 24.5)"><path d="M21.96 -0.6 C26.75 -0.96, 33.44 2.32, 37.47 5.47 C41.49 8.63, 45.22 13.45, 46.11 18.33 C47 23.22, 45.18 30.05, 42.8 34.78 C40.42 39.5, 36.2 44.63, 31.82 46.68 C27.44 48.74, 21.19 48.51, 16.53 47.12 C11.87 45.73, 6.46 42.45, 3.86 38.36 C1.26 34.27, 0.36 27.77, 0.95 22.58 C1.53 17.39, 3.4 11.02, 7.37 7.22 C11.33 3.41, 21.46 0.93, 24.71 -0.24 C27.96 -1.42, 27.06 -0.41, 26.85 0.18 M29.47 1.45 C34.2 2.21, 38.08 6.14, 40.9 9.99 C43.73 13.84, 46.79 19.22, 46.41 24.53 C46.03 29.84, 42.21 37.62, 38.62 41.84 C35.03 46.06, 29.63 49.15, 24.88 49.84 C20.13 50.54, 14.18 49.05, 10.12 46.04 C6.06 43.02, 1.82 37.02, 0.52 31.73 C-0.78 26.45, 0.5 19.13, 2.33 14.32 C4.16 9.51, 7.22 5, 11.5 2.88 C15.78 0.75, 25.33 2.05, 28.01 1.56 C30.69 1.06, 27.65 -0.08, 27.58 -0.09" stroke="#1e1e1e" stroke-width="1" fill="none"></path></g><g transform="translate(62.61987723888615 44.934338937592656) rotate(0 5.616666793823242 12.5)"><text x="5.616666793823242" y="0" font-family="Virgil, Segoe UI Emoji" font-size="20px" fill="#1e1e1e" text-anchor="middle" style="white-space: pre;" direction="ltr" dominant-baseline="text-before-edge">x</text></g><g stroke-linecap="round" transform="translate(45 140.2584550766631) rotate(0 23 24.5)"><path d="M31.77 2.01 C36.3 3.54, 40.17 8.21, 42.33 12.75 C44.48 17.29, 45.49 23.99, 44.69 29.24 C43.9 34.5, 41.13 41.03, 37.56 44.3 C33.98 47.57, 28.16 48.97, 23.24 48.85 C18.31 48.73, 11.9 46.78, 8.01 43.58 C4.11 40.38, 0.64 34.93, -0.14 29.65 C-0.91 24.38, 0.85 16.67, 3.34 11.92 C5.83 7.17, 9.87 2.85, 14.82 1.18 C19.76 -0.49, 29.69 1.33, 33.02 1.89 C36.35 2.45, 34.9 4.03, 34.81 4.56 M23.65 1.47 C28.31 0.69, 34.77 1, 38.47 4.16 C42.16 7.32, 45.16 15.26, 45.82 20.42 C46.49 25.57, 44.77 30.63, 42.46 35.1 C40.16 39.58, 36.65 45.32, 31.98 47.26 C27.31 49.2, 19.36 48.58, 14.47 46.75 C9.57 44.92, 5.11 40.83, 2.6 36.26 C0.1 31.7, -1.53 24.45, -0.56 19.36 C0.41 14.27, 4.5 9.18, 8.41 5.72 C12.32 2.27, 20.5 -0.46, 22.89 -1.38 C25.27 -2.3, 22.86 -0.51, 22.72 0.2" stroke="#1e1e1e" stroke-width="1" fill="none"></path></g><g transform="translate(63.54487742962101 152.43433893759266) rotate(0 4.691666603088379 12.5)"><text x="4.691666603088379" y="0" font-family="Virgil, Segoe UI Emoji" font-size="20px" fill="#1e1e1e" text-anchor="middle" style="white-space: pre;" direction="ltr" dominant-baseline="text-before-edge">y</text></g><g stroke-linecap="round" transform="translate(45 250.2584550766631) rotate(0 23 24.5)"><path d="M33.38 2.58 C37.66 4.61, 42.55 9.8, 44.54 14.84 C46.54 19.89, 46.8 27.69, 45.36 32.85 C43.91 38.01, 40.11 43.03, 35.86 45.8 C31.6 48.57, 24.68 50.17, 19.81 49.47 C14.93 48.77, 9.75 45.49, 6.62 41.58 C3.48 37.68, 1.44 31.35, 1 26.02 C0.55 20.69, 1.03 13.92, 3.96 9.6 C6.88 5.29, 13.38 0.96, 18.53 0.13 C23.68 -0.7, 31.74 3.78, 34.85 4.63 C37.96 5.49, 37.36 5.1, 37.2 5.28 M17.42 0.62 C22.04 -1.02, 28.46 -1.32, 32.87 0.87 C37.28 3.07, 41.91 8.72, 43.86 13.77 C45.81 18.82, 46 26.26, 44.57 31.17 C43.14 36.07, 39.06 40.4, 35.27 43.21 C31.47 46.02, 26.78 48.35, 21.8 48.02 C16.82 47.69, 9.11 44.9, 5.37 41.24 C1.63 37.59, -0.24 31.25, -0.63 26.09 C-1.02 20.94, 0.07 14.68, 3.01 10.32 C5.95 5.97, 14.57 1.29, 17 -0.02 C19.44 -1.34, 17.75 1.91, 17.62 2.45" stroke="#1e1e1e" stroke-width="1" fill="none"></path></g><g transform="translate(62.51987733425358 262.43433893759266) rotate(0 5.7166666984558105 12.5)"><text x="5.7166666984558105" y="0" font-family="Virgil, Segoe UI Emoji" font-size="20px" fill="#1e1e1e" text-anchor="middle" style="white-space: pre;" direction="ltr" dominant-baseline="text-before-edge">z</text></g><g transform="translate(186.25617146957063 71.36539336301757) rotate(0 23.433332443237305 12)"><text x="0" y="0" font-family="Cascadia, Segoe UI Emoji" font-size="20px" fill="#1971c2" text-anchor="start" style="white-space: pre;" direction="ltr" dominant-baseline="text-before-edge">y*w1</text></g><g transform="translate(262.9188858826118 101.04128281322687) rotate(0 23.433332443237305 12)"><text x="0" y="0" font-family="Cascadia, Segoe UI Emoji" font-size="20px" fill="#1971c2" text-anchor="start" style="white-space: pre;" direction="ltr" dominant-baseline="text-before-edge">z*w2</text></g><g transform="translate(266.5682920257094 10) rotate(0 146.45832824707037 12)"><text x="0" y="0" font-family="Cascadia, Segoe UI Emoji" font-size="20px" fill="#1971c2" text-anchor="start" style="white-space: pre;" direction="ltr" dominant-baseline="text-before-edge">relu(x*w0+y*w1+z*w2+bias0)</text></g></svg>
