<svg version="1.1" xmlns="http://www.w3.org/2000/svg" viewBox="0 0 695.6661712552618 511.9476633495133" width="695.6661712552618" height="511.9476633495133">
  <!-- svg-source:excalidraw -->
  
  <defs>
    <style class="style-fonts">
      @font-face {
        font-family: "Virgil";
        src: url("https://excalidraw.com/Virgil.woff2");
      }
      @font-face {
        font-family: "Cascadia";
        src: url("https://excalidraw.com/Cascadia.woff2");
      }
      @font-face {
        font-family: "Assistant";
        src: url("https://excalidraw.com/Assistant-Regular.woff2");
      }
    </style>
    
  </defs>
  <rect x="0" y="0" width="695.6661712552618" height="511.9476633495133" fill="#ffffff"></rect><g stroke-linecap="round" transform="translate(10 43.086745499613244) rotate(0 337.8330856276309 229.43045892495002)"><path d="M32 0 C215.21 0, 398.41 0, 643.67 0 M32 0 C256.81 0, 481.62 0, 643.67 0 M643.67 0 C665 0, 675.67 10.67, 675.67 32 M643.67 0 C665 0, 675.67 10.67, 675.67 32 M675.67 32 C675.67 111.64, 675.67 191.28, 675.67 426.86 M675.67 32 C675.67 115.88, 675.67 199.75, 675.67 426.86 M675.67 426.86 C675.67 448.19, 665 458.86, 643.67 458.86 M675.67 426.86 C675.67 448.19, 665 458.86, 643.67 458.86 M643.67 458.86 C463.81 458.86, 283.95 458.86, 32 458.86 M643.67 458.86 C486.17 458.86, 328.67 458.86, 32 458.86 M32 458.86 C10.67 458.86, 0 448.19, 0 426.86 M32 458.86 C10.67 458.86, 0 448.19, 0 426.86 M0 426.86 C0 324.71, 0 222.56, 0 32 M0 426.86 C0 275.37, 0 123.88, 0 32 M0 32 C0 10.67, 10.67 0, 32 0 M0 32 C0 10.67, 10.67 0, 32 0" stroke="#1e1e1e" stroke-width="4" fill="none"></path></g><g transform="translate(36.99181869705308 10) rotate(0 24.600000381469727 16.800000000000182)"><text x="0" y="27.0375" font-family="Cascadia, Segoe UI Emoji" font-size="28px" fill="#1e1e1e" text-anchor="start" style="white-space: pre;" direction="ltr" dominant-baseline="alphabetic">x86</text></g><g stroke-linecap="round" transform="translate(94.4582714069079 94.89362332137716) rotate(0 283.3438782683354 192.4255461951193)"><path d="M32 0 C228.73 0, 425.45 0, 534.69 0 M32 0 C209 0, 385.99 0, 534.69 0 M534.69 0 C556.02 0, 566.69 10.67, 566.69 32 M534.69 0 C556.02 0, 566.69 10.67, 566.69 32 M566.69 32 C566.69 153.81, 566.69 275.63, 566.69 352.85 M566.69 32 C566.69 131.43, 566.69 230.86, 566.69 352.85 M566.69 352.85 C566.69 374.18, 556.02 384.85, 534.69 384.85 M566.69 352.85 C566.69 374.18, 556.02 384.85, 534.69 384.85 M534.69 384.85 C417.38 384.85, 300.07 384.85, 32 384.85 M534.69 384.85 C384.53 384.85, 234.37 384.85, 32 384.85 M32 384.85 C10.67 384.85, 0 374.18, 0 352.85 M32 384.85 C10.67 384.85, 0 374.18, 0 352.85 M0 352.85 C0 264.93, 0 177.02, 0 32 M0 352.85 C0 279.45, 0 206.05, 0 32 M0 32 C0 10.67, 10.67 0, 32 0 M0 32 C0 10.67, 10.67 0, 32 0" stroke="#1e1e1e" stroke-width="4" fill="none"></path></g><g transform="translate(125.6765987232643 52.131261262995395) rotate(0 32.79999923706055 16.800000000000182)"><text x="0" y="27.0375" font-family="Cascadia, Segoe UI Emoji" font-size="28px" fill="#1e1e1e" text-anchor="start" style="white-space: pre;" direction="ltr" dominant-baseline="alphabetic">wasm</text></g><g stroke-linecap="round" transform="translate(167.00803620026136 144.0693149590461) rotate(0 232.40770427550956 158.7205560953198)"><path d="M32 0 C158.28 0, 284.56 0, 432.82 0 M32 0 C179.34 0, 326.67 0, 432.82 0 M432.82 0 C454.15 0, 464.82 10.67, 464.82 32 M432.82 0 C454.15 0, 464.82 10.67, 464.82 32 M464.82 32 C464.82 96.68, 464.82 161.36, 464.82 285.44 M464.82 32 C464.82 102.37, 464.82 172.74, 464.82 285.44 M464.82 285.44 C464.82 306.77, 454.15 317.44, 432.82 317.44 M464.82 285.44 C464.82 306.77, 454.15 317.44, 432.82 317.44 M432.82 317.44 C318.52 317.44, 204.22 317.44, 32 317.44 M432.82 317.44 C307.4 317.44, 181.98 317.44, 32 317.44 M32 317.44 C10.67 317.44, 0 306.77, 0 285.44 M32 317.44 C10.67 317.44, 0 306.77, 0 285.44 M0 285.44 C0 224.37, 0 163.3, 0 32 M0 285.44 C0 199.83, 0 114.22, 0 32 M0 32 C0 10.67, 10.67 0, 32 0 M0 32 C0 10.67, 10.67 0, 32 0" stroke="#1e1e1e" stroke-width="4" fill="none"></path></g><g transform="translate(203.58299628660916 105.52079393289569) rotate(0 106.5999984741211 16.800000000000182)"><text x="0" y="27.0375" font-family="Cascadia, Segoe UI Emoji" font-size="28px" fill="#1e1e1e" text-anchor="start" style="white-space: pre;" direction="ltr" dominant-baseline="alphabetic">myinterpreter</text></g><g stroke-linecap="round" transform="translate(445.8574844337859 196.94886399274765) rotate(0 60.59157189335542 118.23282804974042)"><path d="M30.3 0 C46.3 0, 62.29 0, 90.89 0 M30.3 0 C46.27 0, 62.24 0, 90.89 0 M90.89 0 C111.08 0, 121.18 10.1, 121.18 30.3 M90.89 0 C111.08 0, 121.18 10.1, 121.18 30.3 M121.18 30.3 C121.18 99.25, 121.18 168.2, 121.18 206.17 M121.18 30.3 C121.18 77.78, 121.18 125.27, 121.18 206.17 M121.18 206.17 C121.18 226.37, 111.08 236.47, 90.89 236.47 M121.18 206.17 C121.18 226.37, 111.08 236.47, 90.89 236.47 M90.89 236.47 C76.74 236.47, 62.59 236.47, 30.3 236.47 M90.89 236.47 C72.16 236.47, 53.44 236.47, 30.3 236.47 M30.3 236.47 C10.1 236.47, 0 226.37, 0 206.17 M30.3 236.47 C10.1 236.47, 0 226.37, 0 206.17 M0 206.17 C0 168.55, 0 130.94, 0 30.3 M0 206.17 C0 149.12, 0 92.08, 0 30.3 M0 30.3 C0 10.1, 10.1 0, 30.3 0 M0 30.3 C0 10.1, 10.1 0, 30.3 0" stroke="#1e1e1e" stroke-width="4" fill="none"></path></g><g transform="translate(419.7273720856342 156.02161601125408) rotate(0 82 16.800000000000182)"><text x="0" y="27.0375" font-family="Cascadia, Segoe UI Emoji" font-size="28px" fill="#1e1e1e" text-anchor="start" style="white-space: pre;" direction="ltr" dominant-baseline="alphabetic">mybytecode</text></g><g transform="translate(479.7878091567245 307.7056224036269) rotate(308.0836717850406 30.038572183725137 13.035957923609203)"><text x="0" y="18.271198625730783" font-family="Virgil, Segoe UI Emoji" font-size="20.857532677774866px" fill="#1e1e1e" text-anchor="start" style="white-space: pre;" direction="ltr" dominant-baseline="alphabetic">known!</text></g></svg>
