<?xml version="1.0" encoding="UTF-8" standalone="no"?>
<!DOCTYPE svg PUBLIC "-//W3C//DTD SVG 1.1//EN" "http://www.w3.org/Graphics/SVG/1.1/DTD/svg11.dtd">
<!-- Generated by graphviz version 2.40.1 (20161225.0304)
 -->
<!-- Title: %0 Pages: 1 -->
<svg width="174pt" height="188pt" viewBox="0.00 0.00 174.00 188.00" xmlns="http://www.w3.org/2000/svg" xmlns:xlink="http://www.w3.org/1999/xlink">
<g id="graph0" class="graph" transform="scale(1 1) rotate(0) translate(4 184)">
<title>%0</title>
<polygon fill="#ffffff" stroke="transparent" points="-4,4 -4,-184 170,-184 170,4 -4,4"/>
<!-- v2 -->
<g id="node1" class="node">
<title>v2</title>
<ellipse fill="none" stroke="#000000" cx="63" cy="-90" rx="31.4756" ry="18"/>
<text text-anchor="middle" x="63" y="-85.8" font-family="Times,serif" font-size="14.00" fill="#000000">v2: +</text>
</g>
<!-- v0 -->
<g id="node2" class="node">
<title>v0</title>
<ellipse fill="none" stroke="#000000" cx="27" cy="-18" rx="27" ry="18"/>
<text text-anchor="middle" x="27" y="-13.8" font-family="Times,serif" font-size="14.00" fill="#000000">v0</text>
</g>
<!-- v2&#45;&gt;v0 -->
<g id="edge1" class="edge">
<title>v2-&gt;v0</title>
<path fill="none" stroke="#000000" d="M54.2854,-72.5708C50.0403,-64.0807 44.8464,-53.6929 40.1337,-44.2674"/>
<polygon fill="#000000" stroke="#000000" points="43.237,-42.6477 35.6343,-35.2687 36.976,-45.7782 43.237,-42.6477"/>
</g>
<!-- v1 -->
<g id="node3" class="node">
<title>v1</title>
<ellipse fill="none" stroke="#000000" cx="99" cy="-18" rx="27" ry="18"/>
<text text-anchor="middle" x="99" y="-13.8" font-family="Times,serif" font-size="14.00" fill="#000000">v1</text>
</g>
<!-- v2&#45;&gt;v1 -->
<g id="edge2" class="edge">
<title>v2-&gt;v1</title>
<path fill="none" stroke="#000000" d="M71.7146,-72.5708C75.9597,-64.0807 81.1536,-53.6929 85.8663,-44.2674"/>
<polygon fill="#000000" stroke="#000000" points="89.024,-45.7782 90.3657,-35.2687 82.763,-42.6477 89.024,-45.7782"/>
</g>
<!-- v4 -->
<g id="node4" class="node">
<title>v4</title>
<ellipse fill="none" stroke="#000000" cx="101" cy="-162" rx="31.4756" ry="18"/>
<text text-anchor="middle" x="101" y="-157.8" font-family="Times,serif" font-size="14.00" fill="#000000">v4: +</text>
</g>
<!-- v4&#45;&gt;v2 -->
<g id="edge3" class="edge">
<title>v4-&gt;v2</title>
<path fill="none" stroke="#000000" d="M91.8013,-144.5708C87.3203,-136.0807 81.8379,-125.6929 76.8634,-116.2674"/>
<polygon fill="#000000" stroke="#000000" points="79.877,-114.4789 72.114,-107.2687 73.6863,-117.7462 79.877,-114.4789"/>
</g>
<!-- v3 -->
<g id="node5" class="node">
<title>v3</title>
<ellipse fill="none" stroke="#000000" cx="139" cy="-90" rx="27" ry="18"/>
<text text-anchor="middle" x="139" y="-85.8" font-family="Times,serif" font-size="14.00" fill="#000000">v3</text>
</g>
<!-- v4&#45;&gt;v3 -->
<g id="edge4" class="edge">
<title>v4-&gt;v3</title>
<path fill="none" stroke="#000000" d="M110.1987,-144.5708C114.6797,-136.0807 120.1621,-125.6929 125.1366,-116.2674"/>
<polygon fill="#000000" stroke="#000000" points="128.3137,-117.7462 129.886,-107.2687 122.123,-114.4789 128.3137,-117.7462"/>
</g>
</g>
</svg>