<?xml version="1.0" encoding="UTF-8" standalone="no"?>
<!DOCTYPE svg PUBLIC "-//W3C//DTD SVG 1.1//EN" "http://www.w3.org/Graphics/SVG/1.1/DTD/svg11.dtd">
<!-- Generated by graphviz version 2.40.1 (20161225.0304)
 -->
<!-- Title: %0 Pages: 1 -->
<svg width="208pt" height="188pt" viewBox="0.00 0.00 208.24 188.00" xmlns="http://www.w3.org/2000/svg" xmlns:xlink="http://www.w3.org/1999/xlink">
<g id="graph0" class="graph" transform="scale(1 1) rotate(0) translate(4 184)">
<title>%0</title>
<polygon fill="#ffffff" stroke="transparent" points="-4,4 -4,-184 204.2369,-184 204.2369,4 -4,4"/>
<!-- v2 -->
<g id="node1" class="node">
<title>v2</title>
<ellipse fill="none" stroke="#c0c0c0" cx="31.2369" cy="-90" rx="31.4756" ry="18"/>
<text text-anchor="middle" x="31.2369" y="-85.8" font-family="Times,serif" font-size="14.00" fill="#000000">v2: +</text>
</g>
<!-- v0 -->
<g id="node2" class="node">
<title>v0</title>
<ellipse fill="none" stroke="#000000" cx="101.2369" cy="-18" rx="27" ry="18"/>
<text text-anchor="middle" x="101.2369" y="-13.8" font-family="Times,serif" font-size="14.00" fill="#000000">v0</text>
</g>
<!-- v2&#45;&gt;v0 -->
<g id="edge1" class="edge">
<title>v2-&gt;v0</title>
<path fill="none" stroke="#c0c0c0" d="M46.7722,-74.0209C56.2364,-64.2863 68.4847,-51.688 78.9686,-40.9046"/>
<polygon fill="#c0c0c0" stroke="#c0c0c0" points="81.7642,-43.05 86.2255,-33.4403 76.7452,-38.1705 81.7642,-43.05"/>
</g>
<!-- v1 -->
<g id="node3" class="node">
<title>v1</title>
<ellipse fill="none" stroke="#000000" cx="29.2369" cy="-18" rx="27" ry="18"/>
<text text-anchor="middle" x="29.2369" y="-13.8" font-family="Times,serif" font-size="14.00" fill="#000000">v1</text>
</g>
<!-- v2&#45;&gt;v1 -->
<g id="edge2" class="edge">
<title>v2-&gt;v1</title>
<path fill="none" stroke="#c0c0c0" d="M30.7322,-71.8314C30.5183,-64.131 30.264,-54.9743 30.0263,-46.4166"/>
<polygon fill="#c0c0c0" stroke="#c0c0c0" points="33.5248,-46.3122 29.7484,-36.4133 26.5275,-46.5066 33.5248,-46.3122"/>
</g>
<!-- v5 -->
<g id="node4" class="node">
<title>v5</title>
<ellipse fill="none" stroke="#000000" cx="111.2369" cy="-90" rx="31.4756" ry="18"/>
<text text-anchor="middle" x="111.2369" y="-85.8" font-family="Times,serif" font-size="14.00" fill="#000000">v5: +</text>
</g>
<!-- v5&#45;&gt;v0 -->
<g id="edge3" class="edge">
<title>v5-&gt;v0</title>
<path fill="none" stroke="#000000" d="M108.7135,-71.8314C107.644,-64.131 106.3722,-54.9743 105.1837,-46.4166"/>
<polygon fill="#000000" stroke="#000000" points="108.6368,-45.8367 103.7943,-36.4133 101.7033,-46.7997 108.6368,-45.8367"/>
</g>
<!-- v5&#45;&gt;v1 -->
<g id="edge4" class="edge">
<title>v5-&gt;v1</title>
<path fill="none" stroke="#000000" d="M93.8468,-74.7307C82.0893,-64.407 66.4023,-50.633 53.4299,-39.2426"/>
<polygon fill="#000000" stroke="#000000" points="55.5867,-36.4787 45.763,-32.5107 50.9681,-41.7388 55.5867,-36.4787"/>
</g>
<!-- v3 -->
<g id="node5" class="node">
<title>v3</title>
<ellipse fill="none" stroke="#000000" cx="173.2369" cy="-18" rx="27" ry="18"/>
<text text-anchor="middle" x="173.2369" y="-13.8" font-family="Times,serif" font-size="14.00" fill="#000000">v3</text>
</g>
<!-- v5&#45;&gt;v3 -->
<g id="edge5" class="edge">
<title>v5-&gt;v3</title>
<path fill="none" stroke="#000000" d="M125.3057,-73.6621C133.5052,-64.1401 143.9844,-51.9707 153.0521,-41.4405"/>
<polygon fill="#000000" stroke="#000000" points="155.7768,-43.64 159.6499,-33.7784 150.4724,-39.0723 155.7768,-43.64"/>
</g>
<!-- v4 -->
<g id="node6" class="node">
<title>v4</title>
<ellipse fill="none" stroke="#c0c0c0" cx="111.2369" cy="-162" rx="31.4756" ry="18"/>
<text text-anchor="middle" x="111.2369" y="-157.8" font-family="Times,serif" font-size="14.00" fill="#000000">v4: +</text>
</g>
<!-- v4&#45;&gt;v2 -->
<g id="edge7" class="edge">
<title>v4-&gt;v2</title>
<path fill="none" stroke="#c0c0c0" d="M94.271,-146.7307C83.1342,-136.7075 68.3837,-123.4321 55.9518,-112.2434"/>
<polygon fill="#c0c0c0" stroke="#c0c0c0" points="57.9527,-109.3355 48.1784,-105.2473 53.27,-114.5386 57.9527,-109.3355"/>
</g>
<!-- v4&#45;&gt;v5 -->
<g id="edge6" class="edge">
<title>v4-&gt;v5</title>
<path fill="none" stroke="#c0c0c0" stroke-dasharray="1,5" d="M111.2369,-143.8314C111.2369,-136.131 111.2369,-126.9743 111.2369,-118.4166"/>
<polygon fill="#c0c0c0" stroke="#c0c0c0" points="114.737,-118.4132 111.2369,-108.4133 107.737,-118.4133 114.737,-118.4132"/>
</g>
<!-- v4&#45;&gt;v3 -->
<g id="edge8" class="edge">
<title>v4-&gt;v3</title>
<path fill="none" stroke="#c0c0c0" d="M126.0868,-145.6117C134.581,-135.4417 144.7953,-121.731 151.2369,-108 160.4883,-88.2795 166.1082,-64.2381 169.3498,-45.9656"/>
<polygon fill="#c0c0c0" stroke="#c0c0c0" points="172.8278,-46.3847 170.9931,-35.95 165.9201,-45.2514 172.8278,-46.3847"/>
</g>
</g>
</svg>