<svg version="1.1" xmlns="http://www.w3.org/2000/svg" viewBox="0 0 991.6390219099312 511.9476633495142" width="991.6390219099312" height="511.9476633495142">
  <!-- svg-source:excalidraw -->
  
  <defs>
    <style class="style-fonts">
      @font-face {
        font-family: "Virgil";
        src: url("https://excalidraw.com/Virgil.woff2");
      }
      @font-face {
        font-family: "Cascadia";
        src: url("https://excalidraw.com/Cascadia.woff2");
      }
      @font-face {
        font-family: "Assistant";
        src: url("https://excalidraw.com/Assistant-Regular.woff2");
      }
    </style>
    
  </defs>
  <rect x="0" y="0" width="991.6390219099312" height="511.9476633495142" fill="#ffffff"></rect><g stroke-linecap="round" transform="translate(10 43.08674549961415) rotate(0 337.8330856276309 229.43045892495002)"><path d="M32 0 C168.79 0, 305.59 0, 643.67 0 M32 0 C167.7 0, 303.39 0, 643.67 0 M643.67 0 C665 0, 675.67 10.67, 675.67 32 M643.67 0 C665 0, 675.67 10.67, 675.67 32 M675.67 32 C675.67 150.29, 675.67 268.59, 675.67 426.86 M675.67 32 C675.67 184.72, 675.67 337.44, 675.67 426.86 M675.67 426.86 C675.67 448.19, 665 458.86, 643.67 458.86 M675.67 426.86 C675.67 448.19, 665 458.86, 643.67 458.86 M643.67 458.86 C469.31 458.86, 294.96 458.86, 32 458.86 M643.67 458.86 C416.57 458.86, 189.47 458.86, 32 458.86 M32 458.86 C10.67 458.86, 0 448.19, 0 426.86 M32 458.86 C10.67 458.86, 0 448.19, 0 426.86 M0 426.86 C0 297.31, 0 167.75, 0 32 M0 426.86 C0 286.1, 0 145.33, 0 32 M0 32 C0 10.67, 10.67 0, 32 0 M0 32 C0 10.67, 10.67 0, 32 0" stroke="#1e1e1e" stroke-width="4" fill="none"></path></g><g transform="translate(36.99181869705308 10) rotate(0 24.600000381469727 16.800000000000182)"><text x="0" y="27.0375" font-family="Cascadia, Segoe UI Emoji" font-size="28px" fill="#1e1e1e" text-anchor="start" style="white-space: pre;" direction="ltr" dominant-baseline="alphabetic">x86</text></g><g stroke-linecap="round" transform="translate(94.4582714069079 94.89362332137716) rotate(0 283.3438782683354 192.4255461951193)"><path d="M32 0 C186.66 0, 341.32 0, 534.69 0 M32 0 C199.37 0, 366.73 0, 534.69 0 M534.69 0 C556.02 0, 566.69 10.67, 566.69 32 M534.69 0 C556.02 0, 566.69 10.67, 566.69 32 M566.69 32 C566.69 108.43, 566.69 184.85, 566.69 352.85 M566.69 32 C566.69 125.35, 566.69 218.7, 566.69 352.85 M566.69 352.85 C566.69 374.18, 556.02 384.85, 534.69 384.85 M566.69 352.85 C566.69 374.18, 556.02 384.85, 534.69 384.85 M534.69 384.85 C380.75 384.85, 226.82 384.85, 32 384.85 M534.69 384.85 C433.74 384.85, 332.79 384.85, 32 384.85 M32 384.85 C10.67 384.85, 0 374.18, 0 352.85 M32 384.85 C10.67 384.85, 0 374.18, 0 352.85 M0 352.85 C0 286.34, 0 219.84, 0 32 M0 352.85 C0 228.74, 0 104.62, 0 32 M0 32 C0 10.67, 10.67 0, 32 0 M0 32 C0 10.67, 10.67 0, 32 0" stroke="#1e1e1e" stroke-width="4" fill="none"></path></g><g transform="translate(125.6765987232643 52.131261262995395) rotate(0 32.79999923706055 16.800000000000182)"><text x="0" y="27.0375" font-family="Cascadia, Segoe UI Emoji" font-size="28px" fill="#1e1e1e" text-anchor="start" style="white-space: pre;" direction="ltr" dominant-baseline="alphabetic">wasm</text></g><g stroke-linecap="round" transform="translate(167.00803620026136 144.0693149590461) rotate(0 231.5370004465724 158.7205560953198)"><path d="M32 0 C130.55 0, 229.11 0, 431.07 0 M32 0 C114.86 0, 197.73 0, 431.07 0 M431.07 0 C452.41 0, 463.07 10.67, 463.07 32 M431.07 0 C452.41 0, 463.07 10.67, 463.07 32 M463.07 32 C463.07 119.35, 463.07 206.7, 463.07 285.44 M463.07 32 C463.07 129.76, 463.07 227.53, 463.07 285.44 M463.07 285.44 C463.07 306.77, 452.41 317.44, 431.07 317.44 M463.07 285.44 C463.07 306.77, 452.41 317.44, 431.07 317.44 M431.07 317.44 C338.38 317.44, 245.69 317.44, 32 317.44 M431.07 317.44 C311.67 317.44, 192.26 317.44, 32 317.44 M32 317.44 C10.67 317.44, 0 306.77, 0 285.44 M32 317.44 C10.67 317.44, 0 306.77, 0 285.44 M0 285.44 C0 223.1, 0 160.76, 0 32 M0 285.44 C0 188.7, 0 91.97, 0 32 M0 32 C0 10.67, 10.67 0, 32 0 M0 32 C0 10.67, 10.67 0, 32 0" stroke="#1e1e1e" stroke-width="4" fill="none"></path></g><g transform="translate(203.58299628660916 105.5207939328966) rotate(0 106.5999984741211 16.800000000000182)"><text x="0" y="27.0375" font-family="Cascadia, Segoe UI Emoji" font-size="28px" fill="#1e1e1e" text-anchor="start" style="white-space: pre;" direction="ltr" dominant-baseline="alphabetic">myinterpreter</text></g><g stroke-linecap="round" transform="translate(816.7773155610303 110.74918492796405) rotate(0 81.34058995490659 158.7205560953198)"><path d="M32 0 C54.96 0, 77.92 0, 130.68 0 M32 0 C70.81 0, 109.62 0, 130.68 0 M130.68 0 C152.01 0, 162.68 10.67, 162.68 32 M130.68 0 C152.01 0, 162.68 10.67, 162.68 32 M162.68 32 C162.68 85.94, 162.68 139.87, 162.68 285.44 M162.68 32 C162.68 84.64, 162.68 137.29, 162.68 285.44 M162.68 285.44 C162.68 306.77, 152.01 317.44, 130.68 317.44 M162.68 285.44 C162.68 306.77, 152.01 317.44, 130.68 317.44 M130.68 317.44 C101.4 317.44, 72.13 317.44, 32 317.44 M130.68 317.44 C106.88 317.44, 83.08 317.44, 32 317.44 M32 317.44 C10.67 317.44, 0 306.77, 0 285.44 M32 317.44 C10.67 317.44, 0 306.77, 0 285.44 M0 285.44 C0 211.16, 0 136.88, 0 32 M0 285.44 C0 191.76, 0 98.08, 0 32 M0 32 C0 10.67, 10.67 0, 32 0 M0 32 C0 10.67, 10.67 0, 32 0" stroke="#1e1e1e" stroke-width="4" fill="none"></path></g><g transform="translate(817.6390219099312 71.56334460434573) rotate(0 82 16.800000000000182)"><text x="0" y="27.0375" font-family="Cascadia, Segoe UI Emoji" font-size="28px" fill="#1e1e1e" text-anchor="start" style="white-space: pre;" direction="ltr" dominant-baseline="alphabetic">mybytecode</text></g><g transform="translate(849.5128601796919 244.4421947976416) rotate(308.0836717850406 54.81666564941406 17.5)"><text x="0" y="24.528" font-family="Virgil, Segoe UI Emoji" font-size="28px" fill="#1e1e1e" text-anchor="start" style="white-space: pre;" direction="ltr" dominant-baseline="alphabetic">unknown!</text></g><g stroke-linecap="round"><g transform="translate(810.1768187932803 250.31425678666528) rotate(0 -147.14894709038572 11.754501690652432)"><path d="M0 0 C-49.05 3.92, -245.25 19.59, -294.3 23.51 M0 0 C-49.05 3.92, -245.25 19.59, -294.3 23.51" stroke="#1e1e1e" stroke-width="4" fill="none"></path></g><g transform="translate(810.1768187932803 250.31425678666528) rotate(0 -147.14894709038572 11.754501690652432)"><path d="M-271.56 13.12 C-277.55 15.85, -283.53 18.59, -294.3 23.51 M-271.56 13.12 C-276.41 15.33, -281.26 17.55, -294.3 23.51" stroke="#1e1e1e" stroke-width="4" fill="none"></path></g><g transform="translate(810.1768187932803 250.31425678666528) rotate(0 -147.14894709038572 11.754501690652432)"><path d="M-270.2 30.16 C-276.54 28.41, -282.89 26.66, -294.3 23.51 M-270.2 30.16 C-275.34 28.74, -280.48 27.32, -294.3 23.51" stroke="#1e1e1e" stroke-width="4" fill="none"></path></g></g><mask></mask></svg>
