<?xml version="1.0" encoding="UTF-8" standalone="no"?>
<!DOCTYPE svg PUBLIC "-//W3C//DTD SVG 1.1//EN"
 "http://www.w3.org/Graphics/SVG/1.1/DTD/svg11.dtd">
<!-- Generated by graphviz version 12.2.1 (20241206.2353)
 -->
<!-- Title: G Pages: 1 -->
<svg width="362pt" height="79pt"
 viewBox="0.00 0.00 361.78 78.50" xmlns="http://www.w3.org/2000/svg" xmlns:xlink="http://www.w3.org/1999/xlink">
<g id="graph0" class="graph" transform="scale(1 1) rotate(0) translate(4 74.5)">
<title>G</title>
<polygon fill="white" stroke="none" points="-4,4 -4,-74.5 357.78,-74.5 357.78,4 -4,4"/>
<!-- YARV -->
<g id="node1" class="node">
<title>YARV</title>
<ellipse fill="none" stroke="black" cx="36" cy="-18" rx="36" ry="18"/>
<text text-anchor="middle" x="36" y="-12.95" font-family="Times,serif" font-size="14.00">YARV</text>
</g>
<!-- HIR -->
<g id="node2" class="node">
<title>HIR</title>
<ellipse fill="none" stroke="black" cx="135.99" cy="-18" rx="27" ry="18"/>
<text text-anchor="middle" x="135.99" y="-12.95" font-family="Times,serif" font-size="14.00">HIR</text>
</g>
<!-- YARV&#45;&gt;HIR -->
<g id="edge1" class="edge">
<title>YARV&#45;&gt;HIR</title>
<path fill="none" stroke="black" d="M72.38,-18C80.41,-18 88.97,-18 97.1,-18"/>
<polygon fill="black" stroke="black" points="97.07,-21.5 107.07,-18 97.07,-14.5 97.07,-21.5"/>
</g>
<!-- HIR&#45;&gt;HIR -->
<g id="edge2" class="edge">
<title>HIR&#45;&gt;HIR</title>
<path fill="none" stroke="black" d="M127.87,-35.41C126.36,-45.09 129.06,-54 135.99,-54 140,-54 142.6,-51.02 143.78,-46.64"/>
<polygon fill="black" stroke="black" points="147.27,-47.02 144.07,-36.92 140.27,-46.81 147.27,-47.02"/>
<text text-anchor="middle" x="135.99" y="-57.2" font-family="Times,serif" font-size="14.00">optimize</text>
</g>
<!-- LIR -->
<g id="node3" class="node">
<title>LIR</title>
<ellipse fill="none" stroke="black" cx="226.99" cy="-18" rx="27" ry="18"/>
<text text-anchor="middle" x="226.99" y="-12.95" font-family="Times,serif" font-size="14.00">LIR</text>
</g>
<!-- HIR&#45;&gt;LIR -->
<g id="edge3" class="edge">
<title>HIR&#45;&gt;LIR</title>
<path fill="none" stroke="black" d="M163.22,-18C171.11,-18 179.94,-18 188.42,-18"/>
<polygon fill="black" stroke="black" points="188.14,-21.5 198.14,-18 188.14,-14.5 188.14,-21.5"/>
</g>
<!-- ASM -->
<g id="node4" class="node">
<title>ASM</title>
<ellipse fill="none" stroke="black" cx="322.39" cy="-18" rx="31.39" ry="18"/>
<text text-anchor="middle" x="322.39" y="-12.95" font-family="Times,serif" font-size="14.00">ASM</text>
</g>
<!-- LIR&#45;&gt;ASM -->
<g id="edge4" class="edge">
<title>LIR&#45;&gt;ASM</title>
<path fill="none" stroke="black" d="M254.01,-18C261.8,-18 270.56,-18 279.11,-18"/>
<polygon fill="black" stroke="black" points="279.03,-21.5 289.03,-18 279.03,-14.5 279.03,-21.5"/>
</g>
</g>
</svg>
