<?xml version="1.0" encoding="UTF-8" standalone="no"?>
<!DOCTYPE svg PUBLIC "-//W3C//DTD SVG 1.1//EN" "http://www.w3.org/Graphics/SVG/1.1/DTD/svg11.dtd">
<!-- Generated by graphviz version 2.40.1 (20161225.0304)
 -->
<!-- Title: G Pages: 1 -->
<svg width="494pt" height="352pt" viewBox="0.00 0.00 494.00 351.67" xmlns="http://www.w3.org/2000/svg" xmlns:xlink="http://www.w3.org/1999/xlink">
<g id="graph0" class="graph" transform="scale(1 1) rotate(0) translate(4 347.6718)">
<title>G</title>
<polygon fill="#ffffff" stroke="transparent" points="-4,4 -4,-347.6718 490,-347.6718 490,4 -4,4"/>
<!-- top -->
<g id="node1" class="node">
<title>top</title>
<polygon fill="none" stroke="#000000" points="368,-343.6718 332,-343.6718 332,-307.6718 368,-307.6718 368,-343.6718"/>
<polyline fill="none" stroke="#000000" points="344,-343.6718 332,-331.6718 "/>
<polyline fill="none" stroke="#000000" points="332,-319.6718 344,-307.6718 "/>
<polyline fill="none" stroke="#000000" points="356,-307.6718 368,-319.6718 "/>
<polyline fill="none" stroke="#000000" points="368,-331.6718 356,-343.6718 "/>
<text text-anchor="middle" x="350" y="-321.4718" font-family="Times,serif" font-size="14.00" fill="#000000">top</text>
</g>
<!-- bottom -->
<g id="node2" class="node">
<title>bottom</title>
<polygon fill="none" stroke="#000000" points="270.6728,-55.5087 215.3272,-55.5087 215.3272,-.1631 270.6728,-.1631 270.6728,-55.5087"/>
<polyline fill="none" stroke="#000000" points="227.3272,-55.5087 215.3272,-43.5087 "/>
<polyline fill="none" stroke="#000000" points="215.3272,-12.1631 227.3272,-.1631 "/>
<polyline fill="none" stroke="#000000" points="258.6728,-.1631 270.6728,-12.1631 "/>
<polyline fill="none" stroke="#000000" points="270.6728,-43.5087 258.6728,-55.5087 "/>
<text text-anchor="middle" x="243" y="-23.6359" font-family="Times,serif" font-size="14.00" fill="#000000">bottom</text>
</g>
<!-- &#45;inf -->
<g id="node3" class="node">
<title>-inf</title>
<ellipse fill="none" stroke="#000000" cx="171" cy="-109.6718" rx="27" ry="18"/>
<text text-anchor="middle" x="171" y="-105.4718" font-family="Times,serif" font-size="14.00" fill="#000000">-inf</text>
</g>
<!-- bottom&#45;&gt;&#45;inf -->
<g id="edge1" class="edge">
<title>bottom-&gt;-inf</title>
<path fill="none" stroke="#000000" d="M218.6241,-55.5418C209.8274,-65.5402 199.9933,-76.7177 191.5559,-86.3078"/>
<polygon fill="#000000" stroke="#000000" points="188.8281,-84.1096 184.8504,-93.9294 194.0836,-88.7334 188.8281,-84.1096"/>
</g>
<!-- &#45;2 -->
<g id="node4" class="node">
<title>-2</title>
<ellipse fill="none" stroke="#000000" cx="27" cy="-109.6718" rx="27" ry="18"/>
<text text-anchor="middle" x="27" y="-105.4718" font-family="Times,serif" font-size="14.00" fill="#000000">-2</text>
</g>
<!-- bottom&#45;&gt;&#45;2 -->
<g id="edge2" class="edge">
<title>bottom-&gt;-2</title>
<path fill="none" stroke="#000000" d="M215.1511,-36.5342C179.4294,-47.9584 115.7837,-69.2165 63,-91.6718 61.2157,-92.4309 59.3952,-93.2369 57.5673,-94.0708"/>
<polygon fill="#000000" stroke="#000000" points="56.027,-90.9276 48.5,-98.3837 59.0339,-97.2489 56.027,-90.9276"/>
</g>
<!-- &#45;1 -->
<g id="node5" class="node">
<title>-1</title>
<ellipse fill="none" stroke="#000000" cx="99" cy="-109.6718" rx="27" ry="18"/>
<text text-anchor="middle" x="99" y="-105.4718" font-family="Times,serif" font-size="14.00" fill="#000000">-1</text>
</g>
<!-- bottom&#45;&gt;&#45;1 -->
<g id="edge3" class="edge">
<title>bottom-&gt;-1</title>
<path fill="none" stroke="#000000" d="M215.2354,-43.6147C190.3415,-57.762 153.9291,-78.4553 128.5135,-92.8991"/>
<polygon fill="#000000" stroke="#000000" points="126.6539,-89.9302 119.6891,-97.9141 130.1126,-96.016 126.6539,-89.9302"/>
</g>
<!-- 0 -->
<g id="node6" class="node">
<title>0</title>
<ellipse fill="none" stroke="#000000" cx="459" cy="-109.6718" rx="27" ry="18"/>
<text text-anchor="middle" x="459" y="-105.4718" font-family="Times,serif" font-size="14.00" fill="#000000">0</text>
</g>
<!-- bottom&#45;&gt;0 -->
<g id="edge4" class="edge">
<title>bottom-&gt;0</title>
<path fill="none" stroke="#000000" d="M270.8489,-36.5342C306.5706,-47.9584 370.2163,-69.2165 423,-91.6718 424.7843,-92.4309 426.6048,-93.2369 428.4327,-94.0708"/>
<polygon fill="#000000" stroke="#000000" points="426.9661,-97.2489 437.5,-98.3837 429.973,-90.9276 426.9661,-97.2489"/>
</g>
<!-- 1 -->
<g id="node7" class="node">
<title>1</title>
<ellipse fill="none" stroke="#000000" cx="243" cy="-109.6718" rx="27" ry="18"/>
<text text-anchor="middle" x="243" y="-105.4718" font-family="Times,serif" font-size="14.00" fill="#000000">1</text>
</g>
<!-- bottom&#45;&gt;1 -->
<g id="edge5" class="edge">
<title>bottom-&gt;1</title>
<path fill="none" stroke="#000000" d="M243,-55.5418C243,-63.8883 243,-73.0565 243,-81.4369"/>
<polygon fill="#000000" stroke="#000000" points="239.5001,-81.5097 243,-91.5098 246.5001,-81.5098 239.5001,-81.5097"/>
</g>
<!-- 2 -->
<g id="node8" class="node">
<title>2</title>
<ellipse fill="none" stroke="#000000" cx="315" cy="-109.6718" rx="27" ry="18"/>
<text text-anchor="middle" x="315" y="-105.4718" font-family="Times,serif" font-size="14.00" fill="#000000">2</text>
</g>
<!-- bottom&#45;&gt;2 -->
<g id="edge6" class="edge">
<title>bottom-&gt;2</title>
<path fill="none" stroke="#000000" d="M267.3759,-55.5418C276.1726,-65.5402 286.0067,-76.7177 294.4441,-86.3078"/>
<polygon fill="#000000" stroke="#000000" points="291.9164,-88.7334 301.1496,-93.9294 297.1719,-84.1096 291.9164,-88.7334"/>
</g>
<!-- +inf -->
<g id="node9" class="node">
<title>+inf</title>
<ellipse fill="none" stroke="#000000" cx="387" cy="-109.6718" rx="27.4196" ry="18"/>
<text text-anchor="middle" x="387" y="-105.4718" font-family="Times,serif" font-size="14.00" fill="#000000">+inf</text>
</g>
<!-- bottom&#45;&gt;+inf -->
<g id="edge7" class="edge">
<title>bottom-&gt;+inf</title>
<path fill="none" stroke="#000000" d="M270.7646,-43.6147C295.6585,-57.762 332.0709,-78.4553 357.4865,-92.8991"/>
<polygon fill="#000000" stroke="#000000" points="355.8874,-96.016 366.3109,-97.9141 359.3461,-89.9302 355.8874,-96.016"/>
</g>
<!-- negative -->
<g id="node10" class="node">
<title>negative</title>
<ellipse fill="none" stroke="#000000" cx="135" cy="-181.6718" rx="44.0002" ry="18"/>
<text text-anchor="middle" x="135" y="-177.4718" font-family="Times,serif" font-size="14.00" fill="#000000">negative</text>
</g>
<!-- &#45;inf&#45;&gt;negative -->
<g id="edge8" class="edge">
<title>-inf-&gt;negative</title>
<path fill="none" stroke="#000000" d="M162.2854,-127.101C158.1463,-135.3791 153.1052,-145.4614 148.4876,-154.6966"/>
<polygon fill="#000000" stroke="#000000" points="145.2261,-153.3934 143.8844,-163.9029 151.4871,-156.5239 145.2261,-153.3934"/>
</g>
<!-- &#45;2&#45;&gt;negative -->
<g id="edge9" class="edge">
<title>-2-&gt;negative</title>
<path fill="none" stroke="#000000" d="M46.3082,-122.544C62.1264,-133.0894 84.8318,-148.2263 103.3091,-160.5445"/>
<polygon fill="#000000" stroke="#000000" points="101.4636,-163.5206 111.7256,-166.1555 105.3465,-157.6963 101.4636,-163.5206"/>
</g>
<!-- &#45;1&#45;&gt;negative -->
<g id="edge10" class="edge">
<title>-1-&gt;negative</title>
<path fill="none" stroke="#000000" d="M107.7146,-127.101C111.8537,-135.3791 116.8948,-145.4614 121.5124,-154.6966"/>
<polygon fill="#000000" stroke="#000000" points="118.5129,-156.5239 126.1156,-163.9029 124.7739,-153.3934 118.5129,-156.5239"/>
</g>
<!-- 0&#45;&gt;top -->
<g id="edge11" class="edge">
<title>0-&gt;top</title>
<path fill="none" stroke="#000000" d="M450.2643,-126.9829C431.3914,-164.3825 386.6786,-252.9877 363.8829,-298.1608"/>
<polygon fill="#000000" stroke="#000000" points="360.6184,-296.8611 359.2378,-307.3657 366.8677,-300.0148 360.6184,-296.8611"/>
</g>
<!-- nonnegative -->
<g id="node11" class="node">
<title>nonnegative</title>
<ellipse fill="none" stroke="#000000" cx="315" cy="-181.6718" rx="41.7308" ry="18"/>
<text text-anchor="middle" x="315" y="-177.4718" font-family="Times,serif" font-size="14.00" fill="#000000">nonnegative</text>
</g>
<!-- 1&#45;&gt;nonnegative -->
<g id="edge12" class="edge">
<title>1-&gt;nonnegative</title>
<path fill="none" stroke="#000000" d="M258.2693,-124.9411C267.7945,-134.4663 280.2569,-146.9287 291.0743,-157.7461"/>
<polygon fill="#000000" stroke="#000000" points="288.6981,-160.3197 298.2441,-164.9159 293.6479,-155.3699 288.6981,-160.3197"/>
</g>
<!-- 2&#45;&gt;nonnegative -->
<g id="edge13" class="edge">
<title>2-&gt;nonnegative</title>
<path fill="none" stroke="#000000" d="M315,-127.8404C315,-135.5408 315,-144.6975 315,-153.2552"/>
<polygon fill="#000000" stroke="#000000" points="311.5001,-153.2585 315,-163.2585 318.5001,-153.2586 311.5001,-153.2585"/>
</g>
<!-- +inf&#45;&gt;nonnegative -->
<g id="edge14" class="edge">
<title>+inf-&gt;nonnegative</title>
<path fill="none" stroke="#000000" d="M371.7307,-124.9411C362.2055,-134.4663 349.7431,-146.9287 338.9257,-157.7461"/>
<polygon fill="#000000" stroke="#000000" points="336.3521,-155.3699 331.7559,-164.9159 341.3019,-160.3197 336.3521,-155.3699"/>
</g>
<!-- nonzero -->
<g id="node12" class="node">
<title>nonzero</title>
<ellipse fill="none" stroke="#000000" cx="315" cy="-253.6718" rx="42.2777" ry="18"/>
<text text-anchor="middle" x="315" y="-249.4718" font-family="Times,serif" font-size="14.00" fill="#000000">nonzero</text>
</g>
<!-- negative&#45;&gt;nonzero -->
<g id="edge15" class="edge">
<title>negative-&gt;nonzero</title>
<path fill="none" stroke="#000000" d="M166.766,-194.3782C196.7665,-206.3784 241.8958,-224.4301 274.4754,-237.462"/>
<polygon fill="#000000" stroke="#000000" points="273.5682,-240.8686 284.1528,-241.3329 276.1679,-234.3693 273.5682,-240.8686"/>
</g>
<!-- nonnegative&#45;&gt;nonzero -->
<g id="edge16" class="edge">
<title>nonnegative-&gt;nonzero</title>
<path fill="none" stroke="#000000" d="M315,-199.8404C315,-207.5408 315,-216.6975 315,-225.2552"/>
<polygon fill="#000000" stroke="#000000" points="311.5001,-225.2585 315,-235.2585 318.5001,-225.2586 311.5001,-225.2585"/>
</g>
<!-- nonzero&#45;&gt;top -->
<g id="edge17" class="edge">
<title>nonzero-&gt;top</title>
<path fill="none" stroke="#000000" d="M323.6517,-271.4696C327.6181,-279.629 332.4074,-289.4814 336.809,-298.536"/>
<polygon fill="#000000" stroke="#000000" points="333.685,-300.1152 341.2047,-307.5787 339.9805,-297.0548 333.685,-300.1152"/>
</g>
</g>
</svg>
