<svg xmlns="http://www.w3.org/2000/svg" xmlns:xlink="http://www.w3.org/1999/xlink" width="98pt" height="188pt" viewBox="0.00 0.00 98.00 188.00">
<g id="graph0" class="graph" transform="scale(1 1) rotate(0) translate(4 184)">
<title>G</title>
<polygon fill="white" stroke="none" points="-4,4 -4,-184 94,-184 94,4 -4,4"/>
<!-- A -->
<g id="node1" class="node">
<title>A</title>
<polygon fill="none" stroke="black" points="63,-180 27,-180 27,-144 63,-144 63,-180"/>
<text xml:space="preserve" text-anchor="middle" x="45" y="-157.8" font-family="Times,serif" font-size="14.00">A</text>
</g>
<!-- B -->
<g id="node2" class="node">
<title>B</title>
<polygon fill="none" stroke="black" points="36,-108 0,-108 0,-72 36,-72 36,-108"/>
<text xml:space="preserve" text-anchor="middle" x="18" y="-85.8" font-family="Times,serif" font-size="14.00">B</text>
</g>
<!-- A&#45;&gt;B -->
<g id="edge1" class="edge">
<title>A-&gt;B</title>
<path fill="none" stroke="black" d="M38.33,-143.7C35.42,-136.15 31.93,-127.12 28.68,-118.68"/>
<polygon fill="black" stroke="black" points="32.01,-117.59 25.14,-109.52 25.48,-120.11 32.01,-117.59"/>
</g>
<!-- C -->
<g id="node3" class="node">
<title>C</title>
<polygon fill="none" stroke="black" points="90,-108 54,-108 54,-72 90,-72 90,-108"/>
<text xml:space="preserve" text-anchor="middle" x="72" y="-85.8" font-family="Times,serif" font-size="14.00">C</text>
</g>
<!-- A&#45;&gt;C -->
<g id="edge2" class="edge">
<title>A-&gt;C</title>
<path fill="none" stroke="black" d="M51.67,-143.7C54.58,-136.15 58.07,-127.12 61.32,-118.68"/>
<polygon fill="black" stroke="black" points="64.52,-120.11 64.86,-109.52 57.99,-117.59 64.52,-120.11"/>
</g>
<!-- D -->
<g id="node4" class="node">
<title>D</title>
<polygon fill="none" stroke="black" points="63,-36 27,-36 27,0 63,0 63,-36"/>
<text xml:space="preserve" text-anchor="middle" x="45" y="-13.8" font-family="Times,serif" font-size="14.00">D</text>
</g>
<!-- B&#45;&gt;D -->
<g id="edge3" class="edge">
<title>B-&gt;D</title>
<path fill="none" stroke="black" d="M24.67,-71.7C27.58,-64.15 31.07,-55.12 34.32,-46.68"/>
<polygon fill="black" stroke="black" points="37.52,-48.11 37.86,-37.52 30.99,-45.59 37.52,-48.11"/>
</g>
<!-- C&#45;&gt;D -->
<g id="edge4" class="edge">
<title>C-&gt;D</title>
<path fill="none" stroke="black" d="M65.33,-71.7C62.42,-64.15 58.93,-55.12 55.68,-46.68"/>
<polygon fill="black" stroke="black" points="59.01,-45.59 52.14,-37.52 52.48,-48.11 59.01,-45.59"/>
</g>
</g>
</svg>