<?xml version="1.0" encoding="UTF-8" standalone="no"?>
<!DOCTYPE svg PUBLIC "-//W3C//DTD SVG 1.1//EN"
 "http://www.w3.org/Graphics/SVG/1.1/DTD/svg11.dtd">
<!-- Generated by graphviz version 2.43.0 (0)
 -->
<!-- Title: example Pages: 1 -->
<svg width="225pt" height="158pt"
 viewBox="0.00 0.00 225.00 158.00" xmlns="http://www.w3.org/2000/svg" xmlns:xlink="http://www.w3.org/1999/xlink">
<g id="graph0" class="graph" transform="scale(1 1) rotate(0) translate(4 154)">
<title>example</title>
<polygon fill="white" stroke="transparent" points="-4,4 -4,-154 221,-154 221,4 -4,4"/>
<!-- bb0 -->
<g id="node1" class="node">
<title>bb0</title>
<polygon fill="#cccccc" stroke="transparent" points="0.5,-125 0.5,-150 217.5,-150 217.5,-125 0.5,-125"/>
<polygon fill="none" stroke="black" points="0.5,-125 0.5,-150 217.5,-150 217.5,-125 0.5,-125"/>
<text text-anchor="start" x="5.5" y="-134.8" font-family="Courier,monospace" font-weight="bold" font-size="14.00">bb0(v0)</text>
<polygon fill="none" stroke="black" points="0.5,-100 0.5,-125 217.5,-125 217.5,-100 0.5,-100"/>
<text text-anchor="start" x="5.5" y="-108.8" font-family="Courier,monospace" font-size="14.00"> &#160;v1 = Add v0, 1</text>
<polygon fill="none" stroke="black" points="0.5,-75 0.5,-100 217.5,-100 217.5,-75 0.5,-75"/>
<text text-anchor="start" x="5.5" y="-83.8" font-family="Courier,monospace" font-size="14.00"> &#160;v2 = Add v1, 1</text>
<polygon fill="none" stroke="black" points="0.5,-50 0.5,-75 217.5,-75 217.5,-50 0.5,-50"/>
<text text-anchor="start" x="5.5" y="-58.8" font-family="Courier,monospace" font-size="14.00"> &#160;v3 = Add v0, 1</text>
<polygon fill="none" stroke="black" points="0.5,-25 0.5,-50 217.5,-50 217.5,-25 0.5,-25"/>
<text text-anchor="start" x="5.5" y="-33.8" font-family="Courier,monospace" font-size="14.00"> &#160;v4 = DoSomething v2, v3</text>
<polygon fill="none" stroke="black" points="0.5,0 0.5,-25 217.5,-25 217.5,0 0.5,0"/>
<text text-anchor="start" x="5.5" y="-8.8" font-family="Courier,monospace" font-size="14.00"> &#160;Return v4</text>
</g>
</g>
</svg>
