<?xml version="1.0" encoding="UTF-8" standalone="no"?>
<!DOCTYPE svg PUBLIC "-//W3C//DTD SVG 1.1//EN"
 "http://www.w3.org/Graphics/SVG/1.1/DTD/svg11.dtd">
<!-- Generated by graphviz version 2.43.0 (0)
 -->
<!-- Title: example Pages: 1 -->
<svg width="225pt" height="244pt"
 viewBox="0.00 0.00 225.00 244.00" xmlns="http://www.w3.org/2000/svg" xmlns:xlink="http://www.w3.org/1999/xlink">
<g id="graph0" class="graph" transform="scale(1 1) rotate(0) translate(4 240)">
<title>example</title>
<polygon fill="white" stroke="transparent" points="-4,4 -4,-240 221,-240 221,4 -4,4"/>
<!-- bb0 -->
<g id="node1" class="node">
<title>bb0</title>
<polygon fill="#cccccc" stroke="transparent" points="37.5,-211 37.5,-236 180.5,-236 180.5,-211 37.5,-211"/>
<polygon fill="none" stroke="black" points="37.5,-211 37.5,-236 180.5,-236 180.5,-211 37.5,-211"/>
<text text-anchor="start" x="42.5" y="-220.8" font-family="Courier,monospace" font-weight="bold" font-size="14.00">bb0(v0)</text>
<polygon fill="none" stroke="black" points="37.5,-186 37.5,-211 180.5,-211 180.5,-186 37.5,-186"/>
<text text-anchor="start" x="42.5" y="-194.8" font-family="Courier,monospace" font-size="14.00"> &#160;v1 = Add v0, 1</text>
<polygon fill="none" stroke="black" points="37.5,-161 37.5,-186 180.5,-186 180.5,-161 37.5,-161"/>
<text text-anchor="start" x="42.5" y="-169.8" font-family="Courier,monospace" font-size="14.00"> &#160;v2 = Add v1, 1</text>
<polygon fill="none" stroke="black" points="37.5,-136 37.5,-161 180.5,-161 180.5,-136 37.5,-136"/>
<text text-anchor="start" x="42.5" y="-144.8" font-family="Courier,monospace" font-size="14.00"> &#160;Jump bb1()</text>
</g>
<!-- bb1 -->
<g id="node2" class="node">
<title>bb1</title>
<polygon fill="#cccccc" stroke="transparent" points="0.5,-75 0.5,-100 217.5,-100 217.5,-75 0.5,-75"/>
<polygon fill="none" stroke="black" points="0.5,-75 0.5,-100 217.5,-100 217.5,-75 0.5,-75"/>
<text text-anchor="start" x="5.5" y="-84.8" font-family="Courier,monospace" font-weight="bold" font-size="14.00">bb1()</text>
<polygon fill="none" stroke="black" points="0.5,-50 0.5,-75 217.5,-75 217.5,-50 0.5,-50"/>
<text text-anchor="start" x="5.5" y="-58.8" font-family="Courier,monospace" font-size="14.00"> &#160;v3 = Add v0, 1</text>
<polygon fill="none" stroke="black" points="0.5,-25 0.5,-50 217.5,-50 217.5,-25 0.5,-25"/>
<text text-anchor="start" x="5.5" y="-33.8" font-family="Courier,monospace" font-size="14.00"> &#160;v4 = DoSomething v2, v3</text>
<polygon fill="none" stroke="black" points="0.5,0 0.5,-25 217.5,-25 217.5,0 0.5,0"/>
<text text-anchor="start" x="5.5" y="-8.8" font-family="Courier,monospace" font-size="14.00"> &#160;Return v4</text>
</g>
<!-- bb0&#45;&gt;bb1 -->
<g id="edge1" class="edge">
<title>bb0&#45;&gt;bb1</title>
<path fill="none" stroke="black" d="M108.5,-135.75C108.5,-135.75 108.5,-110.05 108.5,-110.05"/>
<polygon fill="black" stroke="black" points="112,-110.05 108.5,-100.05 105,-110.05 112,-110.05"/>
</g>
</g>
</svg>
