<?xml version="1.0" encoding="UTF-8" standalone="no"?>
<!DOCTYPE svg PUBLIC "-//W3C//DTD SVG 1.1//EN"
 "http://www.w3.org/Graphics/SVG/1.1/DTD/svg11.dtd">
<!-- Generated by graphviz version 13.0.1 (20250615.1724)
 -->
<!-- Title: G Pages: 1 -->
<svg width="264pt" height="307pt"
 viewBox="0.00 0.00 264.00 307.00" xmlns="http://www.w3.org/2000/svg" xmlns:xlink="http://www.w3.org/1999/xlink">
<g id="graph0" class="graph" transform="scale(1 1) rotate(0) translate(4 302.5)">
<title>G</title>
<polygon fill="white" stroke="none" points="-4,4 -4,-302.5 260.12,-302.5 260.12,4 -4,4"/>
<!-- B1 -->
<g id="node1" class="node">
<title>B1</title>
<polygon fill="lightgray" stroke="none" points="78.25,-272 78.25,-294.5 178,-294.5 178,-272 78.25,-272"/>
<polygon fill="none" stroke="black" points="78.25,-272 78.25,-294.5 178,-294.5 178,-272 78.25,-272"/>
<text xml:space="preserve" text-anchor="start" x="113.88" y="-278.2" font-family="Times,serif" font-size="14.00">B1() </text>
<polygon fill="none" stroke="black" points="78.25,-249.5 78.25,-272 178,-272 178,-249.5 78.25,-249.5"/>
<text xml:space="preserve" text-anchor="start" x="81.25" y="-255.7" font-family="Times,serif" font-size="14.00">V0 = loadi $123 </text>
<polygon fill="none" stroke="black" points="78.25,-227 78.25,-249.5 178,-249.5 178,-227 78.25,-227"/>
<text xml:space="preserve" text-anchor="start" x="81.25" y="-233.2" font-family="Times,serif" font-size="14.00">blt →B3, →B2 </text>
</g>
<!-- B3 -->
<g id="node2" class="node">
<title>B3</title>
<polygon fill="lightgray" stroke="none" points="8,-149.25 8,-171.75 112.25,-171.75 112.25,-149.25 8,-149.25"/>
<polygon fill="none" stroke="black" points="8,-149.25 8,-171.75 112.25,-171.75 112.25,-149.25 8,-149.25"/>
<text xml:space="preserve" text-anchor="start" x="45.88" y="-155.45" font-family="Times,serif" font-size="14.00">B3() </text>
<polygon fill="none" stroke="black" points="8,-126.75 8,-149.25 112.25,-149.25 112.25,-126.75 8,-126.75"/>
<text xml:space="preserve" text-anchor="start" x="11" y="-132.95" font-family="Times,serif" font-size="14.00">V3 = mul V0, $2 </text>
<polygon fill="none" stroke="black" points="8,-104.25 8,-126.75 112.25,-126.75 112.25,-104.25 8,-104.25"/>
<text xml:space="preserve" text-anchor="start" x="11" y="-110.45" font-family="Times,serif" font-size="14.00">jump →B4 </text>
</g>
<!-- B1&#45;&gt;B3 -->
<g id="edge1" class="edge">
<title>B1:s&#45;&gt;B3:n</title>
<path fill="none" stroke="black" d="M128.12,-223C128.12,-189.97 75.6,-205.21 62.87,-183.87"/>
<polygon fill="black" stroke="black" points="66.29,-183.09 60.49,-174.22 59.49,-184.77 66.29,-183.09"/>
</g>
<!-- B2 -->
<g id="node3" class="node">
<title>B2</title>
<polygon fill="lightgray" stroke="none" points="146.12,-160.5 146.12,-183 248.12,-183 248.12,-160.5 146.12,-160.5"/>
<polygon fill="none" stroke="black" points="146.12,-160.5 146.12,-183 248.12,-183 248.12,-160.5 146.12,-160.5"/>
<text xml:space="preserve" text-anchor="start" x="182.88" y="-166.7" font-family="Times,serif" font-size="14.00">B2() </text>
<polygon fill="none" stroke="black" points="146.12,-138 146.12,-160.5 248.12,-160.5 248.12,-138 146.12,-138"/>
<text xml:space="preserve" text-anchor="start" x="149.12" y="-144.2" font-family="Times,serif" font-size="14.00">V1 = loadi $456 </text>
<polygon fill="none" stroke="black" points="146.12,-115.5 146.12,-138 248.12,-138 248.12,-115.5 146.12,-115.5"/>
<text xml:space="preserve" text-anchor="start" x="149.12" y="-121.7" font-family="Times,serif" font-size="14.00">V2 = add V1, $1 </text>
<polygon fill="none" stroke="black" points="146.12,-93 146.12,-115.5 248.12,-115.5 248.12,-93 146.12,-93"/>
<text xml:space="preserve" text-anchor="start" x="149.12" y="-99.2" font-family="Times,serif" font-size="14.00">jump →B4 </text>
</g>
<!-- B1&#45;&gt;B2 -->
<g id="edge2" class="edge">
<title>B1:s&#45;&gt;B2:n</title>
<path fill="none" stroke="black" d="M128.12,-223C128.12,-192.45 180.01,-212.05 193.8,-194.82"/>
<polygon fill="black" stroke="black" points="197.09,-196.03 196.68,-185.45 190.39,-193.98 197.09,-196.03"/>
</g>
<!-- B4 -->
<g id="node4" class="node">
<title>B4</title>
<polygon fill="lightgray" stroke="none" points="107.5,-26.5 107.5,-49 148.75,-49 148.75,-26.5 107.5,-26.5"/>
<polygon fill="none" stroke="black" points="107.5,-26.5 107.5,-49 148.75,-49 148.75,-26.5 107.5,-26.5"/>
<text xml:space="preserve" text-anchor="start" x="113.88" y="-32.7" font-family="Times,serif" font-size="14.00">B4() </text>
<polygon fill="none" stroke="black" points="107.5,-4 107.5,-26.5 148.75,-26.5 148.75,-4 107.5,-4"/>
<text xml:space="preserve" text-anchor="start" x="110.5" y="-10.2" font-family="Times,serif" font-size="14.00">ret $5 </text>
</g>
<!-- B3&#45;&gt;B4 -->
<g id="edge4" class="edge">
<title>B3:s&#45;&gt;B4:n</title>
<path fill="none" stroke="black" d="M60.12,-99.42C60.12,-66.58 112.65,-82.15 125.38,-61.04"/>
<polygon fill="black" stroke="black" points="128.74,-62.02 127.76,-51.47 121.95,-60.33 128.74,-62.02"/>
</g>
<!-- B2&#45;&gt;B4 -->
<g id="edge3" class="edge">
<title>B2:s&#45;&gt;B4:n</title>
<path fill="none" stroke="black" d="M197.12,-89C197.12,-58.45 145.24,-78.05 131.45,-60.82"/>
<polygon fill="black" stroke="black" points="134.86,-59.98 128.57,-51.45 128.16,-62.03 134.86,-59.98"/>
</g>
</g>
</svg>
