<?xml version="1.0" encoding="UTF-8" standalone="no"?>
<!DOCTYPE svg PUBLIC "-//W3C//DTD SVG 1.1//EN"
 "http://www.w3.org/Graphics/SVG/1.1/DTD/svg11.dtd">
<!-- Generated by graphviz version 13.0.1 (20250615.1724)
 -->
<!-- Title: G Pages: 1 -->
<svg width="334pt" height="313pt"
 viewBox="0.00 0.00 334.00 313.00" xmlns="http://www.w3.org/2000/svg" xmlns:xlink="http://www.w3.org/1999/xlink">
<g id="graph0" class="graph" transform="scale(1 1) rotate(0) translate(4 309.25)">
<title>G</title>
<polygon fill="white" stroke="none" points="-4,4 -4,-309.25 330,-309.25 330,4 -4,4"/>
<!-- B1 -->
<g id="node1" class="node">
<title>B1</title>
<polygon fill="lightgray" stroke="none" points="94,-278 94,-301.25 232,-301.25 232,-278 94,-278"/>
<polygon fill="none" stroke="black" points="94,-278 94,-301.25 232,-301.25 232,-278 94,-278"/>
<text xml:space="preserve" text-anchor="start" x="142.38" y="-284.95" font-family="Monospace" font-size="14.00">B1() </text>
<polygon fill="none" stroke="black" points="94,-254.75 94,-278 232,-278 232,-254.75 94,-254.75"/>
<text xml:space="preserve" text-anchor="start" x="97" y="-261.7" font-family="Monospace" font-size="14.00">R0 = loadi $123 </text>
<polygon fill="none" stroke="black" points="94,-231.5 94,-254.75 232,-254.75 232,-231.5 94,-231.5"/>
<text xml:space="preserve" text-anchor="start" x="97" y="-238.45" font-family="Monospace" font-size="14.00">blt →B3, →B2 </text>
</g>
<!-- B3 -->
<g id="node2" class="node">
<title>B3</title>
<polygon fill="lightgray" stroke="none" points="8,-152.62 8,-175.88 146,-175.88 146,-152.62 8,-152.62"/>
<polygon fill="none" stroke="black" points="8,-152.62 8,-175.88 146,-175.88 146,-152.62 8,-152.62"/>
<text xml:space="preserve" text-anchor="start" x="56.38" y="-159.57" font-family="Monospace" font-size="14.00">B3() </text>
<polygon fill="none" stroke="black" points="8,-129.38 8,-152.62 146,-152.62 146,-129.38 8,-129.38"/>
<text xml:space="preserve" text-anchor="start" x="11" y="-136.32" font-family="Monospace" font-size="14.00">R3 = mul R0, $2 </text>
<polygon fill="none" stroke="black" points="8,-106.12 8,-129.38 146,-129.38 146,-106.12 8,-106.12"/>
<text xml:space="preserve" text-anchor="start" x="11" y="-113.08" font-family="Monospace" font-size="14.00">jump →B4 </text>
</g>
<!-- B1&#45;&gt;B3 -->
<g id="edge1" class="edge">
<title>B1:s&#45;&gt;B3:n</title>
<path fill="none" stroke="black" d="M163,-227.5C163,-187.65 93.58,-214.34 79.48,-188.01"/>
<polygon fill="black" stroke="black" points="82.92,-187.35 77.33,-178.35 76.09,-188.87 82.92,-187.35"/>
</g>
<!-- B2 -->
<g id="node3" class="node">
<title>B2</title>
<polygon fill="lightgray" stroke="none" points="180,-164.25 180,-187.5 318,-187.5 318,-164.25 180,-164.25"/>
<polygon fill="none" stroke="black" points="180,-164.25 180,-187.5 318,-187.5 318,-164.25 180,-164.25"/>
<text xml:space="preserve" text-anchor="start" x="228.38" y="-171.2" font-family="Monospace" font-size="14.00">B2() </text>
<polygon fill="none" stroke="black" points="180,-141 180,-164.25 318,-164.25 318,-141 180,-141"/>
<text xml:space="preserve" text-anchor="start" x="183" y="-147.95" font-family="Monospace" font-size="14.00">R1 = loadi $456 </text>
<polygon fill="none" stroke="black" points="180,-117.75 180,-141 318,-141 318,-117.75 180,-117.75"/>
<text xml:space="preserve" text-anchor="start" x="183" y="-124.7" font-family="Monospace" font-size="14.00">R2 = add R1, $1 </text>
<polygon fill="none" stroke="black" points="180,-94.5 180,-117.75 318,-117.75 318,-94.5 180,-94.5"/>
<text xml:space="preserve" text-anchor="start" x="183" y="-101.45" font-family="Monospace" font-size="14.00">jump →B4 </text>
</g>
<!-- B1&#45;&gt;B2 -->
<g id="edge2" class="edge">
<title>B1:s&#45;&gt;B2:n</title>
<path fill="none" stroke="black" d="M163,-227.5C163,-190.12 231.22,-221.68 246.14,-199.38"/>
<polygon fill="black" stroke="black" points="249.46,-200.53 248.62,-189.96 242.69,-198.74 249.46,-200.53"/>
</g>
<!-- B4 -->
<g id="node4" class="node">
<title>B4</title>
<polygon fill="lightgray" stroke="none" points="131.12,-27.25 131.12,-50.5 194.88,-50.5 194.88,-27.25 131.12,-27.25"/>
<polygon fill="none" stroke="black" points="131.12,-27.25 131.12,-50.5 194.88,-50.5 194.88,-27.25 131.12,-27.25"/>
<text xml:space="preserve" text-anchor="start" x="142.38" y="-34.2" font-family="Monospace" font-size="14.00">B4() </text>
<polygon fill="none" stroke="black" points="131.12,-4 131.12,-27.25 194.88,-27.25 194.88,-4 131.12,-4"/>
<text xml:space="preserve" text-anchor="start" x="134.12" y="-10.95" font-family="Monospace" font-size="14.00">ret $5 </text>
</g>
<!-- B3&#45;&gt;B4 -->
<g id="edge4" class="edge">
<title>B3:s&#45;&gt;B4:n</title>
<path fill="none" stroke="black" d="M77,-101.3C77,-61.62 146.42,-88.69 160.52,-62.57"/>
<polygon fill="black" stroke="black" points="163.9,-63.5 162.67,-52.98 157.07,-61.97 163.9,-63.5"/>
</g>
<!-- B2&#45;&gt;B4 -->
<g id="edge3" class="edge">
<title>B2:s&#45;&gt;B4:n</title>
<path fill="none" stroke="black" d="M249,-90.5C249,-53.12 180.78,-84.68 165.86,-62.38"/>
<polygon fill="black" stroke="black" points="169.31,-61.74 163.38,-52.96 162.54,-63.53 169.31,-61.74"/>
</g>
</g>
</svg>
