<?xml version="1.0" encoding="UTF-8" standalone="no"?>
<!DOCTYPE svg PUBLIC "-//W3C//DTD SVG 1.1//EN"
 "http://www.w3.org/Graphics/SVG/1.1/DTD/svg11.dtd">
<!-- Generated by graphviz version 13.0.1 (20250615.1724)
 -->
<!-- Title: G Pages: 1 -->
<svg width="262pt" height="307pt"
 viewBox="0.00 0.00 262.00 307.00" xmlns="http://www.w3.org/2000/svg" xmlns:xlink="http://www.w3.org/1999/xlink">
<g id="graph0" class="graph" transform="scale(1 1) rotate(0) translate(4 302.5)">
<title>G</title>
<polygon fill="white" stroke="none" points="-4,4 -4,-302.5 258.38,-302.5 258.38,4 -4,4"/>
<!-- B1 -->
<g id="node1" class="node">
<title>B1</title>
<polygon fill="lightgray" stroke="none" points="78.25,-272 78.25,-294.5 177.25,-294.5 177.25,-272 78.25,-272"/>
<polygon fill="none" stroke="black" points="78.25,-272 78.25,-294.5 177.25,-294.5 177.25,-272 78.25,-272"/>
<text xml:space="preserve" text-anchor="start" x="113.5" y="-278.2" font-family="Times,serif" font-size="14.00">B1() </text>
<polygon fill="none" stroke="black" points="78.25,-249.5 78.25,-272 177.25,-272 177.25,-249.5 78.25,-249.5"/>
<text xml:space="preserve" text-anchor="start" x="81.25" y="-255.7" font-family="Times,serif" font-size="14.00">R0 = loadi $123 </text>
<polygon fill="none" stroke="black" points="78.25,-227 78.25,-249.5 177.25,-249.5 177.25,-227 78.25,-227"/>
<text xml:space="preserve" text-anchor="start" x="81.25" y="-233.2" font-family="Times,serif" font-size="14.00">blt →B3, →B2 </text>
</g>
<!-- B3 -->
<g id="node2" class="node">
<title>B3</title>
<polygon fill="lightgray" stroke="none" points="8,-149.25 8,-171.75 111.5,-171.75 111.5,-149.25 8,-149.25"/>
<polygon fill="none" stroke="black" points="8,-149.25 8,-171.75 111.5,-171.75 111.5,-149.25 8,-149.25"/>
<text xml:space="preserve" text-anchor="start" x="45.5" y="-155.45" font-family="Times,serif" font-size="14.00">B3() </text>
<polygon fill="none" stroke="black" points="8,-126.75 8,-149.25 111.5,-149.25 111.5,-126.75 8,-126.75"/>
<text xml:space="preserve" text-anchor="start" x="11" y="-132.95" font-family="Times,serif" font-size="14.00">R3 = mul R0, $2 </text>
<polygon fill="none" stroke="black" points="8,-104.25 8,-126.75 111.5,-126.75 111.5,-104.25 8,-104.25"/>
<text xml:space="preserve" text-anchor="start" x="11" y="-110.45" font-family="Times,serif" font-size="14.00">jump →B4 </text>
</g>
<!-- B1&#45;&gt;B3 -->
<g id="edge1" class="edge">
<title>B1:s&#45;&gt;B3:n</title>
<path fill="none" stroke="black" d="M127.75,-223C127.75,-189.97 75.22,-205.21 62.5,-183.87"/>
<polygon fill="black" stroke="black" points="65.91,-183.09 60.11,-174.22 59.12,-184.77 65.91,-183.09"/>
</g>
<!-- B2 -->
<g id="node3" class="node">
<title>B2</title>
<polygon fill="lightgray" stroke="none" points="145.12,-160.5 145.12,-183 246.38,-183 246.38,-160.5 145.12,-160.5"/>
<polygon fill="none" stroke="black" points="145.12,-160.5 145.12,-183 246.38,-183 246.38,-160.5 145.12,-160.5"/>
<text xml:space="preserve" text-anchor="start" x="181.5" y="-166.7" font-family="Times,serif" font-size="14.00">B2() </text>
<polygon fill="none" stroke="black" points="145.12,-138 145.12,-160.5 246.38,-160.5 246.38,-138 145.12,-138"/>
<text xml:space="preserve" text-anchor="start" x="148.12" y="-144.2" font-family="Times,serif" font-size="14.00">R1 = loadi $456 </text>
<polygon fill="none" stroke="black" points="145.12,-115.5 145.12,-138 246.38,-138 246.38,-115.5 145.12,-115.5"/>
<text xml:space="preserve" text-anchor="start" x="148.12" y="-121.7" font-family="Times,serif" font-size="14.00">R2 = add R1, $1 </text>
<polygon fill="none" stroke="black" points="145.12,-93 145.12,-115.5 246.38,-115.5 246.38,-93 145.12,-93"/>
<text xml:space="preserve" text-anchor="start" x="148.12" y="-99.2" font-family="Times,serif" font-size="14.00">jump →B4 </text>
</g>
<!-- B1&#45;&gt;B2 -->
<g id="edge2" class="edge">
<title>B1:s&#45;&gt;B2:n</title>
<path fill="none" stroke="black" d="M127.75,-223C127.75,-192.79 178.89,-211.85 192.47,-194.72"/>
<polygon fill="black" stroke="black" points="195.73,-196.03 195.31,-185.45 189.03,-193.99 195.73,-196.03"/>
</g>
<!-- B4 -->
<g id="node4" class="node">
<title>B4</title>
<polygon fill="lightgray" stroke="none" points="107.12,-26.5 107.12,-49 148.38,-49 148.38,-26.5 107.12,-26.5"/>
<polygon fill="none" stroke="black" points="107.12,-26.5 107.12,-49 148.38,-49 148.38,-26.5 107.12,-26.5"/>
<text xml:space="preserve" text-anchor="start" x="113.5" y="-32.7" font-family="Times,serif" font-size="14.00">B4() </text>
<polygon fill="none" stroke="black" points="107.12,-4 107.12,-26.5 148.38,-26.5 148.38,-4 107.12,-4"/>
<text xml:space="preserve" text-anchor="start" x="110.12" y="-10.2" font-family="Times,serif" font-size="14.00">ret $5 </text>
</g>
<!-- B3&#45;&gt;B4 -->
<g id="edge4" class="edge">
<title>B3:s&#45;&gt;B4:n</title>
<path fill="none" stroke="black" d="M59.75,-99.39C59.75,-66.56 112.28,-82.14 125,-61.04"/>
<polygon fill="black" stroke="black" points="128.36,-62.02 127.38,-51.47 121.57,-60.33 128.36,-62.02"/>
</g>
<!-- B2&#45;&gt;B4 -->
<g id="edge3" class="edge">
<title>B2:s&#45;&gt;B4:n</title>
<path fill="none" stroke="black" d="M195.75,-89C195.75,-58.79 144.61,-77.85 131.03,-60.72"/>
<polygon fill="black" stroke="black" points="134.47,-59.99 128.19,-51.45 127.77,-62.03 134.47,-59.99"/>
</g>
</g>
</svg>
