<svg version="1.1" xmlns="http://www.w3.org/2000/svg" viewBox="0 0 1765.2549383474875 1083.6203509172492" width="1765.2549383474875" height="1083.6203509172492">
  <!-- svg-source:excalidraw -->
  
  <defs>
    <style class="style-fonts">
      @font-face {
        font-family: "Virgil";
        src: url("https://excalidraw.com/Virgil.woff2");
      }
      @font-face {
        font-family: "Cascadia";
        src: url("https://excalidraw.com/Cascadia.woff2");
      }
    </style>
    
  </defs>
  <g stroke-linecap="round" transform="translate(835.3707309465301 355.29345197933856) rotate(0 27 27)"><path d="M6.81 8.57 C6.81 8.57, 6.81 8.57, 6.81 8.57 M6.81 8.57 C6.81 8.57, 6.81 8.57, 6.81 8.57 M3.82 17.6 C5.78 12.85, 11.66 8.38, 15.56 2.56 M2.68 19.62 C5.36 15.97, 7.44 12.51, 15.4 2.97 M-1.04 27.87 C5.22 19.33, 14.07 11.61, 25.79 0.57 M0.85 27.47 C8.34 18.41, 17.46 8.65, 23.27 0.82 M0.42 32.09 C8.52 25.26, 14.92 17.95, 30.11 1.04 M2.21 31.68 C10.1 23.11, 17.66 15.01, 28.59 2.74 M3.57 36.32 C11.95 30.23, 14.99 23.68, 32.94 3.75 M4.58 35.99 C15.09 23.95, 25.79 10.79, 33.39 3.5 M6.35 41.62 C17.55 25.56, 30.43 11.24, 36.63 4.09 M4.73 39.83 C18.38 26.13, 29.3 13.38, 37.6 4.1 M5.68 43.09 C20.07 30.76, 33.43 15.67, 39.82 5.59 M6.67 45.09 C14.87 35.74, 21.95 27.64, 42.3 4.96 M9.28 48.99 C23.07 34.71, 34.17 19.11, 43.21 8.45 M10.24 47.8 C23.8 33.07, 35.32 17.64, 45.26 8.13 M12.78 51 C28.57 32.61, 39.62 20.51, 48.65 9.89 M14.15 50.16 C23.63 37.42, 34.02 25.44, 46.95 12.27 M16.16 50.6 C25.46 41.87, 30.72 36.78, 48.94 13.22 M17.2 51.44 C29.54 38.28, 41.15 24.48, 48.12 15.35 M20.81 52.81 C32.04 43.16, 38.82 32.54, 53.57 17.1 M21.23 53.52 C32.53 40.5, 43.7 27.57, 52.43 16.63 M22.68 56.3 C33.18 47.22, 42.46 34.86, 55.21 20.42 M25.09 55.55 C33.05 45.27, 42.77 33.64, 54.77 21.16 M29.31 54.67 C37.36 47.42, 47.7 36.34, 54.14 24.58 M29.49 54.93 C38.24 45.33, 46.82 36.03, 54.51 26.71 M37.07 55.55 C42.51 49.49, 48.24 41.53, 53.9 32.27 M37.14 53.06 C41.74 46.3, 48.89 40.94, 55.03 32.22" stroke="#40c057" stroke-width="0.5" fill="none"></path><path d="M22.85 0.6 C27.97 -0.57, 35.15 0.8, 39.95 3.72 C44.75 6.64, 49.43 12.62, 51.63 18.14 C53.82 23.65, 54.98 31.28, 53.12 36.81 C51.27 42.35, 45.73 48.58, 40.49 51.34 C35.25 54.1, 27.42 54.59, 21.67 53.35 C15.92 52.12, 9.71 48.23, 5.99 43.93 C2.28 39.63, -0.79 33.48, -0.63 27.56 C-0.47 21.64, 1.96 13.07, 6.94 8.41 C11.92 3.76, 24.67 0.84, 29.27 -0.38 C33.87 -1.6, 34.47 0.52, 34.53 1.09 M20.36 1.36 C25.47 -0.16, 32.73 1.53, 37.77 4.11 C42.82 6.68, 48.08 11.74, 50.64 16.82 C53.2 21.89, 54.58 28.9, 53.13 34.53 C51.67 40.16, 46.95 47.45, 41.91 50.59 C36.88 53.73, 28.59 54.34, 22.93 53.38 C17.27 52.42, 11.91 49.05, 7.95 44.81 C3.99 40.58, -0.45 33.52, -0.85 27.97 C-1.25 22.42, 1.91 15.89, 5.53 11.52 C9.15 7.14, 18.35 3.62, 20.87 1.71 C23.38 -0.19, 20.67 -0.35, 20.64 0.08" stroke="#000000" stroke-width="1" fill="none"></path></g><g transform="translate(856.420514743684 370.20156888730173) rotate(0 5.858333110809326 12)"><text x="5.858333110809326" y="0" font-family="Cascadia, Segoe UI Emoji" font-size="20px" fill="#1971c2" text-anchor="middle" style="white-space: pre;" direction="ltr" dominant-baseline="text-before-edge">+</text></g><g stroke-linecap="round" transform="translate(632.3707309465299 497.29345197933867) rotate(0 27 27)"><path d="M6.95 8.69 C6.95 8.69, 6.95 8.69, 6.95 8.69 M6.95 8.69 C6.95 8.69, 6.95 8.69, 6.95 8.69 M0.98 18.79 C6.77 14.45, 11.85 7.13, 15.26 3.75 M2.76 19.19 C4.93 15.58, 7.58 12.22, 16.89 2.58 M0.16 25.2 C8.36 18.46, 14.94 13.57, 24.43 2.62 M1.69 26.68 C11.03 16.69, 18.07 7.11, 23.01 1.81 M2.66 32.08 C8.38 25.85, 16.35 17.45, 28.34 1.77 M3.13 31.16 C8.91 25.23, 15.01 18.76, 27.65 2.35 M6.49 36.74 C10.66 28.93, 19.73 19.29, 34.6 1.46 M4.32 36.14 C10.62 27.86, 19.32 19.8, 33.61 3.72 M5.57 39.73 C14.89 29.15, 22.17 20.66, 38.68 4.22 M6.35 40.04 C13.21 32.51, 21.46 23.5, 38.05 4.29 M6.13 47.04 C17.04 35.39, 26.72 21.57, 39.64 6.18 M7.36 45.12 C21.08 29.48, 34.98 13.77, 42.09 6.26 M11.12 48.75 C17.15 38.91, 23.65 31.16, 45.94 6.31 M10.85 47.67 C18.25 36.8, 28.51 27.51, 45.46 7.62 M15.46 47.86 C24.85 37.61, 38.52 21.78, 47.18 13.33 M13.72 49.6 C24.53 36.7, 36 24.72, 46.04 10.62 M17.7 50.55 C24.61 43.94, 33.78 31.32, 51.16 15.66 M17.8 52.28 C26.94 41.37, 34.01 31.9, 49.85 14.49 M22.41 54.74 C30.47 42.76, 43.14 29.49, 53.12 15.83 M21.08 53.83 C33.44 39.36, 44.7 25.62, 52.05 17.39 M24.74 57.2 C35.61 43.22, 45.11 32.53, 55.35 21 M24.12 55.81 C31.8 46.19, 39.37 38.83, 55.43 19.69 M30.06 56.04 C41 44.43, 47.01 33.22, 55.8 26.55 M30.53 54.43 C37.49 47.17, 44.02 39.24, 54.88 27.12 M37.26 55.89 C42.32 48.45, 44.8 42.79, 54.98 34.31 M36.08 53.31 C43.03 48.12, 47.86 40.7, 55.08 33.75" stroke="#40c057" stroke-width="0.5" fill="none"></path><path d="M22.15 0.16 C27.37 -1.03, 35.05 0.89, 40.28 3.98 C45.51 7.06, 51.5 13.05, 53.53 18.67 C55.57 24.29, 54.79 32.38, 52.47 37.7 C50.15 43.02, 44.77 48, 39.61 50.6 C34.45 53.21, 27.24 54.33, 21.5 53.35 C15.77 52.38, 8.72 49.42, 5.19 44.75 C1.66 40.08, 0.04 31.35, 0.35 25.32 C0.66 19.3, 2.56 12.94, 7.03 8.6 C11.49 4.26, 22.82 0.5, 27.16 -0.72 C31.49 -1.93, 33.03 0.78, 33.04 1.3 M32.81 2.18 C38.08 3.28, 44.52 7.62, 48.08 12.15 C51.63 16.67, 54.5 23.46, 54.16 29.31 C53.83 35.16, 50.38 43.22, 46.07 47.26 C41.75 51.29, 33.94 53.32, 28.26 53.5 C22.57 53.67, 16.67 51.7, 11.96 48.32 C7.24 44.95, 1.49 38.61, -0.04 33.24 C-1.57 27.86, 0.13 21.04, 2.77 16.07 C5.42 11.1, 10.64 6.13, 15.82 3.43 C21.01 0.72, 30.97 0, 33.88 -0.16 C36.8 -0.31, 33.36 2.11, 33.3 2.51" stroke="#000000" stroke-width="1" fill="none"></path></g><g transform="translate(653.4205147436838 512.2015688873018) rotate(0 5.858333110809326 12)"><text x="5.858333110809326" y="0" font-family="Cascadia, Segoe UI Emoji" font-size="20px" fill="#1971c2" text-anchor="middle" style="white-space: pre;" direction="ltr" dominant-baseline="text-before-edge">*</text></g><g stroke-linecap="round" transform="translate(1032.37073094653 529.2934519793384) rotate(0 27 27)"><path d="M11.82 3.65 C11.82 3.65, 11.82 3.65, 11.82 3.65 M11.82 3.65 C11.82 3.65, 11.82 3.65, 11.82 3.65 M2.13 20.32 C5.46 15.26, 7.46 13.52, 16.16 2.65 M2.3 19.19 C6.76 13.82, 12.18 8.62, 17.69 1.79 M4.2 23.57 C11.41 18.34, 16.57 12.62, 26.3 2.3 M4.2 25.1 C7.58 19.78, 12.69 14.3, 23.65 0.51 M3.35 31.89 C13.24 21.27, 18.94 13.12, 28.71 1.2 M3.92 31.41 C10.27 24.7, 15.47 16.97, 29.69 0.84 M2.18 39.19 C12.41 27.69, 22.84 15.03, 32.79 4.4 M2.71 37.68 C12.13 28.81, 19.96 19.99, 33.54 3.25 M6.47 39.75 C16.27 28.53, 30.19 14.72, 37.02 2.41 M5.41 41.49 C12.94 33.22, 21.23 24.11, 38.12 3.18 M7.71 46.05 C14.26 35.72, 21.3 27.71, 43.53 4.73 M8.91 43.94 C20.39 30.86, 31.43 18.94, 40.82 5.34 M10.13 47.61 C22.7 32.48, 38.63 14.89, 44.46 7.7 M9.92 47.12 C23.51 33.7, 35.7 19.1, 45.82 7.12 M13.1 51.74 C29.16 33.08, 41.39 20.47, 49.74 10.04 M13.34 50.56 C28.11 34.83, 41.14 16.87, 48.62 8.84 M15.02 55.15 C25.23 41.43, 36.11 33.63, 49.55 13.68 M16.88 53.46 C26.35 40.78, 38.85 27.25, 50.45 14.22 M20.25 54.97 C31.27 43.1, 39.75 31.28, 53.35 18.53 M21.9 53.37 C32.33 40.44, 42.91 28.32, 52.03 17.78 M27.09 53.37 C36.02 43.07, 44.67 33.58, 52.39 24.34 M26.22 53.51 C34.7 45.16, 42.85 34.78, 54.04 22.4 M32.73 54.35 C37.07 44.97, 45.29 39.11, 54.83 26 M30.89 55.14 C37.44 47.26, 44.42 39.79, 54.95 27.26 M36.44 56.02 C39.84 49.06, 47.38 43.38, 51.55 39.62 M36.24 56.55 C38.4 52.38, 42.2 49.32, 50.78 37.58" stroke="#40c057" stroke-width="0.5" fill="none"></path><path d="M29.7 0.2 C35.5 0.64, 43.75 4.57, 47.86 8.98 C51.97 13.38, 54.3 20.9, 54.35 26.63 C54.4 32.35, 51.77 38.89, 48.17 43.33 C44.57 47.77, 38.46 51.85, 32.74 53.28 C27.01 54.72, 18.9 54.73, 13.84 51.91 C8.78 49.09, 4.43 41.97, 2.37 36.37 C0.31 30.78, -0.13 23.85, 1.47 18.36 C3.07 12.88, 6.4 6.33, 11.97 3.47 C17.55 0.61, 30.77 1.38, 34.91 1.19 C39.06 1.01, 37.02 2.01, 36.86 2.35 M31.64 1.05 C37.37 1.65, 44.95 5.56, 48.7 10.24 C52.45 14.92, 54.58 23.38, 54.14 29.14 C53.71 34.9, 49.91 40.81, 46.09 44.81 C42.27 48.81, 36.95 52.38, 31.2 53.13 C25.45 53.88, 16.58 52.16, 11.61 49.29 C6.64 46.41, 2.98 41.12, 1.38 35.86 C-0.22 30.59, -0.09 23.35, 2.04 17.69 C4.17 12.03, 9.16 4.59, 14.16 1.91 C19.16 -0.77, 28.94 1.98, 32.03 1.64 C35.12 1.29, 32.83 -0.33, 32.72 -0.18" stroke="#000000" stroke-width="1" fill="none"></path></g><g transform="translate(1053.420514743684 544.2015688873016) rotate(0 5.858333110809326 12)"><text x="5.858333110809326" y="0" font-family="Cascadia, Segoe UI Emoji" font-size="20px" fill="#1971c2" text-anchor="middle" style="white-space: pre;" direction="ltr" dominant-baseline="text-before-edge">*</text></g><g stroke-linecap="round" transform="translate(500.37073094652993 672.7934519793387) rotate(0 27 27)"><path d="M9.03 7.85 C9.03 7.85, 9.03 7.85, 9.03 7.85 M9.03 7.85 C9.03 7.85, 9.03 7.85, 9.03 7.85 M-0.58 22.97 C2.99 19.49, 7.54 13.63, 18.22 3.7 M-0.75 23.39 C4.66 18.5, 9.08 12.98, 17.81 2.85 M3.74 27.78 C8.16 23.01, 14.48 17.01, 24.85 -0.01 M1.22 28.03 C8.34 20.09, 15.13 11.17, 26.12 0.16 M4.78 32.02 C11.79 22.35, 19.41 12.88, 29.33 1.87 M3.26 33.73 C9.05 25.2, 16.39 17.03, 30.51 2.34 M4.33 38.51 C16.59 23.77, 24.33 15.16, 33.36 2.71 M4.78 38.26 C15.27 26.67, 24.39 15.08, 34.76 3.22 M4.74 42.62 C15.48 32.55, 21.16 21.72, 37.12 5.78 M5.71 42.63 C14.63 32.83, 21.52 23.31, 37.76 4.09 M7.28 44.87 C19.8 30.38, 36.16 14.04, 43.7 6.82 M9.76 44.25 C17.85 35.54, 25.01 24.38, 43.73 5.86 M11.32 46.98 C26.24 30.66, 36.06 18.49, 46.89 9.07 M13.37 46.66 C24.52 33.77, 34.77 21.34, 46.82 8.82 M17.42 47.67 C23.37 42.16, 31.16 32.3, 50.22 10.85 M15.72 50.05 C25.58 35.78, 36.7 23.6, 48.04 11.81 M18.36 50.24 C27.4 44.54, 32.93 33.78, 51.41 16.34 M17.54 52.37 C28.94 39.81, 40.03 26.91, 50.58 15.7 M23.65 53.36 C33.89 39.52, 45.2 28.92, 54.2 18.93 M22.51 52.9 C31.02 42.99, 40.74 31.62, 53.38 18.41 M27.92 53.66 C37.46 43.09, 46.57 31.99, 54.72 21.8 M27.48 54.41 C35.92 43.85, 44.88 34.11, 54.47 22.06 M31.43 52.54 C41.12 44.78, 48.27 34.34, 54 28.41 M31.8 54.67 C38.54 47.42, 44.81 39.87, 55.22 29.23 M37.1 53.45 C44.46 47.85, 50.54 41.66, 51.63 35.38 M38.23 53.39 C41.94 50.14, 44.6 45.41, 52.92 36.41" stroke="#40c057" stroke-width="0.5" fill="none"></path><path d="M26.27 0.22 C31.94 -0.33, 38.98 2.65, 43.44 6.04 C47.9 9.43, 51.77 15.06, 53.04 20.55 C54.32 26.04, 53.77 33.6, 51.11 38.97 C48.46 44.34, 42.36 50.59, 37.12 52.76 C31.88 54.93, 25.07 53.87, 19.66 51.99 C14.25 50.1, 8.03 46.23, 4.68 41.44 C1.34 36.64, -1.15 28.84, -0.4 23.21 C0.36 17.58, 4.8 11.56, 9.21 7.65 C13.63 3.73, 22.91 0.96, 26.08 -0.28 C29.25 -1.52, 28.09 -0.13, 28.24 0.21 M37.7 1.77 C43.13 3.67, 48.68 10.46, 51.15 15.58 C53.62 20.7, 53.7 27.12, 52.52 32.5 C51.33 37.88, 48.65 44.34, 44.03 47.83 C39.42 51.33, 30.72 53.52, 24.85 53.48 C18.98 53.44, 12.93 51.25, 8.83 47.58 C4.72 43.91, 1.03 37.5, 0.21 31.45 C-0.61 25.4, 0.92 16.15, 3.91 11.28 C6.9 6.41, 12.57 3.98, 18.16 2.22 C23.74 0.47, 34.39 0.81, 37.42 0.75 C40.44 0.69, 36.44 1.27, 36.31 1.85" stroke="#000000" stroke-width="1" fill="none"></path></g><g transform="translate(521.4205147436838 687.7015688873018) rotate(0 5.858333110809326 12)"><text x="5.858333110809326" y="0" font-family="Cascadia, Segoe UI Emoji" font-size="20px" fill="#1971c2" text-anchor="middle" style="white-space: pre;" direction="ltr" dominant-baseline="text-before-edge">+</text></g><g stroke-linecap="round" transform="translate(732.3707309465299 679.7934519793387) rotate(0 27 27)"><path d="M8.82 6.34 C8.82 6.34, 8.82 6.34, 8.82 6.34 M8.82 6.34 C8.82 6.34, 8.82 6.34, 8.82 6.34 M0.72 20.27 C5 14.87, 11.46 9.86, 14.92 2.98 M2.36 19.09 C5.43 15.39, 8.78 11.74, 14.99 4.83 M3.99 25.93 C8.86 21.41, 9.73 15.41, 23.21 3.33 M2.58 25.11 C7.73 18.3, 13.67 12.95, 23.59 1.54 M3.97 29.6 C10.69 21.01, 19 11.83, 27.38 2.35 M3.28 30.19 C11.58 20.67, 19.83 12.61, 28.85 1.45 M6.29 33.82 C14.29 24.79, 25.17 10.24, 33.41 1.56 M5.3 36.09 C12.93 25.85, 22.52 15.19, 32.22 3.53 M6.43 41.12 C11.78 30.81, 19.15 24.82, 35.76 3.36 M5.8 41.19 C16.42 27.23, 27.04 14.52, 37.77 4.08 M6.08 44.58 C22.7 28.24, 34.44 16.01, 39.8 7.49 M8.53 44.66 C15.28 33.69, 25.69 24.58, 41.36 5.98 M12.38 44.72 C20.32 34.9, 32.38 24.19, 45.5 5.91 M11.9 46.03 C19.3 36.42, 28.14 28.1, 44.31 7.07 M14.27 50.98 C26.66 35.65, 40.41 20.2, 47.98 10.09 M13.13 48.27 C24.27 35.7, 35.41 24.19, 46.71 10.23 M18.92 52.55 C29.06 36.78, 42.43 25.2, 50.47 15.82 M17.61 51.38 C27.2 40.44, 35.75 31.23, 50.23 13.73 M21.53 51.97 C32.77 41.19, 43.37 29.37, 52.19 19.27 M20.46 53.53 C28.04 44.73, 35.57 37.24, 52.89 18.03 M26.38 54.12 C31.85 47.14, 39.87 37.04, 54.11 22.05 M26.47 52.81 C32.48 46.23, 37.57 39.52, 54.59 22.5 M32.08 53.63 C36.79 46.29, 42.64 40.02, 52.07 29.33 M31.16 54.2 C38.12 45.9, 46.3 37.78, 53.14 30.09 M38.47 53.03 C42.61 49.13, 44.18 42.43, 49.14 39.19 M38.56 52.49 C42.56 46.32, 46.84 41.68, 50.38 36.6" stroke="#40c057" stroke-width="0.5" fill="none"></path><path d="M26.84 0.75 C32.14 0.24, 39.3 2.33, 43.73 5.82 C48.17 9.32, 52.4 15.83, 53.45 21.7 C54.49 27.57, 52.74 36.1, 50.01 41.03 C47.28 45.96, 42.33 49.44, 37.07 51.29 C31.81 53.13, 24.09 53.93, 18.47 52.09 C12.84 50.25, 6.21 45.07, 3.31 40.23 C0.42 35.39, 0.2 28.72, 1.11 23.07 C2.03 17.43, 4.26 10.28, 8.78 6.38 C13.31 2.47, 24.82 0.79, 28.24 -0.33 C31.67 -1.46, 29.3 -0.73, 29.33 -0.35 M30.85 1.23 C36.16 1.62, 42.23 4.44, 46.19 8.46 C50.16 12.48, 54.44 19.58, 54.64 25.35 C54.85 31.12, 51.07 38.28, 47.43 43.07 C43.79 47.87, 38.32 52.65, 32.81 54.12 C27.3 55.59, 19.57 54.9, 14.37 51.88 C9.18 48.87, 3.94 41.39, 1.63 36.03 C-0.68 30.67, -1.34 25.26, 0.5 19.72 C2.33 14.18, 7.76 6.17, 12.64 2.8 C17.52 -0.57, 26.76 -0.09, 29.8 -0.48 C32.85 -0.86, 30.9 -0.08, 30.92 0.49" stroke="#000000" stroke-width="1" fill="none"></path></g><g transform="translate(753.4205147436837 694.7015688873018) rotate(0 5.858333110809326 12)"><text x="5.858333110809326" y="0" font-family="Cascadia, Segoe UI Emoji" font-size="20px" fill="#1971c2" text-anchor="middle" style="white-space: pre;" direction="ltr" dominant-baseline="text-before-edge">+</text></g><g stroke-linecap="round" transform="translate(1156.37073094653 683.7934519793387) rotate(0 27 27)"><path d="M11.72 4.89 C11.72 4.89, 11.72 4.89, 11.72 4.89 M11.72 4.89 C11.72 4.89, 11.72 4.89, 11.72 4.89 M0.32 22.01 C6.75 17.18, 9.66 11.08, 17.35 1.01 M1.85 21.15 C6.01 16.7, 9.19 13.53, 17.71 3.88 M5.22 27.69 C8.05 19.22, 15.49 13.9, 24.83 -0.37 M2.57 25.91 C9.68 19.36, 16.33 11.95, 26.01 1.97 M3.03 31.87 C9.65 24.73, 16.36 17, 31.15 1.96 M4.01 31.52 C14.14 21.55, 24.22 8.92, 31.45 1.59 M2.52 40.36 C12.36 26.93, 24 14.2, 34.58 4.78 M3.27 39.21 C13.84 26.97, 22.97 15.62, 33.71 2.8 M5.43 39.88 C15.02 31.05, 25.45 16.83, 39.11 5.09 M6.53 40.65 C16.45 28.41, 29.08 15.64, 38.85 4.43 M10.64 43.71 C20.28 34.2, 28.84 22.3, 41.58 8.26 M7.93 44.32 C17.86 35.25, 26.09 24.93, 42.27 5.73 M10.91 47.43 C23.44 36.18, 33.8 21.26, 44.87 10.01 M12.26 46.85 C22.84 36.3, 31.66 23.29, 46.7 9.14 M15.53 50.53 C24.05 40.72, 29.98 32.34, 48.2 12.79 M14.41 49.33 C27.49 36.24, 39.57 21, 48.42 12.24 M17.31 51.91 C25.35 45.95, 32.19 38.24, 48.94 14.54 M18.21 52.44 C28.93 40.65, 40.55 26.68, 49.85 17.18 M23.73 53.74 C31.43 45.34, 38.44 37.06, 49.76 21.26 M22.42 52.98 C28.96 46.75, 35.64 39.89, 50.58 20.95 M26.06 55.78 C34.37 45.23, 41.78 38.02, 51.03 25.35 M27.7 53.83 C35.45 44.14, 44.97 35.53, 52.6 24.35 M31.78 53.66 C36.5 48.56, 41.6 43.15, 56.58 26.66 M31.89 54.92 C40.65 46.04, 48.39 37.36, 55.9 26.66 M37.68 56.72 C40.33 48.39, 45.65 44.97, 54.95 35.58 M36.91 54.68 C41.6 49.37, 46.97 42.16, 54.57 35.45" stroke="#40c057" stroke-width="0.5" fill="none"></path><path d="M29.06 -0.06 C34.5 -0.08, 41.96 3.49, 45.99 7.76 C50.02 12.03, 52.67 19.93, 53.25 25.56 C53.84 31.19, 52.67 37.02, 49.5 41.52 C46.34 46.03, 40 51.06, 34.27 52.6 C28.53 54.14, 20.24 53.09, 15.09 50.78 C9.94 48.46, 5.8 43.88, 3.36 38.72 C0.91 33.56, -1 25.49, 0.44 19.8 C1.88 14.11, 6.1 7.82, 11.99 4.59 C17.88 1.35, 30.88 0.53, 35.8 0.37 C40.72 0.2, 41.69 2.96, 41.52 3.58 M23.35 -0.28 C28.86 -1.46, 37.97 0.75, 42.76 3.98 C47.55 7.2, 50.56 13.28, 52.06 19.06 C53.57 24.85, 54 33.17, 51.79 38.71 C49.59 44.24, 44.11 50.05, 38.83 52.28 C33.54 54.5, 25.85 53.45, 20.1 52.05 C14.36 50.65, 7.69 48.58, 4.35 43.87 C1.02 39.16, -0.32 29.84, 0.07 23.78 C0.46 17.72, 2.62 11.5, 6.69 7.51 C10.76 3.52, 21.62 0.98, 24.48 -0.15 C27.34 -1.29, 23.95 0.08, 23.84 0.69" stroke="#000000" stroke-width="1" fill="none"></path></g><g transform="translate(1177.420514743684 698.7015688873018) rotate(0 5.858333110809326 12)"><text x="5.858333110809326" y="0" font-family="Cascadia, Segoe UI Emoji" font-size="20px" fill="#1971c2" text-anchor="middle" style="white-space: pre;" direction="ltr" dominant-baseline="text-before-edge">+</text></g><g stroke-linecap="round" transform="translate(931.3707309465301 680.2934519793387) rotate(0 27 27)"><path d="M4.21 12.94 C4.21 12.94, 4.21 12.94, 4.21 12.94 M4.21 12.94 C4.21 12.94, 4.21 12.94, 4.21 12.94 M2.25 21.61 C7.3 13.27, 12.79 5.87, 18.36 0.64 M1.84 20.76 C5.83 16.89, 10.19 12.17, 19.49 1.7 M-0.97 29.23 C8.18 21.51, 15.75 9.06, 24.36 0.65 M0.31 29.39 C7.97 21.26, 15.28 14.16, 24.15 1.52 M1.55 33.37 C9.44 24.48, 18.43 16.22, 30.96 0.31 M2.72 33.84 C11.77 22.56, 20.53 13.71, 29.94 2.84 M3.61 36.47 C11.56 27.94, 17.36 23.95, 35.23 3.93 M5.01 36.99 C14.28 25.42, 24.38 12.89, 34.92 3.08 M5.4 41.81 C15.04 28.97, 26.72 19.22, 40.04 5.25 M6.04 40.12 C16.69 29.86, 25.96 18.89, 39.06 2.5 M10.01 45.11 C18.8 32.74, 29.82 20.98, 41.04 7.29 M10.04 44.15 C22.32 29.74, 33.74 15.5, 42.2 6.77 M11.89 48.87 C18.46 38.53, 23.78 33.88, 44.5 11.37 M11.82 48.62 C18.16 38.46, 27.74 30.37, 43.59 9.59 M16.53 49.14 C27.77 34.43, 40.42 20.92, 49.03 10.43 M14.36 50.1 C20.81 41.76, 28.97 34.46, 46.58 12.69 M19.7 52.36 C31.48 39.21, 42.07 22.09, 51.45 14.65 M18.86 51.73 C29.64 38.66, 39.99 27.87, 50.23 15.12 M23.79 53.45 C28.55 47.48, 33.29 39.32, 49.82 19.2 M22.97 52.93 C31.44 44.17, 38.3 34.65, 51.25 19.61 M26.94 53.3 C36.08 44.09, 42.72 34.3, 53.17 24.82 M26.68 53.56 C33.91 47.51, 39.3 38.97, 51.56 24.86 M33.43 51.61 C39.59 45.13, 46.39 37.92, 54.03 29.13 M34.65 52.43 C41.76 44.48, 47.88 35.28, 53.64 29.46 M39.6 48.77 C45.11 44.95, 53.36 36.63, 56.12 33.44 M40.88 49.8 C46.64 42.23, 53.36 36.33, 56.09 32.42" stroke="#40c057" stroke-width="0.5" fill="none"></path><path d="M36.73 1.74 C41.91 3.6, 47.18 10.06, 50.03 15 C52.88 19.93, 54.81 25.93, 53.82 31.36 C52.84 36.79, 48.77 43.94, 44.11 47.59 C39.45 51.24, 31.53 53.28, 25.85 53.27 C20.16 53.26, 14.33 51.28, 10 47.55 C5.67 43.81, 0.78 36.65, -0.14 30.83 C-1.07 25.02, 1.31 17.72, 4.45 12.66 C7.6 7.6, 12.46 2.03, 18.75 0.48 C25.03 -1.08, 37.73 2.11, 42.16 3.35 C46.6 4.58, 45.76 7.34, 45.35 7.87 M36.28 0.77 C41.59 2.19, 46.23 7.28, 49.16 12.44 C52.08 17.61, 54.54 25.8, 53.82 31.77 C53.1 37.74, 49.26 44.75, 44.84 48.27 C40.42 51.78, 33.21 52.71, 27.29 52.85 C21.38 52.98, 13.81 52.74, 9.35 49.1 C4.89 45.45, 1.7 36.95, 0.54 30.99 C-0.62 25.03, -0.41 18.25, 2.41 13.34 C5.23 8.43, 11.99 3.55, 17.45 1.56 C22.92 -0.43, 32.34 1.24, 35.22 1.41 C38.11 1.58, 34.92 1.94, 34.77 2.57" stroke="#000000" stroke-width="1" fill="none"></path></g><g stroke-linecap="round"><g transform="translate(840.3707309465301 395.29345197933856) rotate(0 -80.17316853797064 56.01199535403396)"><path d="M0.89 -0.25 C-25.84 18.33, -133.36 93.37, -160.19 111.95 M-0.1 -1.43 C-27.03 17.31, -134.43 94.53, -161.24 113.46" stroke="#000000" stroke-width="1" fill="none"></path></g></g><mask></mask><g stroke-linecap="round"><g transform="translate(638.3707309465299 542.2934519793384) rotate(0 -52.64995150765404 66.12415013436237)"><path d="M-0.19 -0.05 C-17.69 22.03, -87 109.99, -104.11 132.24 M-1.75 -1.13 C-19.49 21.12, -88.24 111.31, -105.11 133.37" stroke="#000000" stroke-width="1" fill="none"></path></g></g><mask></mask><g stroke-linecap="round"><g transform="translate(674.3707309465299 547.2934519793387) rotate(0 36.78525676185265 67.32218014039097)"><path d="M-0.11 -0.76 C12.46 21.81, 63.02 112.74, 75.19 135.41 M-1.62 1.45 C10.9 23.66, 62.06 110.96, 74.87 133.5" stroke="#000000" stroke-width="1" fill="none"></path></g></g><mask></mask><g stroke-linecap="round"><g transform="translate(885.3707309465301 398.29345197933856) rotate(0 80.21418204423037 67.40901783367616)"><path d="M1.19 0.41 C27.53 23.07, 131.71 112.93, 157.92 135.24 M0.36 -0.42 C27.07 21.93, 133.9 110.63, 160.07 133.25" stroke="#000000" stroke-width="1" fill="none"></path></g></g><mask></mask><g stroke-linecap="round"><g transform="translate(1041.37073094653 579.2934519793387) rotate(0 -35.113666672445845 51.906054367162255)"><path d="M-1.08 0.24 C-12.87 17.39, -58.08 85.86, -69.55 103.31 M0.56 -0.68 C-11.54 16.58, -59.45 87.19, -70.78 104.49" stroke="#000000" stroke-width="1" fill="none"></path></g></g><mask></mask><g stroke-linecap="round"><g transform="translate(1079.37073094653 578.2934519793387) rotate(0 51.417153130564884 53.1307059530169)"><path d="M-0.55 -0.69 C16.49 17.1, 83.99 89.26, 101.13 106.95 M1.36 1.56 C18.87 19.01, 86.67 87.84, 103.38 105.33" stroke="#000000" stroke-width="1" fill="none"></path></g></g><mask></mask><g stroke-linecap="round" transform="translate(297.37073094652993 815.0434519793384) rotate(0 27 27)"><path d="M11.62 4.8 C11.62 4.8, 11.62 4.8, 11.62 4.8 M11.62 4.8 C11.62 4.8, 11.62 4.8, 11.62 4.8 M3.61 19.08 C9.27 15.54, 12.93 11.54, 20.47 3.85 M3.61 20.61 C5.77 16.68, 9.67 12.59, 17.81 2.06 M2.76 27.4 C11.5 18.1, 16.06 11.27, 24.19 1.24 M3.33 26.92 C8.75 21.28, 13.01 14.63, 25.16 0.88 M2.25 33.95 C11.73 23.35, 21.39 11.58, 30.23 2.18 M2.78 32.44 C11.51 24.35, 18.67 16.31, 30.99 1.02 M3.91 37.52 C13.47 26.57, 27.17 13.02, 33.8 0.94 M2.86 39.26 C10.24 31.16, 18.37 22.23, 34.9 1.71 M5.15 43.83 C11.7 33.5, 18.74 25.48, 40.97 2.5 M6.35 41.71 C17.83 28.64, 28.87 16.71, 38.27 3.11 M8.22 44.64 C20.55 29.8, 36.22 12.49, 41.91 5.48 M8.02 44.14 C21.38 30.98, 33.34 16.65, 43.26 4.9 M11.2 48.76 C27.01 30.39, 38.98 18.07, 47.18 7.81 M11.44 47.58 C25.95 32.15, 38.71 14.49, 46.06 6.62 M13.77 51.42 C24.16 37.49, 35.22 29.48, 48.96 9.19 M15.64 49.72 C25.32 36.79, 38.04 23, 49.86 9.73 M17.03 53.5 C28.8 40.73, 38.06 28.02, 52.76 14.04 M18.69 51.9 C30.05 37.89, 41.57 24.67, 51.44 13.29 M23.22 52.66 C33.25 41.06, 43.01 30.29, 51.8 19.85 M22.35 52.8 C31.83 43.3, 40.97 31.79, 53.45 17.91 M28.86 53.63 C34.3 42.98, 43.61 35.87, 54.9 20.76 M27.02 54.42 C34.68 45.29, 42.74 36.56, 55.01 22.02 M33.88 53.8 C40.21 43.35, 50.72 34.25, 56.86 28.34 M33.68 54.33 C37.48 48.36, 42.9 43.44, 56.1 26.3 M43.83 46.98 C46.26 43.61, 48.61 40.94, 54.43 34.65 M45.25 45.76 C46.95 43.14, 48.61 42.02, 52.99 36.41" stroke="#40c057" stroke-width="0.5" fill="none"></path><path d="M30.75 -0.15 C36.4 0.05, 43.12 3.42, 47.12 7.56 C51.12 11.71, 54.46 18.74, 54.75 24.71 C55.04 30.67, 52.52 38.59, 48.89 43.38 C45.25 48.16, 38.52 52.21, 32.95 53.4 C27.38 54.59, 20.64 53.1, 15.47 50.54 C10.29 47.99, 4.35 43.39, 1.9 38.07 C-0.56 32.74, -0.94 24.19, 0.73 18.59 C2.4 12.99, 6.22 7.42, 11.9 4.49 C17.57 1.55, 30.32 1.3, 34.78 1 C39.24 0.69, 38.98 2.34, 38.65 2.68 M34.93 0.75 C40.29 2.39, 47.41 7.73, 50.46 12.82 C53.52 17.9, 54.34 25.38, 53.27 31.25 C52.19 37.13, 48.4 44.05, 44.01 48.05 C39.63 52.04, 32.63 55.13, 26.98 55.25 C21.32 55.38, 14.31 52.73, 10.1 48.79 C5.9 44.85, 2.95 37.64, 1.75 31.61 C0.54 25.57, 0.25 17.54, 2.87 12.57 C5.49 7.6, 11.74 3.75, 17.47 1.79 C23.19 -0.17, 34.04 0.67, 37.23 0.79 C40.41 0.92, 36.85 1.84, 36.59 2.53" stroke="#000000" stroke-width="1" fill="none"></path></g><g transform="translate(318.42051474368384 829.9515688873016) rotate(0 5.858333110809326 12)"><text x="5.858333110809326" y="0" font-family="Cascadia, Segoe UI Emoji" font-size="20px" fill="#1971c2" text-anchor="middle" style="white-space: pre;" direction="ltr" dominant-baseline="text-before-edge">*</text></g><g stroke-linecap="round" transform="translate(697.3707309465299 847.0434519793384) rotate(0 27 27)"><path d="M7.33 9.02 C7.33 9.02, 7.33 9.02, 7.33 9.02 M7.33 9.02 C7.33 9.02, 7.33 9.02, 7.33 9.02 M3.61 21.04 C6.33 18.2, 10.9 14.21, 16.85 2.31 M1.09 21.3 C5.99 15.97, 10.48 9.69, 18.12 2.48 M3.34 26.79 C9.07 18.59, 15.44 10.57, 23.96 1.17 M1.82 28.5 C6.63 21.12, 12.98 14.08, 25.13 1.64 M3.55 32.53 C14.4 19.4, 20.78 12.36, 28.64 1.26 M4 32.28 C13.13 22.22, 20.93 12.14, 30.04 1.77 M3.3 37.4 C13.22 28.25, 18.07 18.38, 32.4 4.33 M4.27 37.4 C12.39 28.52, 18.51 19.88, 33.04 2.64 M4.52 41.16 C16.56 27.24, 32.42 11.46, 39.64 4.61 M7 40.53 C14.77 32.21, 21.59 21.42, 39.66 3.65 M6.6 45.52 C22.25 28.38, 32.79 15.39, 44.14 5.35 M8.65 45.21 C20.45 31.6, 31.33 18.44, 44.07 5.1 M12.7 46.21 C19.11 40.17, 27.34 29.8, 47.47 7.13 M11 48.59 C21.51 33.58, 33.28 20.66, 45.29 8.09 M14.3 48.03 C23.64 41.97, 29.48 30.87, 48.66 12.62 M13.48 50.16 C25.3 37.1, 36.84 23.69, 47.83 11.99 M18.93 51.91 C29.87 37.27, 41.86 25.88, 51.45 15.22 M17.79 51.44 C26.88 40.86, 37.19 28.8, 50.63 14.69 M21.88 53.72 C32.88 41.46, 43.47 28.66, 52.63 17.33 M21.44 54.47 C31.12 42.52, 41.31 31.35, 52.37 17.58 M26.71 51.09 C38.57 40.78, 47.94 27.79, 55.18 20.17 M27.08 53.22 C35.54 43.97, 43.53 34.45, 56.4 20.98 M32.38 51.99 C41.99 43.76, 50.37 34.93, 52.82 27.13 M33.51 51.93 C38.45 47.16, 42.41 40.94, 54.1 28.17 M38.94 51.03 C43.44 45.94, 49.33 39.74, 52.8 33.75 M40.2 49.99 C43.73 47.03, 47 42.47, 53.6 34.98" stroke="#40c057" stroke-width="0.5" fill="none"></path><path d="M23.59 -0.69 C29.02 -1.88, 37.14 0.02, 42.03 3.26 C46.91 6.5, 51.29 13.12, 52.93 18.77 C54.56 24.42, 53.94 31.9, 51.86 37.14 C49.77 42.39, 45.51 47.46, 40.4 50.25 C35.29 53.04, 27.03 55.06, 21.19 53.87 C15.35 52.68, 8.94 47.7, 5.35 43.1 C1.77 38.49, -0.65 31.91, -0.31 26.23 C0.02 20.54, 2.9 13.4, 7.36 8.99 C11.83 4.58, 23.09 1.27, 26.48 -0.22 C29.86 -1.71, 27.65 -0.45, 27.67 0.04 M15.64 2.35 C20.53 -0.22, 27.89 -0.75, 33.33 0.85 C38.77 2.45, 44.93 7.02, 48.28 11.94 C51.64 16.85, 53.77 24.54, 53.46 30.33 C53.14 36.13, 50.16 42.89, 46.4 46.72 C42.64 50.56, 36.75 53.15, 30.88 53.35 C25.02 53.56, 16.17 51.15, 11.21 47.96 C6.25 44.78, 2.34 39.73, 1.11 34.26 C-0.12 28.79, 1.29 20.33, 3.82 15.15 C6.35 9.97, 14.21 5.04, 16.29 3.19 C18.36 1.33, 16.48 3.95, 16.28 4.04" stroke="#000000" stroke-width="1" fill="none"></path></g><g transform="translate(718.4205147436837 861.9515688873016) rotate(0 5.858333110809326 12)"><text x="5.858333110809326" y="0" font-family="Cascadia, Segoe UI Emoji" font-size="20px" fill="#1971c2" text-anchor="middle" style="white-space: pre;" direction="ltr" dominant-baseline="text-before-edge">*</text></g><g stroke-linecap="round" transform="translate(165.37073094652993 990.5434519793384) rotate(0 27 27)"><path d="M7.32 9.02 C7.32 9.02, 7.32 9.02, 7.32 9.02 M7.32 9.02 C7.32 9.02, 7.32 9.02, 7.32 9.02 M4.07 20.7 C7.93 17.39, 7.73 12.63, 18.05 4.14 M2.66 19.88 C6.41 14.63, 10.99 10.84, 18.42 2.35 M1.42 27.39 C7.93 19.05, 16.02 10.13, 24.18 0.89 M0.74 27.98 C8.82 18.71, 16.86 10.9, 25.65 -0.01 M5.06 30.1 C12.31 21.94, 22.43 8.26, 30.21 0.11 M4.07 32.37 C11.1 22.84, 20.06 12.9, 29.02 2.07 M5.86 36.64 C10.56 27.07, 17.29 21.81, 32.56 1.9 M5.23 36.71 C14.91 23.84, 24.59 12.21, 34.57 2.63 M4.19 41.61 C20.55 25.56, 32.03 13.63, 37.26 5.28 M6.64 41.7 C13.23 30.92, 23.47 22.01, 38.82 3.77 M8.53 44.02 C16.86 33.75, 29.31 22.59, 42.96 3.7 M8.04 45.32 C15.75 35.35, 24.92 26.66, 41.77 4.86 M11.07 49.52 C23.7 33.92, 37.69 18.19, 45.44 7.88 M9.94 46.82 C21.28 33.99, 32.64 22.24, 44.17 8.01 M15.72 51.09 C26.1 35.05, 39.72 23.18, 47.92 13.61 M14.41 49.92 C24.19 38.77, 32.93 29.35, 47.69 11.51 M18.98 49.76 C30.45 38.72, 41.28 26.64, 50.3 16.3 M17.91 51.32 C25.65 42.35, 33.33 34.68, 51 15.07 M21.87 54.17 C28.13 46.26, 36.97 35.22, 52.88 18.33 M21.95 52.86 C28.65 45.48, 34.44 37.96, 53.36 18.77 M28.88 52.17 C34.52 43.81, 41.28 36.49, 52.15 24.1 M27.96 52.74 C36.04 43.17, 45.32 33.76, 53.22 24.86 M33.97 53.14 C40.19 46.95, 43.65 37.81, 51.11 31.78 M34.07 52.59 C40.47 43.59, 47.13 36.2, 52.41 29.07 M38.76 51.27 C46.36 43.18, 48.75 38.47, 52.55 36.47 M39.23 52.29 C42.79 47.45, 46.95 42.69, 52.23 36.47" stroke="#40c057" stroke-width="0.5" fill="none"></path><path d="M23.18 -0.4 C28.51 -1.49, 36 0.79, 40.84 3.85 C45.67 6.91, 50.16 12.63, 52.19 17.95 C54.21 23.26, 55 30.27, 53 35.75 C50.99 41.24, 45.35 47.99, 40.15 50.86 C34.96 53.73, 27.51 54.06, 21.81 52.98 C16.11 51.9, 9.49 48.73, 5.94 44.38 C2.39 40.04, 0.3 32.76, 0.48 26.92 C0.67 21.08, 2.74 13.92, 7.04 9.34 C11.34 4.77, 22.08 0.86, 26.28 -0.53 C30.49 -1.93, 32.3 0.51, 32.28 0.95 M20.09 0.8 C25.17 -0.7, 32.99 0.64, 38.17 3.39 C43.36 6.14, 48.72 11.97, 51.21 17.29 C53.69 22.6, 54.38 30.02, 53.07 35.29 C51.76 40.55, 48.25 46, 43.34 48.88 C38.44 51.75, 29.58 53.06, 23.63 52.54 C17.69 52.02, 11.37 49.81, 7.68 45.75 C3.99 41.69, 1.73 33.86, 1.47 28.18 C1.21 22.5, 2.82 16.07, 6.11 11.66 C9.4 7.24, 19.01 3.65, 21.19 1.71 C23.37 -0.24, 19.31 -0.18, 19.2 -0.01" stroke="#000000" stroke-width="1" fill="none"></path></g><g stroke-linecap="round" transform="translate(397.37073094652993 997.5434519793384) rotate(0 27 27)"><path d="M1.51 15.89 C1.51 15.89, 1.51 15.89, 1.51 15.89 M1.51 15.89 C1.51 15.89, 1.51 15.89, 1.51 15.89 M3.14 23.23 C4 17.1, 9.42 14.1, 15.53 3.47 M0.48 21.45 C5.51 17.25, 10.11 12.2, 16.71 5.81 M0.29 28.17 C5.61 22.5, 11.02 16.27, 23.17 4.29 M1.27 27.82 C9.44 20.05, 17.61 9.62, 23.46 3.92 M1.09 35.15 C9.47 23.4, 19.62 12.4, 28.56 4.85 M1.85 33.99 C10.95 23.51, 18.57 13.89, 27.69 2.87 M3.35 35.42 C12.52 27.08, 22.53 13.35, 35.71 2.14 M4.45 36.19 C13.92 24.48, 26.08 12.24, 35.45 1.48 M8.55 39.25 C17.57 30.44, 25.53 19.24, 37.53 6.06 M5.85 39.86 C15.29 31.37, 23.03 21.63, 38.22 3.54 M8.17 43.73 C20.09 33.18, 29.82 18.98, 40.16 8.57 M9.53 43.15 C19.52 33.27, 27.73 20.96, 41.99 7.7 M12.13 47.58 C20.8 37.6, 26.87 29.05, 45.46 9.09 M11.01 46.38 C24.36 33.01, 36.68 17.48, 45.68 8.53 M13.26 49.71 C22 42.9, 29.56 34.37, 48.17 8.57 M14.16 50.24 C26.04 37.12, 38.81 21.81, 49.08 11.21 M19.68 51.54 C28.83 41.49, 37.33 31.51, 50.96 13.02 M18.37 50.79 C26.07 43.25, 33.89 35.07, 51.78 12.72 M21.35 54.33 C31.12 42.08, 40 33.19, 51.57 17.87 M23 52.39 C32.48 40.71, 43.75 30.09, 53.14 16.87 M26.42 52.97 C31.92 46.95, 37.83 40.61, 55.15 21.44 M26.53 54.24 C36.56 43.87, 45.58 33.72, 54.47 21.44 M31.66 56.79 C36.32 46.09, 43.66 40.35, 55.49 28.1 M30.89 54.74 C37.59 47.05, 44.98 37.5, 55.11 27.97 M42.13 48.28 C42.69 46.69, 45.3 44.91, 48.04 41.88 M41.02 49.64 C42.5 47.9, 43.99 46.16, 47.68 41.46" stroke="#40c057" stroke-width="0.5" fill="none"></path><path d="M14.8 3.25 C19.35 0.55, 26.92 -0.38, 32.63 0.75 C38.34 1.88, 45.56 5.36, 49.07 10.01 C52.58 14.65, 54.12 22.84, 53.69 28.61 C53.26 34.39, 50.4 40.44, 46.48 44.64 C42.57 48.85, 35.78 53, 30.2 53.85 C24.62 54.71, 17.69 52.93, 12.98 49.77 C8.27 46.6, 3.87 40.49, 1.92 34.88 C-0.02 29.28, -1.58 21.72, 1.29 16.14 C4.16 10.55, 15.73 4.02, 19.15 1.38 C22.58 -1.26, 21.91 -0.17, 21.86 0.29 M23.6 0.79 C29.03 0.1, 36.8 2.65, 41.72 5.93 C46.63 9.21, 51.24 15.21, 53.1 20.49 C54.96 25.76, 55.36 32.64, 52.88 37.56 C50.4 42.48, 43.61 47.4, 38.21 50 C32.81 52.61, 25.77 54.5, 20.48 53.18 C15.2 51.86, 9.75 46.7, 6.5 42.1 C3.26 37.49, 0.71 31.05, 1.02 25.55 C1.33 20.05, 4.72 13.54, 8.36 9.08 C12 4.62, 20.3 0.32, 22.86 -1.19 C25.42 -2.7, 23.38 -0.56, 23.72 0" stroke="#000000" stroke-width="1" fill="none"></path></g><g stroke-linecap="round" transform="translate(821.3707309465301 1001.5434519793384) rotate(0 27 27)"><path d="M3.44 14.91 C3.44 14.91, 3.44 14.91, 3.44 14.91 M3.44 14.91 C3.44 14.91, 3.44 14.91, 3.44 14.91 M0.49 22.54 C7.06 17.92, 11.97 8.53, 17.94 3.02 M1.76 22.71 C7.04 17.17, 12.03 12.74, 17.73 3.89 M-0.93 31.21 C6.03 23.38, 14.1 16.15, 25.19 1.93 M0.24 31.68 C8.25 21.58, 15.98 13.91, 24.18 4.46 M1.13 34.31 C8.53 26.43, 13.78 23.05, 30.13 4.79 M2.53 34.83 C10.9 24.3, 20.12 12.79, 29.81 3.94 M3.57 38.89 C13.02 26.27, 24.51 16.73, 37.56 3.1 M4.22 37.21 C14.67 27.15, 23.76 16.4, 36.58 0.35 M8.19 42.2 C16.77 30.08, 27.57 18.56, 38.56 5.13 M8.21 41.24 C20.24 27.1, 31.42 13.14, 39.71 4.61 M10.72 45.2 C17.15 35.02, 22.33 30.52, 42.67 8.45 M10.65 44.96 C16.84 34.98, 26.25 27.06, 41.77 6.67 M13.4 47.74 C25.13 32.44, 38.3 18.34, 47.21 7.52 M11.22 48.7 C17.95 40.06, 26.37 32.44, 44.76 9.78 M16.56 50.96 C28.83 37.25, 39.92 19.56, 49.62 11.74 M15.72 50.33 C26.93 36.77, 37.71 25.47, 48.4 12.2 M20.65 52.05 C26.08 45.28, 31.52 36.31, 49.96 14.03 M19.83 51.53 C29.21 41.73, 37 31.14, 51.39 14.43 M23.8 51.9 C34.08 41.38, 41.84 30.3, 53.31 19.64 M23.55 52.15 C31.56 45.18, 37.77 35.7, 51.7 19.68 M27.67 53.23 C35.6 44.75, 44.15 35.52, 54.17 23.95 M28.89 54.04 C38.1 43.68, 46.3 32.09, 53.78 24.29 M29.24 55.67 C37.85 48.18, 49.22 36.27, 54.3 30.52 M30.53 56.7 C39.51 45.46, 49.45 35.87, 54.27 29.51 M39.15 51.87 C41.79 50.18, 44.29 47.47, 46.51 43.61 M39.59 52.54 C42.41 49.28, 45.37 45.32, 47.67 44.15" stroke="#40c057" stroke-width="0.5" fill="none"></path><path d="M16.31 2.23 C21.31 -0.35, 30.11 -1.11, 35.62 0.65 C41.14 2.42, 46.45 7.95, 49.41 12.8 C52.36 17.66, 54.09 24.1, 53.36 29.78 C52.63 35.46, 49.12 42.86, 45.03 46.89 C40.94 50.92, 34.43 53.73, 28.82 53.96 C23.21 54.19, 16.18 51.85, 11.36 48.27 C6.54 44.69, 1.2 38.06, -0.09 32.46 C-1.38 26.86, 0.46 20.03, 3.64 14.68 C6.83 9.33, 15.78 2.64, 19.01 0.36 C22.23 -1.92, 22.75 0.49, 22.99 0.98 M26.54 1.26 C32.17 0.94, 39.76 3.73, 44.48 7.15 C49.19 10.57, 53.95 16.46, 54.85 21.8 C55.74 27.14, 52.93 34.1, 49.85 39.2 C46.76 44.29, 41.45 50.3, 36.34 52.38 C31.23 54.46, 24.46 53.57, 19.17 51.68 C13.87 49.79, 7.57 45.78, 4.56 41.03 C1.55 36.29, 0.51 29.22, 1.12 23.21 C1.73 17.21, 4.02 8.96, 8.23 4.98 C12.44 1, 23.2 0.17, 26.39 -0.67 C29.58 -1.51, 27.39 -0.4, 27.36 -0.08" stroke="#000000" stroke-width="1" fill="none"></path></g><g stroke-linecap="round" transform="translate(596.3707309465299 998.0434519793384) rotate(0 27 27)"><path d="M10.85 4.13 C10.85 4.13, 10.85 4.13, 10.85 4.13 M10.85 4.13 C10.85 4.13, 10.85 4.13, 10.85 4.13 M1.89 21.89 C6.85 12.61, 12.8 6.83, 17.69 0.7 M2.27 20.1 C5.86 17.32, 8.36 12.45, 17.57 1.55 M1.46 26.19 C9.89 18.68, 17.4 8.75, 24.35 0.33 M2.93 25.29 C9.55 18.72, 15.25 12.28, 23.16 0.6 M2.89 30.69 C13.31 21.62, 24.29 9.49, 31.17 -0.45 M1.71 32.65 C11.09 20.76, 21.6 10.94, 30.29 -0.6 M1.32 37.01 C11.02 29.62, 17.97 23.45, 33.76 1.9 M3.32 37.74 C10.8 29.25, 17.04 20.98, 34.38 2.69 M4.7 41.9 C12.64 33.29, 20.3 23.48, 39.13 1.84 M6.26 40.39 C13.39 30.61, 21.74 22.55, 36.81 3.19 M8.43 42.58 C16.74 34.12, 28.05 22.63, 40.29 6.34 M7.24 43.75 C16.51 35.36, 23.18 25.15, 42.3 5.86 M11.56 46.01 C21.98 34.75, 33.97 20.16, 42.55 7.22 M10.29 46.15 C19.48 37.65, 25.61 29.54, 45.17 7.87 M14.71 50.99 C22.35 36.83, 32.79 28.42, 48.7 10.65 M14.47 48.89 C23.97 38.82, 32.81 27.62, 47.25 10.78 M17.09 53.68 C25.24 41.22, 34.71 28.93, 49.47 14.54 M17.79 52.44 C23.6 43.9, 31.15 35.25, 50.23 13.58 M22.29 52.69 C31.51 40.02, 45.22 26.77, 50.51 19.27 M22.77 53.13 C29.85 42.84, 37.08 34.43, 51.51 18.08 M26.15 53.18 C34.1 44.76, 40.76 37.24, 54.28 21.8 M27.22 53.93 C35.39 41.98, 44.62 32.17, 53.9 22.67 M29.71 55.58 C42.49 42.41, 50.87 32.57, 57.12 25.25 M31 52.86 C39.32 45.2, 45.36 37.57, 55.52 26.53 M35.08 55.73 C39.58 51.08, 41.65 46.32, 55.08 32.93 M34.76 55.74 C41.97 46.48, 49.98 39.99, 53.54 35.39" stroke="#40c057" stroke-width="0.5" fill="none"></path><path d="M30.26 -0.42 C35.75 -0.18, 42.12 4.41, 45.99 8.54 C49.87 12.66, 53.05 18.6, 53.49 24.31 C53.93 30.02, 51.85 37.98, 48.64 42.78 C45.43 47.59, 39.66 51.75, 34.22 53.14 C28.78 54.53, 21.45 53.7, 16.03 51.12 C10.6 48.53, 4.05 42.86, 1.66 37.64 C-0.74 32.41, 0.12 25.35, 1.65 19.76 C3.18 14.18, 5.74 7.3, 10.84 4.14 C15.93 0.98, 28.12 1.22, 32.2 0.81 C36.27 0.4, 35.32 1.35, 35.3 1.68 M32.9 1.46 C38.63 2, 46.22 5.78, 49.64 10 C53.06 14.23, 53.88 20.94, 53.45 26.81 C53.01 32.68, 50.63 40.83, 47.06 45.2 C43.48 49.58, 37.58 52.22, 31.99 53.07 C26.39 53.93, 18.49 53.17, 13.49 50.34 C8.48 47.51, 4.12 41.91, 1.97 36.08 C-0.17 30.26, -1.36 21, 0.62 15.39 C2.6 9.78, 8.44 4.97, 13.86 2.41 C19.28 -0.16, 30.14 0.46, 33.14 0.01 C36.13 -0.44, 31.92 -0.59, 31.86 -0.29" stroke="#000000" stroke-width="1" fill="none"></path></g><g stroke-linecap="round"><g transform="translate(505.37073094652993 713.0434519793384) rotate(0 -80.25603059148416 55.67520223563531)"><path d="M0.23 -0.25 C-26.25 18.49, -133.05 94.13, -159.87 112.78 M-1.1 -1.43 C-27.65 16.95, -133.97 92.03, -160.74 111.07" stroke="#000000" stroke-width="1" fill="none"></path></g></g><mask></mask><g stroke-linecap="round"><g transform="translate(303.37073094652993 860.0434519793384) rotate(0 -52.26385572589934 67.08179970029744)"><path d="M0.13 0.78 C-17.35 22.93, -87.39 110.71, -104.66 132.66 M-1.26 0.14 C-18.36 22.49, -85.18 111.79, -102.3 134.02" stroke="#000000" stroke-width="1" fill="none"></path></g></g><mask></mask><g stroke-linecap="round"><g transform="translate(339.37073094652993 865.0434519793384) rotate(0 36.93456061445177 67.09842645976687)"><path d="M-0.66 -0.34 C11.74 21.95, 62.21 112, 74.53 134.49 M1.19 -1.56 C13.47 20.81, 61.42 112.88, 73.86 135.76" stroke="#000000" stroke-width="1" fill="none"></path></g></g><mask></mask><g stroke-linecap="round"><g transform="translate(550.3707309465299 716.0434519793384) rotate(0 79.98691919323056 67.05637643281375)"><path d="M0.53 -0.51 C27.02 21.98, 131.86 111.92, 158.29 134.61 M-0.65 -1.82 C26.29 20.87, 134.12 113.38, 160.62 135.94" stroke="#000000" stroke-width="1" fill="none"></path></g></g><mask></mask><g stroke-linecap="round"><g transform="translate(706.3707309465299 897.0434519793387) rotate(0 -34.3399318656698 51.467525402363435)"><path d="M-0.71 -0.39 C-12.28 17.12, -57.52 87.05, -68.9 104.58 M1.11 -1.65 C-10.65 15.56, -57.98 85.34, -69.79 102.76" stroke="#000000" stroke-width="1" fill="none"></path></g></g><mask></mask><g stroke-linecap="round"><g transform="translate(744.3707309465301 896.0434519793387) rotate(0 50.34315085032955 53.32469625761735)"><path d="M0.1 0.58 C17.22 18.45, 85.06 89.39, 101.99 106.81 M-1.3 -0.16 C15.72 17.41, 84.02 87.43, 101.04 105.11" stroke="#000000" stroke-width="1" fill="none"></path></g></g><mask></mask><g stroke-linecap="round" transform="translate(860.3707309465301 834.5434519793384) rotate(0 27 27)"><path d="M6.7 8.47 C6.7 8.47, 6.7 8.47, 6.7 8.47 M6.7 8.47 C6.7 8.47, 6.7 8.47, 6.7 8.47 M4.85 17.63 C7.07 13.56, 9.91 9.62, 14.46 4.77 M3.4 19.26 C5.49 15.14, 9.03 11.33, 15.58 5.21 M1.21 27.84 C11.13 15.78, 16.59 9.8, 23.68 -0.41 M1.66 27.59 C9.89 18.55, 16.8 9.48, 25.08 0.1 M1.61 31.96 C10.72 23.75, 14.75 14.83, 27.43 2.66 M2.59 31.96 C9.91 23.99, 15.25 16.25, 28.08 0.97 M2.84 35.72 C13.39 23.53, 27.79 9.44, 34.02 3.7 M5.32 35.09 C12.12 27.91, 17.93 18.28, 34.04 2.74 M4.26 40.84 C18.7 25.08, 28.04 13.46, 38.52 4.44 M6.31 40.53 C17.02 28.12, 26.85 16.17, 38.45 4.19 M9.05 43.04 C15.46 37, 23.69 26.63, 43.82 3.95 M7.34 45.42 C17.86 30.4, 29.63 17.48, 41.64 4.92 M10.65 44.86 C19.99 38.8, 25.83 27.69, 45.01 9.44 M9.82 46.99 C21.65 33.93, 33.19 20.51, 44.17 8.81 M15.93 47.98 C26.64 33.61, 38.4 22.48, 47.79 12.04 M14.79 47.52 C23.69 37.16, 33.8 25.33, 46.97 11.52 M18.23 50.55 C29.23 38.29, 39.82 25.49, 48.97 14.15 M17.79 51.29 C27.47 39.35, 37.66 28.18, 48.72 14.41 M20.44 50.93 C33.01 39.78, 43.12 25.93, 50.88 17.75 M20.81 53.06 C29.84 43.15, 38.4 32.97, 52.09 18.56 M22.82 55.61 C35.94 43.27, 47.89 30.33, 52.45 20.19 M23.96 55.55 C30.81 48.41, 36.77 39.87, 53.73 21.22 M29.39 54.64 C36.43 46.64, 44.78 37.61, 52.43 26.8 M30.64 53.6 C36.61 47.78, 42.37 40.35, 53.23 28.04 M35.13 55.35 C41.13 50.06, 45.2 47.17, 55.63 33.89 M36.7 53.51 C41.17 48.76, 44.16 45.58, 54.26 32.72" stroke="#40c057" stroke-width="0.5" fill="none"></path><path d="M24.39 0.2 C29.78 -0.81, 36.17 0.59, 40.83 3.77 C45.48 6.96, 50.53 13.74, 52.34 19.32 C54.14 24.91, 53.83 32.09, 51.64 37.3 C49.46 42.52, 44.29 48, 39.24 50.61 C34.19 53.23, 26.84 54.21, 21.34 52.99 C15.84 51.78, 9.72 47.74, 6.26 43.31 C2.81 38.88, 0.48 32.26, 0.59 26.41 C0.7 20.56, 2.27 12.59, 6.92 8.22 C11.57 3.85, 23.86 1.11, 28.5 0.18 C33.14 -0.75, 34.73 2.1, 34.76 2.64 M30.4 -0.9 C35.64 -0.52, 43.15 4.5, 47.15 9.07 C51.14 13.64, 54.41 20.85, 54.35 26.51 C54.29 32.16, 50.49 38.73, 46.79 43.01 C43.08 47.28, 37.67 50.89, 32.12 52.14 C26.57 53.39, 18.59 53.29, 13.5 50.52 C8.42 47.74, 3.75 41.12, 1.6 35.48 C-0.56 29.83, -1.17 22.14, 0.58 16.65 C2.34 11.16, 6.99 5.36, 12.12 2.55 C17.26 -0.26, 28.22 0.22, 31.37 -0.22 C34.53 -0.66, 31.12 -0.44, 31.07 -0.1" stroke="#000000" stroke-width="1" fill="none"></path></g><g stroke-linecap="round"><g transform="translate(778.3707309465301 728.0434519793384) rotate(0 47.52710297679528 55.899463067762554)"><path d="M-0.29 -0.92 C15.21 17.73, 77.32 94.09, 92.97 112.72 M1.76 1.22 C17.65 19.46, 80.16 92.62, 95.35 111.01" stroke="#000000" stroke-width="1" fill="none"></path></g></g><mask></mask><g stroke-linecap="round"><g transform="translate(524.3707309465299 728.7934519793384) rotate(0 12.592822044091292 68.95776815474039)"><path d="M-0.64 0.8 C3.71 23.75, 21.54 114.03, 25.83 136.77 M1.22 0.17 C5.44 23.31, 20.48 114.73, 24.88 137.74" stroke="#000000" stroke-width="1" fill="none"></path></g></g><mask></mask><g stroke-linecap="round" transform="translate(524.3707309465299 867.2934519793384) rotate(0 27 27)"><path d="M4.02 12.77 C4.02 12.77, 4.02 12.77, 4.02 12.77 M4.02 12.77 C4.02 12.77, 4.02 12.77, 4.02 12.77 M1.23 21.16 C6.32 15.43, 12.57 10.3, 20.79 -0.58 M2.4 21.63 C8.33 13.88, 14.01 8.57, 19.78 1.96 M0.01 28.04 C6.57 21.12, 11.02 18.67, 25.07 3.04 M1.41 28.55 C8.44 19.57, 16.32 9.59, 24.75 2.19 M1.14 34.13 C9.24 22.99, 19.4 14.98, 30.53 3.61 M1.78 32.44 C10.94 23.85, 18.72 14.6, 29.55 0.86 M5.1 38.19 C13.05 26.8, 23.2 16.04, 33.5 3.39 M5.13 37.23 C16.41 23.92, 26.86 10.79, 34.66 2.87 M6.98 41.95 C13.4 31.76, 18.59 27.27, 38.93 5.2 M6.9 41.7 C13.09 31.72, 22.51 23.81, 38.02 3.42 M9.65 44.48 C21.39 29.18, 34.55 15.08, 43.46 4.26 M7.47 45.44 C14.2 36.8, 22.63 29.19, 41.01 6.53 M10.84 49.97 C23.86 35.42, 35.68 16.89, 45.88 8.48 M10.01 49.34 C21.85 35.03, 33.29 23, 44.66 8.95 M14.94 51.06 C20.77 43.8, 26.63 34.36, 46.22 10.77 M14.12 50.53 C24.05 40.12, 32.39 28.89, 47.65 11.18 M18.09 50.9 C29.73 38.82, 38.82 26.2, 51.54 14.12 M17.83 51.16 C26.81 43.07, 34 32.46, 49.93 14.16 M21.3 52.99 C31.2 42.29, 41.7 30.82, 54.36 16.17 M22.52 53.81 C34.06 40.76, 44.57 26.51, 53.97 16.5 M24.18 53.92 C34.7 44.18, 47.99 30.05, 54.49 22.74 M25.47 54.95 C36.44 41.45, 48.35 29.59, 54.46 21.72 M31.39 52.23 C38.78 46.18, 46.02 38.16, 53.94 26.66 M32.19 53.47 C40.93 43.39, 49.85 32.12, 56.06 27.65 M41.14 51.78 C42.47 44.01, 49.45 41.49, 53.62 35.84 M39.78 50.6 C43.96 46.09, 46.8 42.18, 53.93 34.22" stroke="#40c057" stroke-width="0.5" fill="none"></path><path d="M18.94 0.91 C24.18 -1.13, 32.15 -0.55, 37.58 1.71 C43.01 3.97, 48.75 9.22, 51.51 14.46 C54.26 19.71, 55.43 27.36, 54.14 33.19 C52.85 39.01, 48.6 46.02, 43.77 49.42 C38.95 52.82, 31.22 54.04, 25.21 53.61 C19.19 53.17, 11.85 50.53, 7.69 46.8 C3.52 43.06, 0.83 36.85, 0.2 31.19 C-0.43 25.54, 0.5 17.88, 3.92 12.9 C7.33 7.91, 17.64 3.43, 20.7 1.31 C23.76 -0.82, 22.36 -0.15, 22.27 0.14 M20.2 -0.77 C25.52 -2.47, 34.59 -1.4, 39.9 1.52 C45.2 4.43, 49.85 11.26, 52 16.73 C54.16 22.2, 54.71 29.02, 52.8 34.34 C50.89 39.67, 45.65 45.62, 40.54 48.7 C35.43 51.77, 27.76 53.45, 22.13 52.78 C16.5 52.11, 10.54 48.95, 6.75 44.69 C2.96 40.44, -0.36 33.14, -0.61 27.26 C-0.86 21.38, 1.87 13.76, 5.28 9.42 C8.69 5.09, 17.44 2.4, 19.84 1.26 C22.24 0.11, 19.44 2.08, 19.69 2.54" stroke="#000000" stroke-width="1" fill="none"></path></g><g stroke-linecap="round" transform="translate(398.37073094652993 583.7934519793384) rotate(0 27 27)"><path d="M12.11 5.22 C12.11 5.22, 12.11 5.22, 12.11 5.22 M12.11 5.22 C12.11 5.22, 12.11 5.22, 12.11 5.22 M1.67 22.4 C8.63 16.54, 14.71 8.27, 19.97 1.82 M3.14 21.5 C8.43 16.5, 12.8 11.59, 18.78 2.09 M3.76 26.14 C12.41 19.06, 21.65 8.93, 27.44 0.28 M2.58 28.11 C10.41 18.02, 19.34 10, 26.56 0.14 M2.18 32.47 C11.12 25.94, 17.34 20.61, 31.34 1.12 M4.18 33.19 C10.9 25.54, 16.41 18.11, 31.96 1.92 M2.28 41.13 C10.23 32.52, 17.89 22.71, 36.72 1.06 M3.84 39.61 C10.97 29.83, 19.32 21.78, 34.4 2.42 M6.67 41.05 C14.79 32.82, 25.9 21.56, 37.87 5.56 M5.48 42.21 C14.6 34.02, 21.11 24, 39.89 5.08 M9.15 45.24 C19.77 33.74, 31.97 18.9, 40.79 5.69 M7.88 45.37 C17.22 36.7, 23.5 28.42, 43.41 6.34 M12.29 50.21 C20.27 35.65, 31.05 26.84, 47.6 8.36 M12.06 48.12 C21.92 37.62, 31.13 25.99, 46.14 8.49 M14.67 52.9 C23.2 39.99, 33.07 27.25, 48.36 12.25 M15.37 51.67 C21.47 42.79, 29.3 33.8, 49.12 11.3 M17.91 54.18 C28.38 40.08, 43.35 25.39, 49.4 16.98 M18.39 54.62 C26.36 43.32, 34.47 33.89, 50.4 15.8 M22.42 53.91 C31.06 44.72, 38.4 36.42, 53.18 19.52 M23.49 54.67 C32.54 41.67, 42.67 30.82, 52.79 20.39 M25.98 56.31 C39.82 41.97, 49.24 30.94, 56.01 22.96 M27.27 53.59 C36.35 45.07, 43.13 36.58, 54.42 24.24 M33.32 54.2 C38.94 48.33, 42.08 42.34, 58.57 25.37 M33 54.21 C42.25 42.62, 52.25 33.84, 57.03 27.82 M43.02 46.31 C48.37 44.15, 51.03 40.21, 53.24 36.14 M44.74 47.03 C47.86 42.98, 51.47 38.92, 54 35.95" stroke="#40c057" stroke-width="0.5" fill="none"></path><path d="M29.71 -0.31 C35.32 -0.11, 42.6 3.62, 46.78 7.86 C50.95 12.09, 54.32 19.13, 54.76 25.09 C55.21 31.05, 53.04 39, 49.46 43.62 C45.88 48.24, 39.14 51.52, 33.29 52.82 C27.45 54.11, 19.54 53.69, 14.39 51.39 C9.24 49.09, 4.69 44.2, 2.38 39.02 C0.08 33.84, -1.07 25.94, 0.56 20.29 C2.19 14.65, 6.89 8.62, 12.17 5.15 C17.45 1.68, 28.87 0.16, 32.26 -0.54 C35.66 -1.24, 32.81 0.29, 32.56 0.92 M22.04 -0.9 C27.5 -2.09, 34.87 0.53, 39.88 3.4 C44.88 6.27, 50.13 11.16, 52.08 16.34 C54.03 21.51, 53.62 29, 51.56 34.44 C49.5 39.87, 44.55 45.84, 39.74 48.94 C34.93 52.05, 28.29 53.91, 22.71 53.07 C17.12 52.24, 10.05 48.35, 6.23 43.93 C2.41 39.52, 0.07 32.1, -0.2 26.59 C-0.47 21.08, 1.23 15, 4.61 10.89 C7.98 6.77, 17.26 3.43, 20.03 1.91 C22.81 0.4, 20.85 1.36, 21.28 1.81" stroke="#000000" stroke-width="1" fill="none"></path></g><g stroke-linecap="round"><g transform="translate(630.3339207090069 523.8351755626047) rotate(0 -93.06196484943851 34.164026580853374)"><path d="M0.24 -0.24 C-30.52 11.22, -154.3 56.71, -185.25 68.21 M-1.09 -1.41 C-31.97 10.31, -155.46 58.4, -186.37 69.74" stroke="#000000" stroke-width="1" fill="none"></path></g></g><mask></mask><g stroke-linecap="round"><g transform="translate(854.2468157014566 408.1139903679658) rotate(0 -1.6857671393360079 89.95295140661295)"><path d="M-0.32 0 C-1 30.2, -3.3 150.71, -3.86 180.95 M1.72 -1.04 C0.81 28.82, -4.03 148.99, -5.09 179.1" stroke="#000000" stroke-width="1" fill="none"></path></g></g><mask></mask><g stroke-linecap="round" transform="translate(825.2040642798631 590.4601186460052) rotate(0 27 27)"><path d="M6.26 9.42 C6.26 9.42, 6.26 9.42, 6.26 9.42 M6.26 9.42 C6.26 9.42, 6.26 9.42, 6.26 9.42 M1 21.11 C5.13 16.46, 11.95 12.1, 13.81 6.9 M-0.19 21.38 C6.03 16.08, 9.5 11.65, 14.34 5.39 M1.91 27.12 C10.25 18.8, 17.66 7.21, 24 0.66 M1.03 26.97 C5.87 20.21, 12.89 13.91, 22.95 2.4 M2.53 31.74 C8.74 21.1, 17.26 15.46, 27.87 3.95 M3.16 32.53 C8.05 25.65, 15.01 18.17, 29.07 1.84 M5.95 33.94 C15.26 24.04, 28.45 10.47, 32.91 2.49 M3.62 35.29 C11.54 27.96, 19.03 19.62, 32.71 2 M5.13 40.7 C17.47 27.21, 32.36 9.74, 37.2 5.11 M7.15 40.22 C19.31 26.42, 31.26 11.34, 37.44 3.93 M6.08 43.09 C17.31 31.12, 30.43 17.46, 41.08 6.26 M8.7 43.74 C17.93 32.68, 29.06 21.12, 42.95 4.56 M11.57 47.27 C17.21 38.65, 26.19 31.82, 43.69 9.09 M10.12 47.41 C23.56 32.71, 36.44 17.74, 45.34 7.5 M14.31 48.9 C24.13 36.98, 36.79 25.38, 47.9 10.52 M15.07 47.95 C26.44 36.01, 36.2 23.63, 47.03 10.66 M16.66 52.12 C27.43 38.57, 37.85 28.53, 50.93 14.51 M17.66 50.94 C25.95 41.21, 34.52 31.75, 49.08 15.3 M22.4 52.39 C30.35 45.15, 38.62 35.91, 53.32 17.69 M22.02 53.26 C29.45 43.76, 35.44 35.63, 53.12 18.22 M25.9 55.08 C32.42 44.61, 42.19 35.48, 52.81 22.89 M24.3 56.36 C30.79 46.36, 39.02 38.34, 55 21 M32.39 52.96 C40.17 43.96, 48.11 34.97, 56.73 25.42 M30.85 55.41 C37.44 48.2, 42.86 39.53, 54.06 26.93 M35.35 53.86 C44.89 47.23, 48 40.35, 53.05 32.69 M36.36 53.61 C41.68 49.15, 45.79 43.88, 54.01 32.25" stroke="#40c057" stroke-width="0.5" fill="none"></path><path d="M23.39 1.16 C28.57 -0.1, 35.9 0.67, 40.61 3.53 C45.33 6.4, 49.74 12.65, 51.67 18.34 C53.6 24.03, 54.21 32.18, 52.19 37.67 C50.17 43.16, 44.59 48.56, 39.58 51.27 C34.57 53.99, 27.65 55.34, 22.15 53.96 C16.65 52.59, 10.42 47.65, 6.59 43 C2.75 38.35, -0.82 31.65, -0.88 26.06 C-0.94 20.47, 1.65 13.91, 6.21 9.47 C10.78 5.04, 22.53 0.84, 26.48 -0.54 C30.44 -1.92, 30.01 0.64, 29.92 1.2 M27.68 -0.94 C32.93 -0.99, 39.9 2.43, 44.18 6.49 C48.47 10.55, 52.63 17.66, 53.4 23.41 C54.17 29.15, 51.98 36.23, 48.81 40.94 C45.63 45.65, 39.99 49.77, 34.34 51.67 C28.7 53.56, 20.45 54.2, 14.95 52.3 C9.45 50.4, 3.75 45.46, 1.34 40.29 C-1.08 35.12, -1.25 26.9, 0.46 21.3 C2.17 15.69, 6.77 10.36, 11.6 6.64 C16.44 2.93, 26.66 0.05, 29.48 -0.98 C32.3 -2, 28.47 -0.05, 28.52 0.47" stroke="#000000" stroke-width="1" fill="none"></path></g><g stroke-linecap="round" transform="translate(1285.1366039624038 835.7378964237832) rotate(0 27 27)"><path d="M10.22 4.91 C10.22 4.91, 10.22 4.91, 10.22 4.91 M10.22 4.91 C10.22 4.91, 10.22 4.91, 10.22 4.91 M0.56 21.78 C6.24 18.77, 6.54 15.35, 17.46 3.55 M1.57 21.44 C7.08 14.94, 12.91 7.37, 17.91 3.3 M2.02 28.58 C10.01 16.25, 19.63 5.67, 23.77 0.87 M0.41 26.8 C10.82 16.75, 18.53 7.7, 24.75 0.87 M0.7 30.81 C12.25 21.74, 22.78 9.9, 27.62 1.61 M1.68 32.81 C8.41 25.26, 13.98 18.89, 30.1 0.98 M1.68 39.72 C14.3 26.79, 24.21 12.55, 32.32 2.96 M2.63 38.54 C14.93 25.2, 25.23 11.18, 34.37 2.64 M3.87 43.24 C19.39 25.16, 30.18 13.35, 39.08 2.89 M5.23 42.4 C14.51 29.91, 24.69 18.17, 37.37 5.27 M6.59 43.6 C16.19 34.55, 21.74 29.13, 40.68 4.71 M7.62 44.44 C20.43 30.73, 32.52 16.38, 39.85 6.84 M10.58 46.56 C22.78 35.78, 30.54 24.03, 46.62 7.08 M11 47.28 C23.46 32.93, 35.77 18.7, 45.48 6.61 M13.11 49.3 C24.16 39.58, 34 26.58, 47.61 11.15 M15.51 48.56 C24.07 37.59, 34.38 25.27, 47.16 11.9 M17.11 50.69 C27.29 41, 39.72 27.52, 48.5 13.05 M17.29 50.95 C28.28 38.79, 39.1 26.91, 48.87 15.18 M23.55 53.08 C31.61 43.99, 39.99 32.97, 49.57 19.24 M23.63 50.59 C31.04 40.5, 41.06 31.83, 50.71 19.18 M26.67 51.43 C36.59 41.92, 42.7 34.38, 52.2 22.8 M26.07 51.82 C33.99 44, 41.7 36.19, 53.45 21.76 M33.6 51.32 C40.38 43.58, 47.15 36.42, 54.66 27.28 M32.88 53.91 C40.99 41.88, 48.76 32.81, 56.23 25.44 M38.23 55.02 C41.45 48.13, 48.08 38.6, 52.66 33.52 M36.77 54.76 C41.44 48.92, 46.45 41.08, 53.84 34.87" stroke="#40c057" stroke-width="0.5" fill="none"></path><path d="M27.71 -0.33 C32.97 -0.59, 39.93 2.98, 44.27 7.08 C48.61 11.19, 52.9 18.46, 53.76 24.29 C54.61 30.11, 52.41 37.21, 49.38 42.03 C46.35 46.85, 40.93 51.68, 35.6 53.18 C30.27 54.69, 22.95 53.38, 17.39 51.05 C11.83 48.71, 5.1 44.09, 2.22 39.17 C-0.65 34.25, -1.14 27.19, 0.17 21.51 C1.47 15.84, 4.68 8.51, 10.05 5.11 C15.42 1.71, 27.85 1.46, 32.36 1.12 C36.88 0.78, 37.07 2.69, 37.15 3.07 M19.8 -0.39 C25.21 -1.84, 33.89 -0.23, 39.15 2.46 C44.4 5.15, 49.13 10.47, 51.35 15.73 C53.58 20.98, 54.35 28.21, 52.5 33.99 C50.64 39.78, 45.32 46.91, 40.22 50.43 C35.12 53.95, 27.48 55.86, 21.9 55.1 C16.31 54.33, 10.24 50.13, 6.69 45.85 C3.14 41.58, 0.64 35.53, 0.59 29.46 C0.54 23.39, 2.96 14.25, 6.37 9.43 C9.79 4.6, 18.38 1.97, 21.08 0.49 C23.77 -1, 22.62 0.11, 22.57 0.53" stroke="#000000" stroke-width="1" fill="none"></path></g><g transform="translate(1306.1863877595576 850.6460133317464) rotate(0 5.858333110809326 12)"><text x="5.858333110809326" y="0" font-family="Cascadia, Segoe UI Emoji" font-size="20px" fill="#1971c2" text-anchor="middle" style="white-space: pre;" direction="ltr" dominant-baseline="text-before-edge">*</text></g><g stroke-linecap="round" transform="translate(1060.1366039624038 832.2378964237832) rotate(0 27 27)"><path d="M4.08 11.5 C4.08 11.5, 4.08 11.5, 4.08 11.5 M4.08 11.5 C4.08 11.5, 4.08 11.5, 4.08 11.5 M3.75 21.11 C4.64 17.06, 10.43 11.19, 19.4 0.17 M1.58 20.51 C4.84 15.8, 10.4 11.36, 18.41 2.43 M0.21 27.11 C6.63 19.99, 10.96 14.9, 22.82 3.69 M0.98 27.43 C5.16 22.81, 10.81 16.79, 22.19 3.76 M1.42 33.67 C9.04 25.63, 15.51 15.49, 24.43 4.88 M2.65 31.75 C12.22 20.86, 22.03 9.86, 26.89 4.97 M4.45 37.65 C9.07 29.43, 14.2 23.26, 32.71 2.76 M4.17 36.57 C9.92 27.64, 18.52 20.26, 32.22 4.07 M7.48 38.27 C16.64 28.28, 30.08 12.71, 38.53 4.49 M5.73 40 C16.33 27.37, 27.58 15.64, 37.4 1.79 M8.4 42.47 C15.32 35.85, 24.49 23.23, 41.86 7.57 M8.5 44.2 C17.64 33.28, 24.71 23.82, 40.56 6.4 M11.14 48.92 C20.08 35.94, 33.61 21.68, 44.48 6.99 M9.81 48.01 C23.16 32.39, 35.4 17.53, 43.41 8.56 M14.13 50.63 C25.64 35.92, 35.77 24.51, 46.71 12.16 M13.51 49.24 C21.65 39.07, 29.69 31.16, 46.79 10.85 M16.83 52.49 C30.54 37.74, 39.29 23.37, 50.44 13.94 M17.29 50.87 C26.49 41.11, 35.21 30.66, 49.52 14.51 M22.71 53.85 C30.89 42.66, 36.54 33.35, 52.24 18.68 M21.53 51.27 C32.19 41.79, 40.85 29.95, 52.35 18.12 M27.11 52.55 C31.76 46.9, 39.75 36.87, 52.45 22.09 M25.97 52.9 C36.89 41.98, 46.63 29.69, 52.91 23.11 M34.24 50.25 C38.71 45.69, 40.64 42.89, 54.92 28.23 M32.62 51.3 C39.56 42.76, 49.27 32.54, 54.32 27.41 M37.11 52.52 C41.1 45.78, 46.15 40.3, 53.49 34.37 M38.44 51.81 C41.6 45.92, 46.34 42.85, 53.47 33.99" stroke="#40c057" stroke-width="0.5" fill="none"></path><path d="M37.1 2.41 C42.32 4.54, 48.66 10.8, 51.27 16.1 C53.87 21.39, 54.08 28.62, 52.74 34.16 C51.4 39.69, 47.74 46.17, 43.23 49.31 C38.73 52.45, 31.71 53.54, 25.73 52.99 C19.75 52.44, 11.7 49.84, 7.36 46.01 C3.03 42.19, 0.23 35.84, -0.3 30.06 C-0.83 24.29, 1.05 16.14, 4.2 11.36 C7.35 6.59, 12.33 2.46, 18.59 1.42 C24.85 0.38, 37.1 3.86, 41.76 5.14 C46.43 6.42, 46.76 8.85, 46.59 9.08 M17.73 0.83 C22.95 -1.3, 30.55 -1.25, 36 0.72 C41.44 2.68, 47.66 7.29, 50.38 12.62 C53.1 17.95, 53.63 26.59, 52.33 32.7 C51.03 38.81, 46.92 45.63, 42.57 49.3 C38.23 52.97, 31.7 54.79, 26.25 54.71 C20.81 54.63, 14.09 52.9, 9.89 48.82 C5.69 44.74, 2.1 36.2, 1.05 30.23 C0.01 24.26, 0.58 17.89, 3.63 13 C6.67 8.11, 17.07 2.75, 19.34 0.88 C21.61 -1, 17.42 1.24, 17.26 1.75" stroke="#000000" stroke-width="1" fill="none"></path></g><g stroke-linecap="round"><g transform="translate(1170.1366039624038 731.2378964237832) rotate(0 -34.79595714664089 51.13120937976987)"><path d="M1 -0.41 C-10.58 16.63, -57.77 85.55, -69.43 102.95 M0.07 -1.68 C-11.72 15.43, -58.98 86.11, -70.6 103.94" stroke="#000000" stroke-width="1" fill="none"></path></g></g><mask></mask><g stroke-linecap="round"><g transform="translate(1208.1366039624038 730.2378964237832) rotate(0 50.83268377147613 53.24835680892693)"><path d="M-0.43 -1.05 C16.42 16.69, 84.83 88.26, 102.09 106 M1.55 1.02 C18.16 18.99, 84.29 89.97, 101.19 107.55" stroke="#000000" stroke-width="1" fill="none"></path></g></g><mask></mask><g stroke-linecap="round" transform="translate(1407.6366039624038 986.9878964237832) rotate(0 27 27)"><path d="M5.22 11.16 C5.22 11.16, 5.22 11.16, 5.22 11.16 M5.22 11.16 C5.22 11.16, 5.22 11.16, 5.22 11.16 M3.48 19.45 C7.73 14.78, 14.84 4.57, 20.75 -1.48 M2.49 21.72 C7.11 15.07, 13.6 7.97, 19.57 0.48 M1.65 29.01 C4.73 21.28, 9.88 17.84, 21.8 1.82 M1.02 29.08 C8.36 18.94, 15.7 10, 23.8 2.54 M-0.01 33.98 C14.01 20.57, 23.2 11.28, 27.15 4.44 M2.44 34.07 C7.53 25.06, 16.21 17.94, 28.71 2.93 M4.98 35.63 C11.33 27.62, 21.83 18.7, 32.85 2.86 M4.49 36.94 C10.67 28.82, 18.23 21.97, 31.66 4.02 M5.56 43.4 C17.47 28.63, 30.73 13.74, 37.95 4.03 M4.42 40.7 C15.13 28.63, 25.85 17.61, 36.68 4.16 M8.23 47.24 C19.35 30.36, 33.71 17.65, 42.41 7.49 M6.92 46.07 C17.27 34.27, 26.55 24.23, 42.17 5.39 M11.5 45.9 C23.63 34.08, 35.14 21.22, 44.79 10.18 M10.43 47.47 C18.61 37.98, 26.76 29.79, 45.49 8.95 M14.39 50.32 C21.29 41.66, 30.78 29.87, 48.02 11.46 M14.47 49 C21.71 40.97, 28.05 32.82, 48.5 11.9 M18.78 51.33 C26.83 40.32, 35.97 30.25, 50.57 13.45 M17.85 51.91 C28.84 39, 41.01 26.28, 51.64 14.21 M22.54 53.82 C32.69 43.21, 39.99 29.66, 52.16 18.12 M22.65 53.26 C33.66 38.97, 44.9 26.32, 53.45 15.4 M24.72 54.96 C38.15 40.24, 46.28 28.92, 52.94 23.56 M25.18 55.98 C33.15 46.14, 41.74 36.27, 52.62 23.56 M33.09 54.31 C38.81 49.5, 44.04 42.09, 51.77 27.29 M32.5 53.49 C38.61 46.63, 46.46 36.5, 54.07 28.25 M38.23 52.9 C41.3 48.78, 47.88 42.38, 54.83 34.11 M38.2 52.52 C40.87 48.61, 45.5 44.25, 52.43 35.02" stroke="#40c057" stroke-width="0.5" fill="none"></path><path d="M39.57 3.39 C44.81 5.31, 50.38 10.29, 52.44 15.46 C54.5 20.63, 53.81 28.7, 51.95 34.43 C50.09 40.17, 46.07 46.71, 41.3 49.85 C36.53 52.99, 29.18 53.93, 23.35 53.26 C17.52 52.59, 10.37 49.94, 6.32 45.82 C2.28 41.7, -0.81 34.37, -0.94 28.54 C-1.07 22.7, 1.97 15.56, 5.54 10.8 C9.1 6.04, 14.4 1.12, 20.45 -0.02 C26.51 -1.17, 37.87 2.68, 41.88 3.93 C45.89 5.18, 44.73 7.02, 44.51 7.48 M16.47 2.26 C21.3 0.46, 29.08 0.96, 34.67 2.93 C40.26 4.9, 46.75 9.09, 50 14.1 C53.26 19.11, 54.99 27.57, 54.18 32.98 C53.38 38.39, 49.71 43.09, 45.17 46.57 C40.62 50.05, 32.63 53.78, 26.92 53.87 C21.21 53.97, 15.51 50.88, 10.91 47.16 C6.31 43.44, 0.68 37.18, -0.66 31.57 C-2 25.97, -0.01 18.72, 2.85 13.52 C5.71 8.33, 14.03 2.34, 16.5 0.42 C18.97 -1.5, 17.28 1.44, 17.68 2.01" stroke="#000000" stroke-width="1" fill="none"></path></g><g stroke-linecap="round" transform="translate(1182.6366039624038 983.4878964237832) rotate(0 27 27)"><path d="M3.04 13.24 C3.04 13.24, 3.04 13.24, 3.04 13.24 M3.04 13.24 C3.04 13.24, 3.04 13.24, 3.04 13.24 M1.17 21.97 C6.24 14.07, 12.95 7.01, 18.15 3.75 M1.93 20.82 C7.68 14.34, 11.85 8.7, 17.28 1.77 M0.15 26.01 C6.83 20.62, 14.27 9.84, 24.64 1.8 M1.25 26.78 C8.03 18.26, 17.42 9.21, 24.39 1.13 M3.39 32.11 C10.95 24.94, 17.5 15.36, 27.78 4.2 M0.68 32.72 C9.01 25.6, 15.59 17.18, 28.46 1.68 M2.35 37.34 C13.86 27.26, 23.17 13.55, 33.03 3.69 M3.71 36.76 C13.31 27.34, 21.12 15.49, 34.86 2.82 M6.31 41.19 C14.84 31.39, 20.76 23.01, 38.98 3.46 M5.19 39.99 C18.28 26.91, 30.35 11.66, 39.2 2.9 M6.78 44.08 C15.38 37.44, 22.8 29.07, 41.04 3.69 M7.68 44.61 C19.33 31.75, 31.87 16.72, 41.95 6.33 M11.24 48.18 C20.57 37.92, 29.25 27.72, 43.17 8.9 M9.92 47.42 C17.77 39.72, 25.73 31.38, 43.99 8.6 M12.25 51.72 C22.94 38.4, 32.73 28.45, 45.75 11.49 M13.9 49.78 C24.46 36.86, 36.83 24.99, 47.32 10.49 M17.32 50.36 C23.88 43.1, 30.86 35.52, 51.3 12.79 M17.43 51.63 C29.16 39.27, 39.88 27.18, 50.62 12.79 M22.56 54.17 C29.23 41.11, 38.59 33.05, 52.95 17.94 M21.79 52.13 C30.49 42.05, 39.92 30.17, 52.57 17.81 M27.19 52.26 C32.72 44.06, 42.31 35.47, 52.79 23.6 M24.98 54.97 C31.13 47.73, 37.26 40.6, 52.07 22.75 M31.26 57.78 C40.06 45.98, 45.8 33.44, 54.42 29.32 M29.3 56.99 C35.94 48.09, 42.61 40.82, 53.56 27.76 M36.7 53.49 C43.38 46.93, 48.39 41.03, 53.96 33.13 M37.29 52.43 C44.39 45.23, 48.99 38.53, 55.96 33.09" stroke="#40c057" stroke-width="0.5" fill="none"></path><path d="M35.98 0.39 C41.1 1.61, 46.14 7.2, 49.03 12.3 C51.91 17.41, 54.02 25.31, 53.29 31.02 C52.55 36.72, 49.02 42.65, 44.63 46.54 C40.24 50.43, 32.83 54.06, 26.95 54.35 C21.07 54.65, 13.75 51.96, 9.38 48.33 C5 44.71, 1.82 38.39, 0.71 32.59 C-0.39 26.8, 0.16 18.85, 2.75 13.57 C5.34 8.3, 10.43 2.86, 16.25 0.97 C22.07 -0.93, 33.64 1.69, 37.67 2.2 C41.7 2.71, 40.62 3.6, 40.43 4.03 M14.6 3.67 C19.63 1.14, 28.26 0.15, 34.16 1.77 C40.05 3.38, 46.57 8.83, 49.97 13.34 C53.37 17.85, 55.3 23.32, 54.56 28.82 C53.82 34.32, 49.61 42.23, 45.52 46.32 C41.43 50.4, 35.94 52.95, 30.02 53.33 C24.1 53.71, 15 51.9, 10.01 48.58 C5.02 45.27, 1.49 39.2, 0.09 33.42 C-1.31 27.63, -1.03 19.09, 1.6 13.88 C4.24 8.67, 13.4 4.06, 15.9 2.15 C18.39 0.25, 16.28 1.8, 16.58 2.46" stroke="#000000" stroke-width="1" fill="none"></path></g><g stroke-linecap="round"><g transform="translate(1292.6366039624038 882.4878964237832) rotate(0 -34.16393656527623 52.16863584881639)"><path d="M0.76 0.43 C-10.84 17.98, -56.62 87.64, -68.43 104.73 M-0.31 -0.39 C-12.11 16.86, -57.83 85.64, -69.08 102.99" stroke="#000000" stroke-width="1" fill="none"></path></g></g><mask></mask><g stroke-linecap="round"><g transform="translate(1330.6366039624038 881.4878964237832) rotate(0 51.193952258191985 52.989455186165856)"><path d="M0.57 0.73 C17.25 18.14, 84.04 87.48, 100.87 104.94 M-0.6 0.06 C16.38 17.55, 86.14 88.18, 102.98 105.92" stroke="#000000" stroke-width="1" fill="none"></path></g></g><mask></mask><g stroke-linecap="round" transform="translate(962.1366039624033 985.9878964237832) rotate(0 27 27)"><path d="M5.3 9.9 C5.3 9.9, 5.3 9.9, 5.3 9.9 M5.3 9.9 C5.3 9.9, 5.3 9.9, 5.3 9.9 M2.04 21.54 C6.38 17.1, 10.69 10.36, 17.69 3.78 M1.17 19.57 C6.57 15.66, 10.67 9.21, 16.08 2 M1.32 27.89 C9.9 20.15, 17.04 8.63, 21.62 -0.03 M1.06 27.23 C6.3 19.95, 12.78 14.58, 22.6 1.97 M1.17 34.07 C10.43 22.42, 22.17 8.55, 26.53 4.35 M1.86 31.55 C10.52 22.97, 18.04 11.83, 27.49 3.17 M2.48 38.09 C13.46 27.11, 22.02 14.67, 30.69 5.61 M4.32 37.22 C13.52 24.45, 25.65 12.56, 32.05 4.77 M5.82 40.87 C15.28 29.17, 20.18 20.13, 35.38 3.7 M6.04 40.32 C15.2 29.17, 27.19 16.2, 36.42 4.55 M5.9 43.37 C20.24 30.02, 32.76 15.72, 40.68 5.16 M6.82 46.01 C19.33 30.5, 31.98 15.46, 41.1 5.87 M8.69 47.83 C19.56 33.62, 32.03 21.47, 41.9 9.41 M9.51 47.52 C20.11 34.84, 31.3 22.03, 44.31 8.66 M11.93 49.66 C23.2 39.09, 30.4 29.46, 45.9 10.8 M13.5 48.66 C21.25 39.03, 30.95 28.31, 46.09 11.05 M18.13 50.21 C26.75 40.5, 36.2 29.87, 49.72 16.2 M17.45 50.21 C28.01 38.33, 39.46 25.93, 49.8 13.71 M23.06 51.59 C30.41 42.98, 39.95 32.24, 51.53 16.06 M22.69 51.46 C32.51 39.87, 42.77 28.79, 50.93 16.46 M24.87 54.98 C31.23 45.26, 42.15 34.99, 53.86 21.23 M24.15 54.13 C36.48 42.75, 46.68 30.56, 53.14 23.83 M31.75 54.67 C37.3 47.52, 44.01 37.58, 54.55 29.46 M30.89 53.1 C35.07 48.37, 40.33 42.27, 53.1 29.2 M35.88 53.19 C42.16 48.12, 45.07 41.83, 52.66 35.79 M37.88 53.15 C41.17 47.48, 45.64 44.08, 53.17 33.82" stroke="#40c057" stroke-width="0.5" fill="none"></path><path d="M21.06 0.03 C26.28 -1.41, 33.78 0.73, 38.79 3.57 C43.79 6.41, 48.75 11.73, 51.09 17.04 C53.42 22.35, 54.5 30.07, 52.78 35.43 C51.07 40.79, 45.86 46.33, 40.81 49.22 C35.76 52.1, 28.26 53.49, 22.49 52.74 C16.73 51.98, 10.03 48.93, 6.21 44.71 C2.39 40.49, -0.23 33.19, -0.42 27.43 C-0.61 21.67, 1.38 14.81, 5.07 10.17 C8.76 5.53, 18.55 1.31, 21.73 -0.42 C24.9 -2.15, 23.76 -0.76, 24.12 -0.22 M34.05 -0.28 C39.34 0.42, 45 6.12, 48.51 10.84 C52.03 15.57, 55.62 22.32, 55.11 28.08 C54.61 33.83, 49.77 41.09, 45.47 45.37 C41.17 49.65, 35.08 53.26, 29.32 53.74 C23.56 54.22, 15.65 51.46, 10.93 48.24 C6.2 45.03, 2.35 39.87, 0.95 34.47 C-0.44 29.07, 0.13 20.9, 2.57 15.85 C5 10.8, 10.55 6.69, 15.54 4.15 C20.54 1.62, 29.65 1.3, 32.54 0.66 C35.42 0.01, 32.81 -0.03, 32.87 0.27" stroke="#000000" stroke-width="1" fill="none"></path></g><g stroke-linecap="round"><g transform="translate(1072.1366039624033 884.987896423783) rotate(0 -34.038786429204094 52.12386087855316)"><path d="M-0.5 -0.54 C-11.76 16.89, -57.2 86.28, -68.72 103.51 M1.45 1.8 C-9.85 19.48, -57.49 87.82, -69.52 104.78" stroke="#000000" stroke-width="1" fill="none"></path></g></g><mask></mask><g transform="translate(10 1007.1537061172355) rotate(0 52.75 21.600000000000023)"><text x="0" y="0" font-family="Cascadia, Segoe UI Emoji" font-size="36px" fill="#1971c2" text-anchor="start" style="white-space: pre;" direction="ltr" dominant-baseline="text-before-edge">Input</text></g><g transform="translate(658.0507889481662 350.00362998787045) rotate(0 63.29999923706055 21.600000000000023)"><text x="0" y="0" font-family="Cascadia, Segoe UI Emoji" font-size="36px" fill="#1971c2" text-anchor="start" style="white-space: pre;" direction="ltr" dominant-baseline="text-before-edge">Output</text></g><g stroke-linecap="round" transform="translate(135.48773189143844 973.251229392305) rotate(0 682.1202433734077 50.184560762472074)"><path d="M25.09 0 M25.09 0 C401.22 -2.38, 776.74 -2.52, 1339.15 0 M25.09 0 C448.1 -1.12, 872.13 -0.86, 1339.15 0 M1339.15 0 C1357.02 0.46, 1363.65 9.96, 1364.24 25.09 M1339.15 0 C1356.38 -0.19, 1362.43 10.09, 1364.24 25.09 M1364.24 25.09 C1363.57 40.2, 1363.66 55.45, 1364.24 75.28 M1364.24 25.09 C1364.47 44.7, 1364.71 63.51, 1364.24 75.28 M1364.24 75.28 C1363.77 92.86, 1356.52 98.84, 1339.15 100.37 M1364.24 75.28 C1365.46 91.29, 1356.07 99.98, 1339.15 100.37 M1339.15 100.37 C959.61 98.06, 578.86 96.65, 25.09 100.37 M1339.15 100.37 C978.45 104.31, 617.35 104.21, 25.09 100.37 M25.09 100.37 C8.94 101.02, -1.68 91.18, 0 75.28 M25.09 100.37 C9.57 102.28, 0.63 94.09, 0 75.28 M0 75.28 C1.2 65.1, -0.74 51.92, 0 25.09 M0 75.28 C1.04 61.07, 0.9 46.94, 0 25.09 M0 25.09 C1.09 7.7, 7.57 -1.57, 25.09 0 M0 25.09 C-2.06 9.08, 7.75 -1.16, 25.09 0" stroke="#1971c2" stroke-width="1" fill="none"></path></g><g stroke-linecap="round" transform="translate(802.9911129068446 328.16037065916817) rotate(0 58.95467817727308 56.031305705672764)"><path d="M28.02 0 M28.02 0 C45.5 -0.51, 62.03 -0.1, 89.89 0 M28.02 0 C45.06 0.54, 62.12 -0.33, 89.89 0 M89.89 0 C107.05 -1.83, 117.58 11.07, 117.91 28.02 M89.89 0 C109.23 -0.05, 116.32 11.24, 117.91 28.02 M117.91 28.02 C118.05 47.24, 116.48 64.23, 117.91 84.05 M117.91 28.02 C118.62 39.91, 117.65 54.31, 117.91 84.05 M117.91 84.05 C119.34 103.18, 109.35 112.38, 89.89 112.06 M117.91 84.05 C119.69 104.76, 109.77 111.71, 89.89 112.06 M89.89 112.06 C66.93 110.86, 47.52 110.52, 28.02 112.06 M89.89 112.06 C67.35 112.51, 43.67 113.24, 28.02 112.06 M28.02 112.06 C8.37 112.48, 0.97 103.05, 0 84.05 M28.02 112.06 C7.87 112.85, -1.49 103.05, 0 84.05 M0 84.05 C2.01 64.26, -1.78 41.73, 0 28.02 M0 84.05 C-0.43 65.82, 0.12 47.7, 0 28.02 M0 28.02 C-0.95 8.54, 8.48 -0.02, 28.02 0 M0 28.02 C1.42 11.58, 9.36 -0.46, 28.02 0" stroke="#1971c2" stroke-width="1" fill="none"></path></g><g stroke-linecap="round" transform="translate(1169.0550473007154 39.253050648873) rotate(0 27 27)"><path d="M2.17 16.46 C2.17 16.46, 2.17 16.46, 2.17 16.46 M2.17 16.46 C2.17 16.46, 2.17 16.46, 2.17 16.46 M2.5 24.84 C6.3 18.32, 11.38 12.93, 15.75 5.81 M1.29 23.82 C4.44 18.79, 8.71 14.91, 17.36 4.95 M1.5 29.95 C7.31 22.16, 17.28 11.79, 23.6 5.56 M1.6 30.41 C8.91 19.61, 18.82 9.38, 23.7 3.68 M1.29 34.79 C9.53 26.16, 18.56 17.17, 28.66 2.57 M2.13 34.89 C10.39 24.81, 21.24 14.12, 29.9 4.06 M4.24 37.98 C12.69 28.35, 18.77 19.51, 36.89 0.92 M3.59 38.8 C12.27 30.26, 20.48 20.33, 34.29 2.02 M6.63 40.1 C20.05 27.61, 31.54 15.81, 36.71 4.99 M7.6 42.22 C15.24 32.32, 22.98 23.96, 37.35 5.24 M10.24 45.73 C20.61 31.27, 34.79 15.86, 39.95 7.65 M9.22 44.45 C17.11 35.19, 25.35 26.32, 42.41 7.04 M10.23 47.25 C18.38 37.49, 29.92 27.72, 43.8 9.21 M10.6 47.47 C23.33 34.94, 34.58 22.76, 46.51 9.97 M14.88 51.96 C28.15 35.84, 39.57 19.77, 48.52 9.92 M13.56 51.7 C22.4 42.75, 29.79 33.74, 49.9 11.93 M17.34 53.31 C28.8 41.34, 37.03 32.25, 48.55 14.3 M19.27 52.9 C30.72 38.43, 42.09 24.3, 50.07 15.21 M24.16 53.82 C29.01 45.49, 34.37 38.08, 53.53 19.9 M23.52 53.75 C32.56 44.41, 40.1 32.48, 52.54 20.86 M26.94 55.79 C35.67 46.85, 41.55 39.97, 52.21 25.94 M28.29 54.21 C35.64 44.14, 44.84 35.99, 53.63 24.02 M31.53 55.42 C39.04 46.74, 48.08 36.12, 56.1 27.58 M31.7 56.29 C40.3 45.71, 46.89 37.63, 54.01 29.84 M38.85 52.6 C43.19 48.83, 45.67 45.74, 49.87 41.88 M40.24 51.85 C42.84 49.64, 44.94 45.28, 49.87 42.02" stroke="#40c057" stroke-width="0.5" fill="none"></path><path d="M32.85 1.11 C38.43 2.08, 45.49 6.44, 48.97 10.97 C52.44 15.5, 54.24 22.37, 53.7 28.3 C53.16 34.23, 49.74 42.29, 45.71 46.54 C41.69 50.79, 35.14 53.41, 29.55 53.8 C23.97 54.19, 17.03 52.11, 12.21 48.9 C7.39 45.69, 2.35 39.9, 0.65 34.52 C-1.04 29.14, -0.27 21.95, 2.04 16.61 C4.34 11.27, 8.81 4.93, 14.48 2.47 C20.15 0, 32.27 1.65, 36.05 1.82 C39.84 1.99, 37.45 3.13, 37.21 3.47 M32.77 1.79 C38.33 2.83, 45.65 6.37, 49.21 11.09 C52.76 15.82, 54.64 24.23, 54.11 30.11 C53.58 35.99, 49.95 42.59, 46.02 46.35 C42.1 50.11, 36.28 52.37, 30.54 52.68 C24.79 52.99, 16.61 51.55, 11.53 48.21 C6.45 44.87, 1.41 38.27, 0.05 32.67 C-1.31 27.06, 0.51 19.41, 3.38 14.57 C6.25 9.74, 12.11 5.91, 17.3 3.63 C22.49 1.36, 31.92 1.1, 34.5 0.94 C37.09 0.77, 32.95 2.13, 32.82 2.64" stroke="#000000" stroke-width="1" fill="none"></path></g><g transform="translate(1190.1048310978692 54.16116755683606) rotate(0 5.858333110809326 12)"><text x="5.858333110809326" y="0" font-family="Cascadia, Segoe UI Emoji" font-size="20px" fill="#1971c2" text-anchor="middle" style="white-space: pre;" direction="ltr" dominant-baseline="text-before-edge">+</text></g><g stroke-linecap="round" transform="translate(966.0550473007152 181.50305064887232) rotate(0 27 27)"><path d="M7.31 9 C7.31 9, 7.31 9, 7.31 9 M7.31 9 C7.31 9, 7.31 9, 7.31 9 M1.25 22.65 C5.99 18.23, 12.48 12.64, 16.74 4.54 M1.27 22.06 C6.78 15.71, 12.33 9.25, 17.56 3.28 M1.88 28.55 C8.08 18.65, 15.37 11.37, 25.7 1.41 M2.65 27.53 C8.65 21.09, 12.62 15.27, 25.32 -0.17 M1.4 31.84 C12.53 21.35, 17.54 12.6, 31.08 -0.6 M3.6 31.88 C11.81 20.03, 22.93 10.78, 31.03 0.96 M6.62 37.46 C9.51 28.32, 16.54 22.78, 32.11 4.57 M5.47 36.49 C14.09 24.2, 25.92 12.94, 33.67 3.45 M6.62 40.74 C13.96 29.98, 26.32 16.26, 38.18 4.2 M3.83 43.34 C13.49 32.98, 20.64 24.63, 37.97 3.38 M8.99 44.41 C14.63 35.66, 25.47 27.84, 43.29 3.33 M8.57 45.61 C15.41 37.81, 22.4 28.87, 41.64 5.31 M10.55 45.27 C22.5 32.15, 33.69 19.78, 44.49 5.09 M11.45 46.99 C24.59 33.19, 36.53 18.37, 45.65 6.25 M14.92 50.18 C24.35 34.33, 39.75 21.76, 47.61 11.99 M13.52 49.4 C26.77 34.45, 38.83 21.34, 46.87 11.62 M15.69 51.87 C29.76 39.81, 39.09 29.43, 48.3 15.21 M17.09 51.38 C28.99 39.59, 39.26 24.78, 50.91 14.23 M22.15 54.52 C31.12 42.24, 44.37 28.92, 51.3 19.45 M21.41 55.37 C30.04 43.78, 39.28 33.32, 52.18 17.73 M25.08 54.56 C35.99 43.24, 44.06 36.31, 54.1 21.76 M25.16 55.14 C35.83 43.07, 46.75 29.88, 53.5 21.13 M33.26 52.28 C39.93 46.08, 46.44 36.29, 52.74 28.81 M30.92 53.1 C38.49 47.77, 43.12 40.15, 54.68 28.7 M36.48 54.55 C45.43 47.29, 51.17 41.05, 54.19 34.94 M38.98 53.63 C43.87 47.4, 47.93 40.99, 54.76 35.72" stroke="#40c057" stroke-width="0.5" fill="none"></path><path d="M24.79 -0.91 C30.23 -1.58, 38.5 1.39, 43.15 4.93 C47.8 8.47, 51.26 14.71, 52.69 20.33 C54.11 25.95, 54.11 33.29, 51.71 38.65 C49.32 44.02, 43.75 50.09, 38.3 52.52 C32.85 54.94, 24.7 54.99, 19.03 53.21 C13.36 51.42, 7.56 46.53, 4.3 41.82 C1.03 37.11, -1.12 30.48, -0.58 24.97 C-0.04 19.46, 2.66 12.89, 7.52 8.76 C12.39 4.63, 24.75 1.64, 28.61 0.17 C32.46 -1.3, 30.67 -0.52, 30.65 -0.07 M30.95 0.57 C36.14 1.1, 42.78 5.77, 46.62 9.75 C50.46 13.73, 53.63 18.76, 53.97 24.44 C54.31 30.13, 52.22 38.97, 48.66 43.87 C45.1 48.77, 38.5 52.77, 32.61 53.85 C26.72 54.94, 18.34 53.35, 13.3 50.37 C8.25 47.4, 4.55 41.38, 2.34 35.99 C0.13 30.6, -1.68 23.55, 0.03 18.01 C1.74 12.47, 7.34 5.88, 12.6 2.75 C17.86 -0.39, 28.54 -0.68, 31.59 -0.79 C34.64 -0.9, 31.22 1.31, 30.9 2.08" stroke="#000000" stroke-width="1" fill="none"></path></g><g transform="translate(987.104831097869 196.4111675568355) rotate(0 5.858333110809326 12)"><text x="5.858333110809326" y="0" font-family="Cascadia, Segoe UI Emoji" font-size="20px" fill="#1971c2" text-anchor="middle" style="white-space: pre;" direction="ltr" dominant-baseline="text-before-edge">*</text></g><g stroke-linecap="round" transform="translate(1366.0550473007154 213.50305064887232) rotate(0 27 27)"><path d="M1.87 16.2 C1.87 16.2, 1.87 16.2, 1.87 16.2 M1.87 16.2 C1.87 16.2, 1.87 16.2, 1.87 16.2 M3.99 23.29 C5.37 18.46, 10.9 11.7, 14.89 7.55 M2.41 21.39 C5.13 18.54, 7.59 14.91, 16.29 5.84 M2.94 26.55 C9.51 21.14, 15.69 9.25, 22.62 5.77 M1.65 28.6 C8.31 20.07, 15.67 12.2, 22 3.92 M1.39 32.08 C10.79 23.64, 18.6 16.1, 30.6 4.42 M3.11 34.73 C11.19 25.25, 17.16 17.49, 28.49 4.53 M3.17 39.42 C14.01 26.72, 28.19 13.49, 34.09 3.58 M4.74 38.4 C14.72 26.62, 25.65 13.9, 34.9 3.51 M5.65 40.91 C13.52 33.86, 18.99 24.78, 37.82 3.45 M6.02 42.09 C18.21 26.93, 29.9 12.87, 37.48 5.81 M9.45 46.67 C18.64 33.01, 24.61 26.66, 40.96 8.77 M9.56 44.88 C19.07 31.56, 31.79 18.59, 41.34 6.62 M9.59 48.5 C16.82 38.22, 26.94 32.53, 45.09 9.79 M11.04 48.85 C20.49 35.56, 31.6 25.4, 44.32 9.92 M15.19 51.11 C25.06 39.57, 38.2 25.14, 48.47 9.76 M12.83 52.12 C22.34 41.16, 33.27 29.28, 48.07 10.67 M17.97 54.46 C24.73 42.98, 36.64 33.7, 51.96 15.02 M17.25 51.76 C25.24 44.23, 32.11 37.55, 49.83 16.52 M22.69 55.13 C29.24 45.8, 38.33 34.96, 49.33 22.49 M22.92 52.82 C31.72 42.27, 42.18 30.04, 51.55 20.05 M28.23 55.3 C34.61 45.09, 44.18 37.49, 51.73 22.84 M26.64 54 C36.03 42.24, 46.57 32.94, 52.26 25.46 M31.38 54.61 C34.95 50.03, 40.39 44.15, 56.16 27.22 M31.06 55.16 C36.6 50.03, 41.33 44.67, 55.35 28.05 M43.24 49.92 C45.61 45.38, 48.58 42.67, 50.53 40.89 M42.43 48.58 C45.85 45.98, 48.01 41.93, 49.9 40.06" stroke="#40c057" stroke-width="0.5" fill="none"></path><path d="M13.68 3.43 C18.31 0.53, 26.95 -0.66, 32.7 0.63 C38.45 1.92, 44.76 6.63, 48.17 11.17 C51.58 15.72, 53.41 22.35, 53.17 27.88 C52.93 33.41, 50.54 39.98, 46.73 44.36 C42.91 48.75, 36.02 53.09, 30.29 54.19 C24.57 55.29, 17.07 54.06, 12.39 50.99 C7.71 47.91, 3.97 41.51, 2.21 35.72 C0.45 29.93, -0.68 21.81, 1.84 16.23 C4.36 10.65, 14.36 4.5, 17.31 2.24 C20.26 -0.02, 19.49 2.23, 19.54 2.65 M29.9 -1.31 C35.51 -1.16, 42.8 4.17, 46.78 8.67 C50.76 13.17, 53.66 20.06, 53.8 25.68 C53.94 31.3, 50.98 38.03, 47.64 42.41 C44.3 46.79, 39.4 50.63, 33.77 51.96 C28.14 53.3, 19.08 53.03, 13.84 50.45 C8.6 47.86, 4.29 41.8, 2.33 36.47 C0.36 31.13, 0.37 23.54, 2.04 18.44 C3.71 13.34, 7.78 8.76, 12.33 5.87 C16.88 2.98, 26.27 1.97, 29.34 1.1 C32.42 0.22, 30.64 0.37, 30.78 0.62" stroke="#000000" stroke-width="1" fill="none"></path></g><g transform="translate(1387.1048310978692 228.41116755683538) rotate(0 5.858333110809326 12)"><text x="5.858333110809326" y="0" font-family="Cascadia, Segoe UI Emoji" font-size="20px" fill="#1971c2" text-anchor="middle" style="white-space: pre;" direction="ltr" dominant-baseline="text-before-edge">*</text></g><g stroke-linecap="round" transform="translate(834.0550473007152 357.0030506488722) rotate(0 27 27)"><path d="M11.54 6.05 C11.54 6.05, 11.54 6.05, 11.54 6.05 M11.54 6.05 C11.54 6.05, 11.54 6.05, 11.54 6.05 M4.2 20.49 C7.93 16.51, 12.92 9.3, 17.15 4.44 M2.97 21.17 C7.48 16.94, 11.81 12.54, 17.8 4.62 M2.26 25.49 C8.75 22.55, 14.04 18.17, 25.66 1.54 M3.65 27.27 C10.85 17.88, 18.4 11.26, 24.5 1.74 M4.57 33.25 C10.99 28, 14.48 18.91, 28.86 4.04 M2.76 34.49 C13.45 22.5, 24.62 9, 30.21 2.14 M5.06 40.69 C14.79 26.84, 27.83 10.87, 34.38 5 M4.28 39.04 C14.36 28, 23.94 14.06, 34.94 3.31 M5.78 40.59 C15.47 30.08, 25.97 22.79, 37.93 4.7 M6.37 41.04 C18.17 29.27, 29.93 14.34, 38.46 5.9 M8.09 46.25 C21.84 31.85, 36.17 17.33, 43.72 8.92 M10.43 44.8 C19.96 32.5, 29.35 21.07, 41.56 6.66 M13.64 48.44 C23.91 35.82, 34.3 24.48, 48.23 8.27 M12.91 48.45 C24.8 33.84, 38 18.2, 45.63 9.39 M16.84 49.99 C24.68 38.02, 33.24 28.75, 46.71 11.26 M15.62 50.18 C27.22 35.9, 39.04 23.99, 48.07 12.75 M19.33 54.89 C32.95 38.15, 41.58 25.66, 51.45 15.56 M19.07 54 C24.55 46.38, 31.22 37.44, 50.36 17.08 M22.35 54.29 C32.04 43.38, 45.66 30.02, 50.37 21.62 M22.66 53.41 C29.37 46.75, 35.02 40.92, 51.47 20.73 M29.28 55.64 C36.07 41.89, 47.88 31.35, 55.44 23.23 M28.05 55.14 C34.95 46.85, 42.14 37.81, 54.19 24.28 M32 54.96 C39.59 47.38, 41.07 44.77, 53.13 32.06 M33.43 55.15 C38.94 47.68, 44.46 42.83, 52.35 33.7 M36.72 58.13 C41.85 52.74, 48.03 46.82, 49.99 41.69 M36.08 56.53 C38.97 53.21, 42.57 49.07, 50.33 42.08" stroke="#40c057" stroke-width="0.5" fill="none"></path><path d="M29.19 1.07 C34.51 1.17, 41.09 4.13, 45.13 7.94 C49.16 11.75, 52.82 18.11, 53.39 23.92 C53.95 29.73, 51.82 37.79, 48.54 42.81 C45.25 47.82, 39 52.51, 33.68 53.99 C28.35 55.48, 21.77 54.42, 16.59 51.71 C11.4 49, 5.07 42.95, 2.57 37.72 C0.08 32.5, 0.11 25.64, 1.62 20.35 C3.12 15.05, 6.61 9.25, 11.62 5.96 C16.63 2.67, 27.93 1.41, 31.68 0.62 C35.44 -0.17, 34.12 0.82, 34.14 1.23 M14.14 3.66 C18.58 0.61, 25.67 -0.86, 31.41 0.05 C37.15 0.95, 45.01 4.57, 48.57 9.08 C52.12 13.59, 52.98 21.36, 52.74 27.11 C52.5 32.86, 50.62 39.33, 47.13 43.6 C43.64 47.86, 37.45 51.42, 31.78 52.7 C26.11 53.97, 18.26 53.95, 13.09 51.23 C7.92 48.5, 2.47 42.06, 0.77 36.33 C-0.94 30.6, 0.52 22.43, 2.87 16.86 C5.21 11.3, 12.72 5.38, 14.84 2.94 C16.97 0.51, 15.38 1.98, 15.63 2.24" stroke="#000000" stroke-width="1" fill="none"></path></g><g stroke-linecap="round" transform="translate(1066.0550473007152 364.0030506488722) rotate(0 27 27)"><path d="M10.89 5.5 C10.89 5.5, 10.89 5.5, 10.89 5.5 M10.89 5.5 C10.89 5.5, 10.89 5.5, 10.89 5.5 M0.3 24.02 C5.51 16.54, 11.87 9.23, 16.94 3.63 M1.69 22.3 C7.11 16.8, 10.52 11.84, 17 3.53 M2.78 28.27 C12.21 19.55, 20.13 7.03, 26.18 -0.04 M2.16 26.42 C9.18 20.43, 15.01 11.39, 24.56 1.4 M4.86 33.71 C8.43 24.38, 12.92 20.93, 31.48 3.82 M2.74 33.83 C11.7 22.89, 18.69 14.12, 30.49 1.19 M3.09 38.91 C15.85 22.82, 26.02 12.87, 34.23 3.63 M3.9 38.84 C13.44 24.85, 25 13.36, 33.22 3.93 M6.17 39.53 C17.94 31.21, 25.49 18.14, 39.19 4.67 M5.82 41.9 C13.62 32.01, 21.47 24.64, 38.75 5.44 M8.65 45.61 C17.4 37.62, 24.8 29.49, 41.67 5.21 M9.04 43.46 C18.53 31.61, 29.06 19.42, 41.65 6.07 M12.12 47.39 C18.42 40.36, 27.2 30.76, 47.19 7.01 M11.36 47.52 C19.41 37.33, 26 30.21, 45.59 7.89 M14.85 48.11 C25.46 36.23, 35.94 22.09, 49.33 9.42 M14.45 49.02 C26.1 37.28, 37.89 23.13, 49.07 10.44 M19.66 51.86 C26.58 40.83, 40.67 26.16, 48.09 16.89 M17.52 53.37 C26.04 41.71, 35.45 32.33, 50.56 14.89 M20.96 54.81 C34.68 41.39, 42.76 29.14, 49.69 18.85 M23.18 52.37 C30.99 44.29, 38.41 34.7, 52.17 19.57 M26.64 51.38 C36.14 43.08, 43.67 35.07, 53.05 22.21 M27.17 54 C32.08 47.3, 38.63 40.6, 52.97 23.15 M34.35 51.98 C36.87 48.26, 46.35 38.64, 51.56 33.01 M33.54 52.82 C39.57 47.13, 45.65 39.87, 52.64 31.91 M38.01 55.67 C42.53 51.43, 45.36 45.55, 48.8 42.15 M37.07 54.41 C41.86 48.98, 47.71 43.73, 49.86 40.38" stroke="#40c057" stroke-width="0.5" fill="none"></path><path d="M27.41 0.2 C32.82 -0.15, 40.51 2.63, 44.79 6.6 C49.07 10.57, 52.34 18.03, 53.08 24.01 C53.82 30, 52.11 37.7, 49.24 42.52 C46.37 47.34, 41.33 51.5, 35.88 52.92 C30.44 54.35, 21.93 53.28, 16.58 51.06 C11.23 48.83, 6.38 44.4, 3.77 39.56 C1.16 34.73, -0.23 27.7, 0.92 22.06 C2.07 16.43, 5.25 9.37, 10.66 5.77 C16.06 2.17, 28.75 0.97, 33.35 0.47 C37.94 -0.03, 38.53 2.24, 38.23 2.76 M29.08 -0.34 C34.66 -0.31, 43.09 3.11, 47.03 7.29 C50.97 11.47, 52.45 19, 52.72 24.75 C52.98 30.5, 51.73 37.19, 48.63 41.77 C45.52 46.36, 39.68 50.49, 34.1 52.26 C28.52 54.03, 20.56 54.67, 15.15 52.39 C9.73 50.1, 3.77 44.09, 1.6 38.54 C-0.58 32.99, 0.22 24.82, 2.09 19.09 C3.95 13.36, 7.94 7.53, 12.81 4.15 C17.69 0.76, 28.31 -0.48, 31.33 -1.23 C34.36 -1.98, 30.96 -0.86, 30.97 -0.35" stroke="#000000" stroke-width="1" fill="none"></path></g><g stroke-linecap="round" transform="translate(1490.0550473007154 368.0030506488722) rotate(0 27 27)"><path d="M5.91 10.44 C5.91 10.44, 5.91 10.44, 5.91 10.44 M5.91 10.44 C5.91 10.44, 5.91 10.44, 5.91 10.44 M1.25 20.66 C5.55 15.71, 9.73 11.13, 18.02 1.64 M3.76 19.72 C6.31 15.72, 10.18 10.57, 18.86 1.73 M1.04 31.19 C5.45 22.56, 11.08 16.39, 23.6 1.81 M0.08 30.1 C6.67 20.5, 14.08 12.99, 22.95 2.62 M2.32 30.76 C8.12 25.38, 18.87 17.11, 28.61 0.91 M3.18 31.88 C12.67 20.07, 23.94 7.78, 29.58 3.03 M4.98 34.98 C14.78 25.47, 26.75 11.45, 34.19 4.27 M3.33 35.79 C12.61 26.65, 20.4 17.63, 33.17 2.99 M7.6 41.88 C13.11 31.47, 22.69 23.17, 36.81 2.78 M5.56 40.02 C13.27 32.8, 21.35 24.67, 37.17 3 M8.59 46.86 C22.95 30.58, 35.13 11.81, 42.76 5.97 M6.76 44.67 C18.86 30.96, 31.26 17.5, 41.44 5.71 M10.64 48.92 C23.64 34.35, 34.54 20.66, 43.26 9.59 M10.92 46.79 C22.33 34.17, 35.3 18.99, 45.19 9.18 M13.88 49.03 C21.95 37.92, 33.66 26.92, 48.1 12.36 M14.13 50.29 C23.31 39.55, 33.27 28.22, 47.47 12.29 M16.26 52.41 C31.79 35.78, 40.99 23.97, 49.58 15.84 M17.82 50.98 C31.21 36.83, 44.04 21.41, 50.92 14.26 M22.66 54.38 C29.54 43.56, 38.92 30.51, 52.19 17.73 M21.71 53.94 C27.61 46.06, 35.81 37.56, 52.37 18.61 M26.68 53.59 C36.57 43.3, 44.36 31.85, 50.45 24.95 M24.44 55.58 C35.45 43.73, 44.56 32.02, 52.44 23.88 M29.67 55.67 C39.22 45.91, 43.99 40.86, 53.19 31.37 M32.45 54.78 C38.89 47.02, 45.98 38.71, 52.7 30.04 M39.34 54.77 C43.74 46.62, 47.78 42.48, 54.18 35.72 M37.42 53.19 C42.89 48.6, 46.43 43.64, 52.16 36.06" stroke="#40c057" stroke-width="0.5" fill="none"></path><path d="M39.2 2.64 C44.24 4.97, 49.19 11.78, 51.35 17.39 C53.51 23.01, 53.71 30.89, 52.17 36.33 C50.63 41.78, 46.94 47.31, 42.1 50.07 C37.27 52.82, 28.92 53.68, 23.18 52.87 C17.44 52.06, 11.48 49.19, 7.67 45.19 C3.85 41.19, 0.6 34.65, 0.28 28.88 C-0.03 23.11, 2.23 15.33, 5.79 10.58 C9.35 5.82, 15.31 1.23, 21.62 0.35 C27.94 -0.53, 39.85 3.95, 43.7 5.31 C47.55 6.67, 45.08 8.16, 44.75 8.51 M31.55 -0.92 C37.02 -0.44, 42.39 4.17, 46.14 8.51 C49.88 12.85, 53.56 19.36, 54.03 25.1 C54.49 30.85, 52.54 38.01, 48.95 42.96 C45.36 47.91, 38.44 53.38, 32.5 54.81 C26.56 56.24, 18.3 54.59, 13.33 51.55 C8.37 48.52, 4.6 42.2, 2.71 36.6 C0.83 31, 0.12 23.66, 2.04 17.96 C3.95 12.27, 9.2 5.55, 14.2 2.43 C19.2 -0.69, 28.96 -0.31, 32.03 -0.74 C35.1 -1.17, 32.83 -0.82, 32.63 -0.14" stroke="#000000" stroke-width="1" fill="none"></path></g><g stroke-linecap="round" transform="translate(1265.0550473007154 364.5030506488722) rotate(0 27 27)"><path d="M11.94 5.08 C11.94 5.08, 11.94 5.08, 11.94 5.08 M11.94 5.08 C11.94 5.08, 11.94 5.08, 11.94 5.08 M1.81 21.58 C8.35 14.42, 15.12 6.67, 18.22 3.67 M2.45 21.76 C6.64 16.1, 12.71 10.25, 18.07 3.31 M3.76 26.23 C11.87 16.86, 18.71 8.66, 26.1 0.59 M2.6 26.43 C7.29 21.88, 12.01 16.6, 25.7 2.25 M2.36 34.01 C14.47 24.45, 21.46 10.98, 32.06 2.08 M3.71 32.11 C14.5 20.34, 24.7 10.19, 30.93 1.96 M3.29 40.25 C14.92 26.74, 25.89 15.51, 33.54 4.17 M3.85 38.56 C15.7 25.52, 28.01 11.15, 33.24 4.18 M5.53 41.46 C13.85 34.09, 17.94 25.55, 35.98 5.16 M6.06 42.66 C18.59 29.85, 28.21 15.31, 38.44 5.79 M10.66 46.43 C21.75 28.41, 34.59 16.44, 42.58 6.66 M8.5 44.17 C18.02 34.53, 25.37 26.27, 42.17 7.46 M13.21 48.04 C23.26 35.11, 30.83 25.25, 46.79 8.45 M10.61 49.17 C22.22 35.74, 33.98 23.82, 45.31 9.18 M12.99 49.52 C22.76 40.95, 29.66 35.33, 47.37 11.98 M14.36 51.02 C22.55 41.56, 29.13 34.79, 48.81 13.45 M19.05 52.32 C24.59 44.92, 34.41 35.07, 51.47 16.21 M17.96 53.84 C30.6 38.84, 43.09 25.05, 49.66 15.75 M20.59 55.37 C32.1 39.51, 45.4 26.77, 50.42 20.93 M21.69 54.47 C30.39 45.19, 37.05 37.59, 52.52 19.47 M28.95 53.2 C32.56 46.53, 36.59 42.44, 55.53 22.31 M27.69 54.24 C37.54 41.9, 48.18 30.55, 54.36 24.21 M33.85 53.73 C37.87 49.65, 43.92 43.72, 57.18 28.47 M33.07 55.36 C38.53 48.48, 43.07 42.24, 57.37 26.95" stroke="#40c057" stroke-width="0.5" fill="none"></path><path d="M28.6 0.58 C34.11 0.96, 41.2 4.81, 45.55 8.84 C49.9 12.86, 54.12 19.29, 54.71 24.75 C55.3 30.21, 52.43 36.83, 49.11 41.57 C45.79 46.32, 40.32 51.4, 34.79 53.21 C29.26 55.02, 21.27 54.88, 15.91 52.45 C10.55 50.03, 5.07 44.12, 2.61 38.68 C0.14 33.24, -0.46 25.46, 1.12 19.83 C2.7 14.2, 7.27 8.13, 12.08 4.91 C16.89 1.69, 26.54 1.14, 29.99 0.49 C33.43 -0.16, 32.6 0.74, 32.75 1.03 M21 -0.36 C26.3 -1.69, 35.08 -0.68, 40.47 2.15 C45.86 4.99, 51.27 10.78, 53.32 16.66 C55.36 22.55, 54.97 31.7, 52.75 37.47 C50.53 43.24, 44.9 48.61, 39.99 51.29 C35.08 53.96, 28.81 54.72, 23.3 53.53 C17.79 52.35, 10.63 48.82, 6.93 44.17 C3.23 39.52, 1.07 31.57, 1.1 25.65 C1.12 19.72, 3.3 13, 7.07 8.62 C10.84 4.25, 21.18 0.64, 23.73 -0.59 C26.29 -1.81, 22.65 0.82, 22.39 1.27" stroke="#000000" stroke-width="1" fill="none"></path></g><g stroke-linecap="round"><g transform="translate(1174.0550473007154 79.50305064887243) rotate(0 -80.21582136787475 55.836505205240144)"><path d="M0.2 -0.59 C-26.76 18.1, -134.03 92.5, -160.64 111.17 M-1.15 1.71 C-27.82 20.62, -131.8 93.82, -158.26 112.27" stroke="#000000" stroke-width="1" fill="none"></path></g></g><mask></mask><g stroke-linecap="round"><g transform="translate(972.0550473007152 226.50305064887232) rotate(0 -51.41493775341661 66.39146553879607)"><path d="M-0.64 -0.83 C-17.91 21.33, -86.38 109.93, -103.42 132.4 M1.23 1.34 C-16.16 23.71, -86.69 111.82, -104.06 133.62" stroke="#000000" stroke-width="1" fill="none"></path></g></g><mask></mask><g stroke-linecap="round"><g transform="translate(1008.0550473007152 231.5030506488722) rotate(0 37.29436404624954 67.68810207881035)"><path d="M0.58 -0.6 C13.21 22.2, 62.89 113.39, 75.16 135.98 M-0.57 1.69 C12.06 24.25, 62.47 111.95, 74.82 134.37" stroke="#000000" stroke-width="1" fill="none"></path></g></g><mask></mask><g stroke-linecap="round"><g transform="translate(1219.0550473007154 82.50305064887198) rotate(0 79.75053905004631 68.45672775361686)"><path d="M1.16 0.98 C27.6 23.57, 133.06 112.47, 159.19 134.95 M0.31 0.45 C26.55 23.29, 131.68 114.2, 158.34 136.46" stroke="#000000" stroke-width="1" fill="none"></path></g></g><mask></mask><g stroke-linecap="round"><g transform="translate(1375.0550473007154 263.50305064887243) rotate(0 -34.92474313415585 51.888899529781156)"><path d="M0.19 -0.05 C-11.68 17.27, -58.54 87.5, -70.04 104.9 M-1.17 -1.12 C-12.78 15.79, -56.48 85.42, -67.87 103.24" stroke="#000000" stroke-width="1" fill="none"></path></g></g><mask></mask><g stroke-linecap="round"><g transform="translate(1413.0550473007154 262.50305064887243) rotate(0 50.566162067279265 53.32150718217713)"><path d="M-1.04 0.9 C15.96 18.62, 84.81 88.79, 102.17 106.32 M0.62 0.32 C17.45 17.68, 84.25 86.52, 101.31 104.37" stroke="#000000" stroke-width="1" fill="none"></path></g></g><mask></mask><g stroke-linecap="round"><g transform="translate(1193.0550473007154 95.25305064887198) rotate(0 12.241528554623926 68.96554822133851)"><path d="M0.26 0.26 C4.33 23.35, 21.28 115.85, 25.54 138.58 M-1.06 -0.65 C2.72 22.09, 20.09 113.85, 24.45 136.85" stroke="#000000" stroke-width="1" fill="none"></path></g></g><mask></mask><g stroke-linecap="round" transform="translate(1193.0550473007154 233.7530506488722) rotate(0 27 27)"><path d="M9.93 7.31 C9.93 7.31, 9.93 7.31, 9.93 7.31 M9.93 7.31 C9.93 7.31, 9.93 7.31, 9.93 7.31 M2.7 24.68 C5.69 17.72, 9.9 13.18, 18.69 2.84 M1.73 23.59 C6.25 16.29, 11.61 11.13, 18.04 3.66 M2 26.52 C7.44 21.57, 17.82 13.73, 26.99 -1.83 M2.87 27.63 C11.84 16.42, 22.59 4.73, 27.96 0.29 M4.01 31.48 C13.06 22.83, 24.29 9.67, 31.25 3.04 M2.36 32.3 C11.08 23.82, 18.31 15.44, 30.23 1.76 M5.32 39.9 C10.52 29.83, 19.78 21.89, 33.21 2.3 M3.28 38.03 C10.69 31.16, 18.47 23.36, 33.57 2.52 M6.31 44.88 C19.89 29.5, 31.3 11.61, 38.51 6.25 M4.48 42.69 C15.91 29.73, 27.65 17.03, 37.19 5.99 M8.36 46.94 C21.36 32.37, 32.26 18.68, 40.98 7.61 M8.64 44.8 C20.05 32.19, 33.02 17.01, 42.91 7.2 M10.94 47.8 C19.74 35.87, 32.17 24.04, 47.79 8.11 M11.19 49.06 C21.1 37.52, 31.78 25.36, 47.16 8.04 M12.66 51.94 C28.95 34.43, 38.91 21.73, 47.95 13.1 M14.23 50.5 C28.39 35.45, 42 19.14, 49.3 11.52 M18.41 54.66 C26.12 42.89, 36.3 28.92, 50.57 15 M17.46 54.22 C23.93 45.68, 32.72 36.51, 50.75 15.87 M24.4 51.61 C35.24 40.27, 43.96 27.75, 50.8 19.95 M22.16 53.59 C34.13 40.64, 44.19 27.84, 52.78 18.87 M26.74 54.44 C37.63 43.12, 43.79 36.47, 54.85 24.86 M29.52 53.55 C37.4 44.11, 45.98 34.09, 54.35 23.53 M35.09 55.05 C41.17 44.91, 46.9 38.83, 54.53 30.72 M33.17 53.47 C39.94 47.4, 44.75 40.98, 52.5 31.06" stroke="#40c057" stroke-width="0.5" fill="none"></path><path d="M27.17 -0.09 C32.88 -0.61, 40.27 1.74, 44.61 5.5 C48.96 9.26, 52.4 16.77, 53.22 22.46 C54.05 28.14, 52.49 34.62, 49.58 39.61 C46.68 44.59, 41.23 50.13, 35.78 52.37 C30.33 54.61, 22.35 54.97, 16.88 53.04 C11.41 51.11, 5.57 45.97, 2.96 40.8 C0.36 35.62, 0.06 27.64, 1.27 22 C2.47 16.36, 5.12 10.51, 10.22 6.98 C15.31 3.45, 27.48 1.48, 31.83 0.82 C36.18 0.16, 36.55 2.56, 36.31 3.03 M17.58 2.03 C22.26 -0.2, 29.96 -1.22, 35.44 0.6 C40.93 2.43, 47.52 7.79, 50.48 12.98 C53.44 18.18, 54.06 25.95, 53.19 31.75 C52.33 37.54, 49.58 43.98, 45.28 47.75 C40.99 51.53, 33.34 54.54, 27.42 54.38 C21.51 54.22, 14.15 50.43, 9.79 46.78 C5.44 43.14, 2.39 37.99, 1.3 32.51 C0.21 27.04, 0.41 18.86, 3.27 13.95 C6.12 9.03, 15.84 5.07, 18.43 3.01 C21.02 0.96, 18.64 1.32, 18.8 1.62" stroke="#000000" stroke-width="1" fill="none"></path></g><g stroke-linecap="round" transform="translate(1137.7172609050808 10) rotate(0 58.95467817727308 56.031305705672764)"><path d="M28.02 0 M28.02 0 C45.57 1.17, 64.32 -0.55, 89.89 0 M28.02 0 C44.53 0.49, 60.99 0.89, 89.89 0 M89.89 0 C108.69 0.49, 116.18 7.42, 117.91 28.02 M89.89 0 C108.57 -2.08, 116.29 11.14, 117.91 28.02 M117.91 28.02 C116.56 45.59, 117.17 64.65, 117.91 84.05 M117.91 28.02 C117.96 46.65, 118.3 64.36, 117.91 84.05 M117.91 84.05 C118.39 102.39, 109.8 110.15, 89.89 112.06 M117.91 84.05 C117.48 103.97, 110.66 109.88, 89.89 112.06 M89.89 112.06 C68.69 113.09, 48.59 111.99, 28.02 112.06 M89.89 112.06 C65.2 112.43, 41.54 112.01, 28.02 112.06 M28.02 112.06 C8.83 112.25, 0.63 101.12, 0 84.05 M28.02 112.06 C9 110.77, 1.72 101.54, 0 84.05 M0 84.05 C-1.72 63.23, -0.57 47.3, 0 28.02 M0 84.05 C-0.74 69.62, 1.01 53.47, 0 28.02 M0 28.02 C0.67 10.58, 11.16 -0.35, 28.02 0 M0 28.02 C1.52 7.91, 7.5 1.11, 28.02 0" stroke="#1971c2" stroke-width="1" fill="none"></path></g><g transform="translate(1025.1674207484687 43.6187834234039) rotate(0 42.20000076293945 21.600000000000023)"><text x="0" y="0" font-family="Cascadia, Segoe UI Emoji" font-size="36px" fill="#1971c2" text-anchor="start" style="white-space: pre;" direction="ltr" dominant-baseline="text-before-edge">Loss</text></g><g transform="translate(1586.4549352957297 373.95987271423974) rotate(0 84.4000015258789 21.600000000000023)"><text x="0" y="0" font-family="Cascadia, Segoe UI Emoji" font-size="36px" fill="#1971c2" text-anchor="start" style="white-space: pre;" direction="ltr" dominant-baseline="text-before-edge">Expected</text></g><g stroke-linecap="round" transform="translate(1462.2116052527163 338.3921743097693) rotate(0 58.95467817727308 56.031305705672764)"><path d="M28.02 0 M28.02 0 C45.86 -0.7, 64.36 0.3, 89.89 0 M28.02 0 C42.32 1.06, 55.57 -0.37, 89.89 0 M89.89 0 C109.66 -1.1, 119.62 11, 117.91 28.02 M89.89 0 C109.67 0.24, 115.73 7.49, 117.91 28.02 M117.91 28.02 C117.71 39.65, 116.59 51.24, 117.91 84.05 M117.91 28.02 C116.84 41.85, 116.94 56.09, 117.91 84.05 M117.91 84.05 C116.65 103.48, 109.53 113.65, 89.89 112.06 M117.91 84.05 C117.57 102.61, 108.25 113.28, 89.89 112.06 M89.89 112.06 C67.95 112.88, 47.5 113.09, 28.02 112.06 M89.89 112.06 C77.59 112.74, 63.53 111.39, 28.02 112.06 M28.02 112.06 C11.13 111.28, 0.18 102.1, 0 84.05 M28.02 112.06 C10.38 110.3, 1.54 101.78, 0 84.05 M0 84.05 C-0.58 64.59, 0.62 41.33, 0 28.02 M0 84.05 C-1.34 63.16, -0.8 43.83, 0 28.02 M0 28.02 C-1.03 9.05, 9.66 1.47, 28.02 0 M0 28.02 C-1.42 8.51, 11.09 -1.15, 28.02 0" stroke="#1971c2" stroke-width="1" fill="none"></path></g></svg>