<svg xmlns="http://www.w3.org/2000/svg" xmlns:xlink="http://www.w3.org/1999/xlink" width="226pt" height="332pt" viewBox="0.00 0.00 225.84 332.00">
<g id="graph0" class="graph" transform="scale(1 1) rotate(0) translate(4 328)">
<title>G</title>
<polygon fill="white" stroke="none" points="-4,4 -4,-328 221.84,-328 221.84,4 -4,4"/>
<!-- empty -->
<g id="node1" class="node">
<title>empty</title>
<ellipse fill="none" stroke="black" cx="110.79" cy="-18" rx="36.79" ry="18"/>
<text text-anchor="middle" x="110.79" y="-13.8" font-family="Times,serif" font-size="14.00">Empty</text>
</g>
<!-- const_int -->
<g id="node2" class="node">
<title>const_int</title>
<ellipse fill="none" stroke="black" cx="51.79" cy="-90" rx="51.79" ry="18"/>
<text text-anchor="middle" x="51.79" y="-85.8" font-family="Times,serif" font-size="14.00">Integer[N]</text>
</g>
<!-- empty&#45;&gt;const_int -->
<g id="edge1" class="edge">
<title>empty-&gt;const_int</title>
<path fill="none" stroke="black" d="M97.4,-34.88C90.29,-43.32 81.37,-53.9 73.32,-63.45"/>
<polygon fill="black" stroke="black" points="70.69,-61.14 66.92,-71.05 76.04,-65.65 70.69,-61.14"/>
</g>
<!-- const_str -->
<g id="node3" class="node">
<title>const_str</title>
<ellipse fill="none" stroke="black" cx="169.79" cy="-90" rx="48.05" ry="18"/>
<text text-anchor="middle" x="169.79" y="-85.8" font-family="Times,serif" font-size="14.00">String[N]</text>
</g>
<!-- empty&#45;&gt;const_str -->
<g id="edge2" class="edge">
<title>empty-&gt;const_str</title>
<path fill="none" stroke="black" d="M124.17,-34.88C131.46,-43.53 140.64,-54.42 148.86,-64.17"/>
<polygon fill="black" stroke="black" points="145.95,-66.15 155.07,-71.54 151.3,-61.63 145.95,-66.15"/>
</g>
<!-- int -->
<g id="node4" class="node">
<title>int</title>
<ellipse fill="none" stroke="black" cx="64.79" cy="-162" rx="38.38" ry="18"/>
<text text-anchor="middle" x="64.79" y="-157.8" font-family="Times,serif" font-size="14.00">Integer</text>
</g>
<!-- const_int&#45;&gt;int -->
<g id="edge3" class="edge">
<title>const_int-&gt;int</title>
<path fill="none" stroke="black" d="M55,-108.3C56.37,-115.68 58,-124.48 59.54,-132.75"/>
<polygon fill="black" stroke="black" points="56.07,-133.21 61.33,-142.41 62.95,-131.94 56.07,-133.21"/>
</g>
<!-- str -->
<g id="node5" class="node">
<title>str</title>
<ellipse fill="none" stroke="black" cx="162.79" cy="-162" rx="34.65" ry="18"/>
<text text-anchor="middle" x="162.79" y="-157.8" font-family="Times,serif" font-size="14.00">String</text>
</g>
<!-- const_str&#45;&gt;str -->
<g id="edge4" class="edge">
<title>const_str-&gt;str</title>
<path fill="none" stroke="black" d="M168.06,-108.3C167.33,-115.59 166.46,-124.27 165.64,-132.46"/>
<polygon fill="black" stroke="black" points="162.16,-132.09 164.65,-142.39 169.12,-132.79 162.16,-132.09"/>
</g>
<!-- class_union -->
<g id="node6" class="node">
<title>class_union</title>
<ellipse fill="none" stroke="black" cx="109.79" cy="-234" rx="79.98" ry="18"/>
<text text-anchor="middle" x="109.79" y="-229.8" font-family="Times,serif" font-size="14.00">Class[A, B, C, ...]</text>
</g>
<!-- int&#45;&gt;class_union -->
<g id="edge5" class="edge">
<title>int-&gt;class_union</title>
<path fill="none" stroke="black" d="M75.45,-179.59C80.64,-187.66 87.01,-197.57 92.84,-206.65"/>
<polygon fill="black" stroke="black" points="89.72,-208.25 98.07,-214.77 95.6,-204.47 89.72,-208.25"/>
</g>
<!-- str&#45;&gt;class_union -->
<g id="edge6" class="edge">
<title>str-&gt;class_union</title>
<path fill="none" stroke="black" d="M150.49,-179.24C144.26,-187.47 136.53,-197.68 129.48,-206.98"/>
<polygon fill="black" stroke="black" points="126.91,-204.58 123.67,-214.67 132.49,-208.81 126.91,-204.58"/>
</g>
<!-- any -->
<g id="node7" class="node">
<title>any</title>
<ellipse fill="none" stroke="black" cx="109.79" cy="-306" rx="27.67" ry="18"/>
<text text-anchor="middle" x="109.79" y="-301.8" font-family="Times,serif" font-size="14.00">Any</text>
</g>
<!-- class_union&#45;&gt;any -->
<g id="edge7" class="edge">
<title>class_union-&gt;any</title>
<path fill="none" stroke="black" d="M109.79,-252.3C109.79,-259.59 109.79,-268.27 109.79,-276.46"/>
<polygon fill="black" stroke="black" points="106.29,-276.38 109.79,-286.38 113.29,-276.38 106.29,-276.38"/>
</g>
</g>
</svg>