<?xml version="1.0" encoding="UTF-8" standalone="no"?>
<!DOCTYPE svg PUBLIC "-//W3C//DTD SVG 1.1//EN" "http://www.w3.org/Graphics/SVG/1.1/DTD/svg11.dtd">
<!-- Generated by graphviz version 2.40.1 (20161225.0304)
 -->
<!-- Title: %0 Pages: 1 -->
<svg width="206pt" height="116pt" viewBox="0.00 0.00 206.00 116.00" xmlns="http://www.w3.org/2000/svg" xmlns:xlink="http://www.w3.org/1999/xlink">
<g id="graph0" class="graph" transform="scale(1 1) rotate(0) translate(4 112)">
<title>%0</title>
<polygon fill="#ffffff" stroke="transparent" points="-4,4 -4,-112 202,-112 202,4 -4,4"/>
<!-- v5 -->
<g id="node1" class="node">
<title>v5</title>
<ellipse fill="none" stroke="#000000" cx="99" cy="-90" rx="31.4756" ry="18"/>
<text text-anchor="middle" x="99" y="-85.8" font-family="Times,serif" font-size="14.00" fill="#000000">v5: +</text>
</g>
<!-- v0 -->
<g id="node2" class="node">
<title>v0</title>
<ellipse fill="none" stroke="#000000" cx="27" cy="-18" rx="27" ry="18"/>
<text text-anchor="middle" x="27" y="-13.8" font-family="Times,serif" font-size="14.00" fill="#000000">v0</text>
</g>
<!-- v5&#45;&gt;v0 -->
<g id="edge1" class="edge">
<title>v5-&gt;v0</title>
<path fill="none" stroke="#000000" d="M83.3771,-74.3771C73.4302,-64.4302 60.3888,-51.3888 49.3547,-40.3547"/>
<polygon fill="#000000" stroke="#000000" points="51.645,-37.6953 42.099,-33.099 46.6953,-42.645 51.645,-37.6953"/>
</g>
<!-- v1 -->
<g id="node3" class="node">
<title>v1</title>
<ellipse fill="none" stroke="#000000" cx="99" cy="-18" rx="27" ry="18"/>
<text text-anchor="middle" x="99" y="-13.8" font-family="Times,serif" font-size="14.00" fill="#000000">v1</text>
</g>
<!-- v5&#45;&gt;v1 -->
<g id="edge2" class="edge">
<title>v5-&gt;v1</title>
<path fill="none" stroke="#000000" d="M99,-71.8314C99,-64.131 99,-54.9743 99,-46.4166"/>
<polygon fill="#000000" stroke="#000000" points="102.5001,-46.4132 99,-36.4133 95.5001,-46.4133 102.5001,-46.4132"/>
</g>
<!-- v3 -->
<g id="node4" class="node">
<title>v3</title>
<ellipse fill="none" stroke="#000000" cx="171" cy="-18" rx="27" ry="18"/>
<text text-anchor="middle" x="171" y="-13.8" font-family="Times,serif" font-size="14.00" fill="#000000">v3</text>
</g>
<!-- v5&#45;&gt;v3 -->
<g id="edge3" class="edge">
<title>v5-&gt;v3</title>
<path fill="none" stroke="#000000" d="M114.6229,-74.3771C124.5698,-64.4302 137.6112,-51.3888 148.6453,-40.3547"/>
<polygon fill="#000000" stroke="#000000" points="151.3047,-42.645 155.901,-33.099 146.355,-37.6953 151.3047,-42.645"/>
</g>
</g>
</svg>