<?xml version="1.0" encoding="UTF-8" standalone="no"?>
<!DOCTYPE svg PUBLIC "-//W3C//DTD SVG 1.1//EN"
 "http://www.w3.org/Graphics/SVG/1.1/DTD/svg11.dtd">
<!-- Generated by graphviz version 13.0.1 (20250615.1724)
 -->
<!-- Title: G Pages: 1 -->
<svg width="425pt" height="327pt"
 viewBox="0.00 0.00 425.00 327.00" xmlns="http://www.w3.org/2000/svg" xmlns:xlink="http://www.w3.org/1999/xlink">
<g id="graph0" class="graph" transform="scale(1 1) rotate(0) translate(4 322.94)">
<title>G</title>
<polygon fill="white" stroke="none" points="-4,4 -4,-322.94 421.26,-322.94 421.26,4 -4,4"/>
<!-- B1 -->
<g id="node1" class="node">
<title>B1</title>
<polygon fill="lightgray" stroke="none" points="209.12,-291.69 209.12,-314.94 363.62,-314.94 363.62,-291.69 209.12,-291.69"/>
<polygon fill="none" stroke="black" points="209.12,-291.69 209.12,-314.94 363.62,-314.94 363.62,-291.69 209.12,-291.69"/>
<text xml:space="preserve" text-anchor="start" x="232.75" y="-298.64" font-family="Monospace" font-size="14.00">B1(R10, R11) </text>
<polygon fill="none" stroke="black" points="209.12,-268.44 209.12,-291.69 363.62,-291.69 363.62,-268.44 209.12,-268.44"/>
<text xml:space="preserve" text-anchor="start" x="212.12" y="-275.39" font-family="Monospace" font-size="14.00">jump →B2($1, R11) </text>
</g>
<!-- B2 -->
<g id="node2" class="node">
<title>B2</title>
<polygon fill="lightgray" stroke="none" points="229.75,-201.19 229.75,-224.44 343,-224.44 343,-201.19 229.75,-201.19"/>
<polygon fill="none" stroke="black" points="229.75,-201.19 229.75,-224.44 343,-224.44 343,-201.19 229.75,-201.19"/>
<text xml:space="preserve" text-anchor="start" x="232.75" y="-208.14" font-family="Monospace" font-size="14.00">B2(R12, R13) </text>
<polygon fill="none" stroke="black" points="229.75,-177.94 229.75,-201.19 343,-201.19 343,-177.94 229.75,-177.94"/>
<text xml:space="preserve" text-anchor="start" x="232.75" y="-184.89" font-family="Monospace" font-size="14.00">cmp R13, $1 </text>
<polygon fill="none" stroke="black" points="229.75,-154.69 229.75,-177.94 343,-177.94 343,-154.69 229.75,-154.69"/>
<text xml:space="preserve" text-anchor="start" x="232.75" y="-161.64" font-family="Monospace" font-size="14.00">blt →B4, →B3 </text>
</g>
<!-- B1&#45;&gt;B2 -->
<g id="edge1" class="edge">
<title>B1:s&#45;&gt;B2:n</title>
<path fill="none" stroke="black" d="M286.38,-264.44C286.38,-251.58 286.38,-245.87 286.38,-236.7"/>
<polygon fill="black" stroke="black" points="289.88,-236.95 286.38,-226.95 282.88,-236.95 289.88,-236.95"/>
</g>
<!-- B4 -->
<g id="node3" class="node">
<title>B4</title>
<polygon fill="lightgray" stroke="none" points="8,-75.82 8,-99.07 170.75,-99.07 170.75,-75.82 8,-75.82"/>
<polygon fill="none" stroke="black" points="8,-75.82 8,-99.07 170.75,-99.07 170.75,-75.82 8,-75.82"/>
<text xml:space="preserve" text-anchor="start" x="68.75" y="-82.77" font-family="Monospace" font-size="14.00">B4() </text>
<polygon fill="none" stroke="black" points="8,-52.57 8,-75.82 170.75,-75.82 170.75,-52.57 8,-52.57"/>
<text xml:space="preserve" text-anchor="start" x="11" y="-59.52" font-family="Monospace" font-size="14.00">R16 = add R10, R12 </text>
<polygon fill="none" stroke="black" points="8,-29.32 8,-52.57 170.75,-52.57 170.75,-29.32 8,-29.32"/>
<text xml:space="preserve" text-anchor="start" x="11" y="-36.27" font-family="Monospace" font-size="14.00">ret R16 </text>
</g>
<!-- B2&#45;&gt;B4 -->
<g id="edge2" class="edge">
<title>B2:s&#45;&gt;B4:n</title>
<path fill="none" stroke="black" d="M286.38,-150.69C286.38,-64.53 107.41,-178.75 90.63,-111.37"/>
<polygon fill="black" stroke="black" points="94.13,-111.12 89.54,-101.57 87.17,-111.9 94.13,-111.12"/>
</g>
<!-- B3 -->
<g id="node4" class="node">
<title>B3</title>
<polygon fill="lightgray" stroke="none" points="205,-87.44 205,-110.69 367.75,-110.69 367.75,-87.44 205,-87.44"/>
<polygon fill="none" stroke="black" points="205,-87.44 205,-110.69 367.75,-110.69 367.75,-87.44 205,-87.44"/>
<text xml:space="preserve" text-anchor="start" x="265.75" y="-94.39" font-family="Monospace" font-size="14.00">B3() </text>
<polygon fill="none" stroke="black" points="205,-64.19 205,-87.44 367.75,-87.44 367.75,-64.19 205,-64.19"/>
<text xml:space="preserve" text-anchor="start" x="208" y="-71.14" font-family="Monospace" font-size="14.00">R14 = mul R12, R13 </text>
<polygon fill="none" stroke="black" points="205,-40.94 205,-64.19 367.75,-64.19 367.75,-40.94 205,-40.94"/>
<text xml:space="preserve" text-anchor="start" x="208" y="-47.89" font-family="Monospace" font-size="14.00">R15 = sub R13, $1 </text>
<polygon fill="none" stroke="black" points="205,-17.69 205,-40.94 367.75,-40.94 367.75,-17.69 205,-17.69"/>
<text xml:space="preserve" text-anchor="start" x="208" y="-24.64" font-family="Monospace" font-size="14.00">jump →B2(R14, R15) </text>
</g>
<!-- B2&#45;&gt;B3 -->
<g id="edge3" class="edge">
<title>B2:s&#45;&gt;B3:n</title>
<path fill="none" stroke="black" d="M286.38,-150.69C286.38,-137.83 286.38,-132.12 286.38,-122.95"/>
<polygon fill="black" stroke="black" points="289.88,-123.2 286.38,-113.2 282.88,-123.2 289.88,-123.2"/>
</g>
<!-- B3&#45;&gt;B2 -->
<g id="edge4" class="edge">
<title>B3:s&#45;&gt;B2:n</title>
<path fill="none" stroke="black" d="M286.38,-12.73C286.38,7.13 361.78,0.39 375.75,-13.73 442.05,-80.78 424.19,-164.99 351,-224.44 332.36,-239.58 299.73,-250.18 289.52,-236.47"/>
<polygon fill="black" stroke="black" points="292.9,-235.55 286.79,-226.9 286.16,-237.47 292.9,-235.55"/>
</g>
</g>
</svg>
