<?xml version="1.0" encoding="UTF-8" standalone="no"?>
<!DOCTYPE svg PUBLIC "-//W3C//DTD SVG 1.1//EN"
 "http://www.w3.org/Graphics/SVG/1.1/DTD/svg11.dtd">
<!-- Generated by graphviz version 14.1.4 (20260321.0153)
 -->
<!-- Title: G Pages: 1 -->
<svg width="490pt" height="330pt"
 viewBox="0.00 0.00 490.00 330.00" xmlns="http://www.w3.org/2000/svg" xmlns:xlink="http://www.w3.org/1999/xlink">
<g id="graph0" class="graph" transform="scale(1 1) rotate(0) translate(4 325.97)">
<title>G</title>
<polygon fill="white" stroke="none" points="-4,4 -4,-325.97 485.92,-325.97 485.92,4 -4,4"/>
<!-- B1 -->
<g id="node1" class="node">
<title>B1</title>
<polygon fill="lightgray" stroke="none" points="270.62,-294.72 270.62,-317.97 441.62,-317.97 441.62,-294.72 270.62,-294.72"/>
<polygon fill="none" stroke="black" points="270.62,-294.72 270.62,-317.97 441.62,-317.97 441.62,-294.72 270.62,-294.72"/>
<text xml:space="preserve" text-anchor="start" x="286" y="-301.47" font-family="Monospace" font-size="14.00">B1(0:R10, 1:R11) </text>
<polygon fill="none" stroke="black" points="270.62,-271.47 270.62,-294.72 441.62,-294.72 441.62,-271.47 270.62,-271.47"/>
<text xml:space="preserve" text-anchor="start" x="273.62" y="-278.22" font-family="Monospace" font-size="14.00">2:jump →B2($1, R11) </text>
</g>
<!-- B2 -->
<g id="node2" class="node">
<title>B2</title>
<polygon fill="lightgray" stroke="none" points="283,-204.22 283,-227.47 429.25,-227.47 429.25,-204.22 283,-204.22"/>
<polygon fill="none" stroke="black" points="283,-204.22 283,-227.47 429.25,-227.47 429.25,-204.22 283,-204.22"/>
<text xml:space="preserve" text-anchor="start" x="286" y="-210.97" font-family="Monospace" font-size="14.00">B2(3:R12, 4:R13) </text>
<polygon fill="none" stroke="black" points="283,-180.97 283,-204.22 429.25,-204.22 429.25,-180.97 283,-180.97"/>
<text xml:space="preserve" text-anchor="start" x="286" y="-187.72" font-family="Monospace" font-size="14.00">5:cmp R13, $1 </text>
<polygon fill="none" stroke="black" points="283,-157.72 283,-180.97 429.25,-180.97 429.25,-157.72 283,-157.72"/>
<text xml:space="preserve" text-anchor="start" x="286" y="-164.47" font-family="Monospace" font-size="14.00">6:blt →B4, →B3 </text>
</g>
<!-- B1&#45;&gt;B2 -->
<g id="edge1" class="edge">
<title>B1:s&#45;&gt;B2:n</title>
<path fill="none" stroke="black" d="M356.12,-267.47C356.12,-254.61 356.12,-248.9 356.12,-239.73"/>
<polygon fill="black" stroke="black" points="359.63,-239.98 356.13,-229.98 352.63,-239.98 359.63,-239.98"/>
</g>
<!-- B4 -->
<g id="node3" class="node">
<title>B4</title>
<polygon fill="lightgray" stroke="none" points="8,-78.84 8,-102.09 220.25,-102.09 220.25,-78.84 8,-78.84"/>
<polygon fill="none" stroke="black" points="8,-78.84 8,-102.09 220.25,-102.09 220.25,-78.84 8,-78.84"/>
<text xml:space="preserve" text-anchor="start" x="81.12" y="-85.59" font-family="Monospace" font-size="14.00">13:B4() </text>
<polygon fill="none" stroke="black" points="8,-55.59 8,-78.84 220.25,-78.84 220.25,-55.59 8,-55.59"/>
<text xml:space="preserve" text-anchor="start" x="11" y="-62.34" font-family="Monospace" font-size="14.00">15:R16 = 14:add R10, R12 </text>
<polygon fill="none" stroke="black" points="8,-32.34 8,-55.59 220.25,-55.59 220.25,-32.34 8,-32.34"/>
<text xml:space="preserve" text-anchor="start" x="11" y="-39.09" font-family="Monospace" font-size="14.00">16:ret R16 </text>
</g>
<!-- B2&#45;&gt;B4 -->
<g id="edge2" class="edge">
<title>B2:s&#45;&gt;B4:n</title>
<path fill="none" stroke="black" d="M356.12,-153.72C356.12,-102.86 148.71,-149.87 117.93,-113.53"/>
<polygon fill="black" stroke="black" points="121.35,-112.72 114.64,-104.52 114.78,-115.11 121.35,-112.72"/>
</g>
<!-- B3 -->
<g id="node4" class="node">
<title>B3</title>
<polygon fill="lightgray" stroke="none" points="254.12,-90.47 254.12,-113.72 458.12,-113.72 458.12,-90.47 254.12,-90.47"/>
<polygon fill="none" stroke="black" points="254.12,-90.47 254.12,-113.72 458.12,-113.72 458.12,-90.47 254.12,-90.47"/>
<text xml:space="preserve" text-anchor="start" x="327.25" y="-97.22" font-family="Monospace" font-size="14.00">7:B3() </text>
<polygon fill="none" stroke="black" points="254.12,-67.22 254.12,-90.47 458.12,-90.47 458.12,-67.22 254.12,-67.22"/>
<text xml:space="preserve" text-anchor="start" x="257.12" y="-73.97" font-family="Monospace" font-size="14.00">9:R14 = 8:mul R12, R13 </text>
<polygon fill="none" stroke="black" points="254.12,-43.97 254.12,-67.22 458.12,-67.22 458.12,-43.97 254.12,-43.97"/>
<text xml:space="preserve" text-anchor="start" x="257.12" y="-50.72" font-family="Monospace" font-size="14.00">11:R15 = 10:sub R13, $1 </text>
<polygon fill="none" stroke="black" points="254.12,-20.72 254.12,-43.97 458.12,-43.97 458.12,-20.72 254.12,-20.72"/>
<text xml:space="preserve" text-anchor="start" x="257.12" y="-27.47" font-family="Monospace" font-size="14.00">12:jump →B2(R14, R15) </text>
</g>
<!-- B2&#45;&gt;B3 -->
<g id="edge3" class="edge">
<title>B2:s&#45;&gt;B3:n</title>
<path fill="none" stroke="black" d="M356.12,-153.72C356.12,-140.86 356.12,-135.15 356.12,-125.98"/>
<polygon fill="black" stroke="black" points="359.63,-126.23 356.13,-116.23 352.63,-126.23 359.63,-126.23"/>
</g>
<!-- B3&#45;&gt;B2 -->
<g id="edge4" class="edge">
<title>B3:s&#45;&gt;B2:n</title>
<path fill="none" stroke="black" d="M356.12,-15.75C356.12,8.7 448.92,0.62 466.12,-16.75 499.39,-50.32 474.5,-198.38 437.25,-227.47 426.04,-236.22 382.01,-243.01 363.93,-236.63"/>
<polygon fill="black" stroke="black" points="366.62,-234.37 357.17,-229.56 361.56,-239.21 366.62,-234.37"/>
</g>
</g>
</svg>
