<?xml version="1.0" encoding="UTF-8" standalone="no"?>
<!DOCTYPE svg PUBLIC "-//W3C//DTD SVG 1.1//EN"
 "http://www.w3.org/Graphics/SVG/1.1/DTD/svg11.dtd">
<!-- Generated by graphviz version 13.0.1 (20250615.1724)
 -->
<!-- Title: G Pages: 1 -->
<svg width="425pt" height="323pt"
 viewBox="0.00 0.00 425.00 323.00" xmlns="http://www.w3.org/2000/svg" xmlns:xlink="http://www.w3.org/1999/xlink">
<g id="graph0" class="graph" transform="scale(1 1) rotate(0) translate(4 318.98)">
<title>G</title>
<polygon fill="white" stroke="none" points="-4,4 -4,-318.98 421.22,-318.98 421.22,4 -4,4"/>
<!-- B1 -->
<g id="node1" class="node">
<title>B1</title>
<polygon fill="lightgray" stroke="none" points="209.12,-287.73 209.12,-310.98 363.62,-310.98 363.62,-287.73 209.12,-287.73"/>
<polygon fill="none" stroke="black" points="209.12,-287.73 209.12,-310.98 363.62,-310.98 363.62,-287.73 209.12,-287.73"/>
<text xml:space="preserve" text-anchor="start" x="232.75" y="-294.68" font-family="Monospace" font-size="14.00">B1(V10, V11) </text>
<polygon fill="none" stroke="black" points="209.12,-264.48 209.12,-287.73 363.62,-287.73 363.62,-264.48 209.12,-264.48"/>
<text xml:space="preserve" text-anchor="start" x="212.12" y="-271.43" font-family="Monospace" font-size="14.00">jump →B2($1, V11) </text>
</g>
<!-- B2 -->
<g id="node2" class="node">
<title>B2</title>
<polygon fill="lightgray" stroke="none" points="229.75,-197.23 229.75,-220.48 343,-220.48 343,-197.23 229.75,-197.23"/>
<polygon fill="none" stroke="black" points="229.75,-197.23 229.75,-220.48 343,-220.48 343,-197.23 229.75,-197.23"/>
<text xml:space="preserve" text-anchor="start" x="232.75" y="-204.18" font-family="Monospace" font-size="14.00">B2(V12, V13) </text>
<polygon fill="none" stroke="black" points="229.75,-173.98 229.75,-197.23 343,-197.23 343,-173.98 229.75,-173.98"/>
<text xml:space="preserve" text-anchor="start" x="232.75" y="-180.93" font-family="Monospace" font-size="14.00">cmp V13, $1 </text>
<polygon fill="none" stroke="black" points="229.75,-150.73 229.75,-173.98 343,-173.98 343,-150.73 229.75,-150.73"/>
<text xml:space="preserve" text-anchor="start" x="232.75" y="-157.68" font-family="Monospace" font-size="14.00">blt →B4, →B3 </text>
</g>
<!-- B1&#45;&gt;B2 -->
<g id="edge1" class="edge">
<title>B1:0&#45;&gt;B2:params</title>
<path fill="none" stroke="black" d="M286.38,-263.48C286.38,-249.33 286.38,-243.23 286.38,-232.98"/>
<polygon fill="black" stroke="black" points="289.88,-232.99 286.38,-222.99 282.88,-232.99 289.88,-232.99"/>
</g>
<!-- B4 -->
<g id="node3" class="node">
<title>B4</title>
<polygon fill="lightgray" stroke="none" points="8,-71.85 8,-95.1 170.75,-95.1 170.75,-71.85 8,-71.85"/>
<polygon fill="none" stroke="black" points="8,-71.85 8,-95.1 170.75,-95.1 170.75,-71.85 8,-71.85"/>
<text xml:space="preserve" text-anchor="start" x="68.75" y="-78.8" font-family="Monospace" font-size="14.00">B4() </text>
<polygon fill="none" stroke="black" points="8,-48.6 8,-71.85 170.75,-71.85 170.75,-48.6 8,-48.6"/>
<text xml:space="preserve" text-anchor="start" x="11" y="-55.55" font-family="Monospace" font-size="14.00">V16 = add V10, V12 </text>
<polygon fill="none" stroke="black" points="8,-25.35 8,-48.6 170.75,-48.6 170.75,-25.35 8,-25.35"/>
<text xml:space="preserve" text-anchor="start" x="11" y="-32.3" font-family="Monospace" font-size="14.00">ret V16 </text>
</g>
<!-- B2&#45;&gt;B4 -->
<g id="edge2" class="edge">
<title>B2:1&#45;&gt;B4:params</title>
<path fill="none" stroke="black" d="M228.75,-162.35C199.62,-162.35 204.96,-134.67 188.38,-110.73 183.45,-103.62 183.62,-95.06 181.3,-89.45"/>
<polygon fill="black" stroke="black" points="183.37,-86.62 173.03,-84.28 179.66,-92.55 183.37,-86.62"/>
</g>
<!-- B3 -->
<g id="node4" class="node">
<title>B3</title>
<polygon fill="lightgray" stroke="none" points="205,-83.48 205,-106.73 367.75,-106.73 367.75,-83.48 205,-83.48"/>
<polygon fill="none" stroke="black" points="205,-83.48 205,-106.73 367.75,-106.73 367.75,-83.48 205,-83.48"/>
<text xml:space="preserve" text-anchor="start" x="265.75" y="-90.43" font-family="Monospace" font-size="14.00">B3() </text>
<polygon fill="none" stroke="black" points="205,-60.23 205,-83.48 367.75,-83.48 367.75,-60.23 205,-60.23"/>
<text xml:space="preserve" text-anchor="start" x="208" y="-67.18" font-family="Monospace" font-size="14.00">V14 = mul V12, V13 </text>
<polygon fill="none" stroke="black" points="205,-36.98 205,-60.23 367.75,-60.23 367.75,-36.98 205,-36.98"/>
<text xml:space="preserve" text-anchor="start" x="208" y="-43.93" font-family="Monospace" font-size="14.00">V15 = sub V13, $1 </text>
<polygon fill="none" stroke="black" points="205,-13.73 205,-36.98 367.75,-36.98 367.75,-13.73 205,-13.73"/>
<text xml:space="preserve" text-anchor="start" x="208" y="-20.68" font-family="Monospace" font-size="14.00">jump →B2(V14, V15) </text>
</g>
<!-- B2&#45;&gt;B3 -->
<g id="edge3" class="edge">
<title>B2:1&#45;&gt;B3:params</title>
<path fill="none" stroke="black" d="M286.38,-149.73C286.38,-135.58 286.38,-129.48 286.38,-119.23"/>
<polygon fill="black" stroke="black" points="289.88,-119.24 286.38,-109.24 282.88,-119.24 289.88,-119.24"/>
</g>
<!-- B3&#45;&gt;B2 -->
<g id="edge4" class="edge">
<title>B3:2&#45;&gt;B2:params</title>
<path fill="none" stroke="black" d="M286.38,-12.73C286.38,7.13 361.78,0.39 375.75,-13.73 434.75,-73.4 432.24,-197.08 355.34,-208.07"/>
<polygon fill="black" stroke="black" points="355.24,-204.57 345.51,-208.75 355.73,-211.55 355.24,-204.57"/>
</g>
</g>
</svg>
